STARTFONT 2.1
COMMENT $Xorg: $
COMMENT ISO10646-1 extension by Markus Kuhn <mkuhn@acm.org>, 2001-03-20
FONT -B&H-LucidaTypewriter-Bold-R-Normal-Sans-17-120-100-100-M-100-ISO10646-1
SIZE 12 100 100
FONTBOUNDINGBOX 15 25 -3 -7
STARTPROPERTIES 22
FONTNAME_REGISTRY ""
FOUNDRY "B&H"
FAMILY_NAME "LucidaTypewriter"
WEIGHT_NAME "Bold"
SLANT "R"
SETWIDTH_NAME "Normal"
ADD_STYLE_NAME "Sans"
PIXEL_SIZE 17
POINT_SIZE 120
RESOLUTION_X 100
RESOLUTION_Y 100
SPACING "M"
AVERAGE_WIDTH 100
CHARSET_REGISTRY "ISO10646"
CHARSET_ENCODING "1"
FONT_ASCENT 15
FONT_DESCENT 3
DEFAULT_CHAR 0
COPYRIGHT "Copyright Bigelow & Holmes 1986, 1985."
FACE_NAME "Lucida Sans Typewriter Bold"
X_HEIGHT 9
CAP_HEIGHT 12
ENDPROPERTIES
CHARS 873
STARTCHAR char0
ENCODING 0
SWIDTH 602 0
DWIDTH 10 0
BBX 9 11 1 0
BITMAP
AA80
0000
8080
0000
8080
0000
8080
0000
8080
0000
AA80
ENDCHAR
STARTCHAR space
ENCODING 32
SWIDTH 602 0
DWIDTH 10 0
BBX 1 1 0 0
BITMAP
00
ENDCHAR
STARTCHAR exclam
ENCODING 33
SWIDTH 602 0
DWIDTH 10 0
BBX 2 12 4 0
BITMAP
C0
C0
C0
C0
C0
C0
C0
C0
00
00
C0
C0
ENDCHAR
STARTCHAR quotedbl
ENCODING 34
SWIDTH 602 0
DWIDTH 10 0
BBX 6 5 2 7
BITMAP
CC
CC
CC
CC
CC
ENDCHAR
STARTCHAR numbersign
ENCODING 35
SWIDTH 602 0
DWIDTH 10 0
BBX 9 12 1 0
BITMAP
1F80
1B00
1B00
7F80
7F80
3600
3600
FF00
FF00
6C00
6C00
FC00
ENDCHAR
STARTCHAR dollar
ENCODING 36
SWIDTH 602 0
DWIDTH 10 0
BBX 8 16 1 -2
BITMAP
18
18
7E
FE
C0
C0
F0
3C
1E
07
03
83
FF
FE
18
18
ENDCHAR
STARTCHAR percent
ENCODING 37
SWIDTH 602 0
DWIDTH 10 0
BBX 10 12 0 0
BITMAP
7180
FB00
DB00
DE00
FE00
7C00
0F80
1FC0
1EC0
36C0
37C0
6380
ENDCHAR
STARTCHAR ampersand
ENCODING 38
SWIDTH 602 0
DWIDTH 10 0
BBX 10 12 0 0
BITMAP
3E00
7F00
6300
7300
3E00
3CC0
7CC0
CCC0
C680
E380
7F80
3DC0
ENDCHAR
STARTCHAR quotesingle
ENCODING 39
SWIDTH 602 0
DWIDTH 10 0
BBX 3 5 4 7
BITMAP
E0
E0
E0
60
60
ENDCHAR
STARTCHAR parenleft
ENCODING 40
SWIDTH 602 0
DWIDTH 10 0
BBX 6 15 3 -3
BITMAP
0C
3C
78
60
E0
C0
C0
C0
C0
C0
60
60
30
1C
0C
ENDCHAR
STARTCHAR parenright
ENCODING 41
SWIDTH 602 0
DWIDTH 10 0
BBX 6 15 1 -3
BITMAP
C0
E0
30
18
18
0C
0C
0C
0C
0C
1C
18
78
F0
C0
ENDCHAR
STARTCHAR asterisk
ENCODING 42
SWIDTH 602 0
DWIDTH 10 0
BBX 8 7 1 5
BITMAP
18
59
E3
E7
38
66
24
ENDCHAR
STARTCHAR plus
ENCODING 43
SWIDTH 602 0
DWIDTH 10 0
BBX 8 9 1 0
BITMAP
18
18
18
FF
FF
18
18
18
18
ENDCHAR
STARTCHAR comma
ENCODING 44
SWIDTH 602 0
DWIDTH 10 0
BBX 3 6 4 -3
BITMAP
E0
E0
E0
60
E0
C0
ENDCHAR
STARTCHAR hyphen
ENCODING 45
SWIDTH 602 0
DWIDTH 10 0
BBX 9 2 1 3
BITMAP
FF80
FF80
ENDCHAR
STARTCHAR period
ENCODING 46
SWIDTH 602 0
DWIDTH 10 0
BBX 3 2 4 0
BITMAP
E0
E0
ENDCHAR
STARTCHAR slash
ENCODING 47
SWIDTH 602 0
DWIDTH 10 0
BBX 10 15 0 -3
BITMAP
00C0
0180
0380
0300
0700
0600
0E00
0C00
1C00
1800
3800
3000
6000
6000
C000
ENDCHAR
STARTCHAR zero
ENCODING 48
SWIDTH 602 0
DWIDTH 10 0
BBX 9 12 1 0
BITMAP
3E00
7F00
6300
C180
C180
C180
C180
C180
C180
6300
7F00
3E00
ENDCHAR
STARTCHAR one
ENCODING 49
SWIDTH 602 0
DWIDTH 10 0
BBX 6 12 3 0
BITMAP
F0
F0
30
30
30
30
30
30
30
30
FC
FC
ENDCHAR
STARTCHAR two
ENCODING 50
SWIDTH 602 0
DWIDTH 10 0
BBX 7 12 2 0
BITMAP
78
FE
8E
06
06
0E
1C
38
70
E0
FE
FE
ENDCHAR
STARTCHAR three
ENCODING 51
SWIDTH 602 0
DWIDTH 10 0
BBX 6 12 2 0
BITMAP
78
FC
8C
0C
1C
70
78
1C
0C
8C
F8
F0
ENDCHAR
STARTCHAR four
ENCODING 52
SWIDTH 602 0
DWIDTH 10 0
BBX 9 12 1 0
BITMAP
0E00
0E00
1E00
3E00
3600
6600
C600
FF80
FF80
0600
0600
0600
ENDCHAR
STARTCHAR five
ENCODING 53
SWIDTH 602 0
DWIDTH 10 0
BBX 6 12 2 0
BITMAP
FC
FC
C0
C0
F0
F8
1C
0C
0C
9C
F8
F0
ENDCHAR
STARTCHAR six
ENCODING 54
SWIDTH 602 0
DWIDTH 10 0
BBX 9 12 1 0
BITMAP
1F80
3F80
7080
E000
DE00
FF00
E380
C180
C180
6380
7F00
1E00
ENDCHAR
STARTCHAR seven
ENCODING 55
SWIDTH 602 0
DWIDTH 10 0
BBX 7 12 2 0
BITMAP
FE
FE
0E
0C
1C
38
30
70
60
E0
C0
C0
ENDCHAR
STARTCHAR eight
ENCODING 56
SWIDTH 602 0
DWIDTH 10 0
BBX 8 12 1 0
BITMAP
3C
7E
66
66
7C
3C
6E
C7
C3
E3
7E
3C
ENDCHAR
STARTCHAR nine
ENCODING 57
SWIDTH 602 0
DWIDTH 10 0
BBX 9 12 1 0
BITMAP
3C00
7F00
E300
C180
C180
E380
7F80
3D80
0380
8700
FE00
FC00
ENDCHAR
STARTCHAR colon
ENCODING 58
SWIDTH 602 0
DWIDTH 10 0
BBX 2 9 4 0
BITMAP
C0
C0
00
00
00
00
00
C0
C0
ENDCHAR
STARTCHAR semicolon
ENCODING 59
SWIDTH 602 0
DWIDTH 10 0
BBX 2 12 4 -3
BITMAP
C0
C0
00
00
00
00
C0
C0
C0
C0
C0
80
ENDCHAR
STARTCHAR less
ENCODING 60
SWIDTH 602 0
DWIDTH 10 0
BBX 9 9 1 0
BITMAP
0080
0380
0F00
3C00
F000
3C00
0F00
0380
0080
ENDCHAR
STARTCHAR equal
ENCODING 61
SWIDTH 602 0
DWIDTH 10 0
BBX 9 6 1 1
BITMAP
FF80
FF80
0000
0000
FF80
FF80
ENDCHAR
STARTCHAR greater
ENCODING 62
SWIDTH 602 0
DWIDTH 10 0
BBX 9 9 1 0
BITMAP
8000
E000
7800
1E00
0780
1E00
7800
E000
8000
ENDCHAR
STARTCHAR question
ENCODING 63
SWIDTH 602 0
DWIDTH 10 0
BBX 8 12 1 0
BITMAP
7C
FF
C3
C3
07
1E
3C
30
30
00
30
30
ENDCHAR
STARTCHAR at
ENCODING 64
SWIDTH 602 0
DWIDTH 10 0
BBX 10 12 0 0
BITMAP
1F00
3F80
7180
6F80
DF80
D980
DB80
DFC0
CDC0
6200
7E00
3C00
ENDCHAR
STARTCHAR A
ENCODING 65
SWIDTH 602 0
DWIDTH 10 0
BBX 10 12 0 0
BITMAP
0C00
1E00
1E00
1E00
3700
3300
3300
7F80
7F80
6180
C180
C0C0
ENDCHAR
STARTCHAR B
ENCODING 66
SWIDTH 602 0
DWIDTH 10 0
BBX 8 12 1 0
BITMAP
FE
FF
C3
C3
C6
FC
FE
C7
C3
C7
FF
FE
ENDCHAR
STARTCHAR C
ENCODING 67
SWIDTH 602 0
DWIDTH 10 0
BBX 9 12 1 0
BITMAP
1F80
3F80
7080
E000
C000
C000
C000
C000
E000
7080
3F80
1F00
ENDCHAR
STARTCHAR D
ENCODING 68
SWIDTH 602 0
DWIDTH 10 0
BBX 9 12 1 0
BITMAP
FE00
FF00
C380
C180
C180
C180
C180
C180
C180
C300
FE00
FC00
ENDCHAR
STARTCHAR E
ENCODING 69
SWIDTH 602 0
DWIDTH 10 0
BBX 8 12 1 0
BITMAP
FF
FF
C0
C0
C0
FE
FE
C0
C0
C0
FF
FF
ENDCHAR
STARTCHAR F
ENCODING 70
SWIDTH 602 0
DWIDTH 10 0
BBX 8 12 2 0
BITMAP
FF
FF
C0
C0
C0
FE
FE
C0
C0
C0
C0
C0
ENDCHAR
STARTCHAR G
ENCODING 71
SWIDTH 602 0
DWIDTH 10 0
BBX 10 12 0 0
BITMAP
1FC0
3FC0
7040
E000
C000
C000
C0C0
C0C0
E0C0
70C0
3FC0
1F80
ENDCHAR
STARTCHAR H
ENCODING 72
SWIDTH 602 0
DWIDTH 10 0
BBX 9 12 1 0
BITMAP
C180
C180
C180
C180
C180
FF80
FF80
C180
C180
C180
C180
C180
ENDCHAR
STARTCHAR I
ENCODING 73
SWIDTH 602 0
DWIDTH 10 0
BBX 8 12 1 0
BITMAP
FF
FF
18
18
18
18
18
18
18
18
FF
FF
ENDCHAR
STARTCHAR J
ENCODING 74
SWIDTH 602 0
DWIDTH 10 0
BBX 7 12 1 0
BITMAP
7E
7E
06
06
06
06
06
06
06
0E
FC
F8
ENDCHAR
STARTCHAR K
ENCODING 75
SWIDTH 602 0
DWIDTH 10 0
BBX 9 12 1 0
BITMAP
C380
C700
CE00
DC00
D800
F000
F800
D800
CC00
CE00
C700
C380
ENDCHAR
STARTCHAR L
ENCODING 76
SWIDTH 602 0
DWIDTH 10 0
BBX 8 12 2 0
BITMAP
C0
C0
C0
C0
C0
C0
C0
C0
C0
C0
FF
FF
ENDCHAR
STARTCHAR M
ENCODING 77
SWIDTH 602 0
DWIDTH 10 0
BBX 9 12 1 0
BITMAP
E380
E380
F780
F780
F780
F780
F780
DD80
DD80
DD80
DD80
C180
ENDCHAR
STARTCHAR N
ENCODING 78
SWIDTH 602 0
DWIDTH 10 0
BBX 8 12 1 0
BITMAP
E3
E3
E3
F3
F3
DB
DB
CF
CF
C7
C7
C3
ENDCHAR
STARTCHAR O
ENCODING 79
SWIDTH 602 0
DWIDTH 10 0
BBX 10 12 0 0
BITMAP
1E00
7F80
6180
C0C0
C0C0
C0C0
C0C0
C0C0
C0C0
6180
7F80
1E00
ENDCHAR
STARTCHAR P
ENCODING 80
SWIDTH 602 0
DWIDTH 10 0
BBX 9 12 1 0
BITMAP
FE00
FF00
C180
C180
C180
C380
FF00
FE00
C000
C000
C000
C000
ENDCHAR
STARTCHAR Q
ENCODING 81
SWIDTH 602 0
DWIDTH 10 0
BBX 11 14 0 -2
BITMAP
1E00
7F80
6180
C0C0
C0C0
C0C0
C0C0
C0C0
C0C0
61C0
7F80
1F00
03E0
00C0
ENDCHAR
STARTCHAR R
ENCODING 82
SWIDTH 602 0
DWIDTH 10 0
BBX 8 12 1 0
BITMAP
FE
FF
C3
C3
C3
C6
FC
FC
CE
C6
C7
C3
ENDCHAR
STARTCHAR S
ENCODING 83
SWIDTH 602 0
DWIDTH 10 0
BBX 9 12 1 0
BITMAP
3F00
7F00
C100
C000
F000
3C00
0F00
0380
0180
8380
FF00
FE00
ENDCHAR
STARTCHAR T
ENCODING 84
SWIDTH 602 0
DWIDTH 10 0
BBX 10 12 0 0
BITMAP
FFC0
FFC0
0C00
0C00
0C00
0C00
0C00
0C00
0C00
0C00
0C00
0C00
ENDCHAR
STARTCHAR U
ENCODING 85
SWIDTH 602 0
DWIDTH 10 0
BBX 8 12 1 0
BITMAP
C3
C3
C3
C3
C3
C3
C3
C3
C3
C3
FE
7C
ENDCHAR
STARTCHAR V
ENCODING 86
SWIDTH 602 0
DWIDTH 10 0
BBX 10 12 0 0
BITMAP
E0C0
60C0
6180
6180
3180
3300
3300
1B00
1E00
1E00
1E00
0C00
ENDCHAR
STARTCHAR W
ENCODING 87
SWIDTH 602 0
DWIDTH 10 0
BBX 10 12 0 0
BITMAP
C0C0
CEC0
CEC0
DE80
7E80
7F80
7F80
7F80
7780
7300
7300
7300
ENDCHAR
STARTCHAR X
ENCODING 88
SWIDTH 602 0
DWIDTH 10 0
BBX 10 12 0 0
BITMAP
E1C0
7180
3300
3F00
1E00
0E00
1E00
1E00
3700
7300
6180
C1C0
ENDCHAR
STARTCHAR Y
ENCODING 89
SWIDTH 602 0
DWIDTH 10 0
BBX 10 12 0 0
BITMAP
E0C0
6180
3380
3300
1F00
1E00
0E00
0C00
0C00
0C00
0C00
0C00
ENDCHAR
STARTCHAR Z
ENCODING 90
SWIDTH 602 0
DWIDTH 10 0
BBX 9 12 0 0
BITMAP
FF80
FF80
0300
0600
0E00
0C00
1800
3800
3000
6000
FF80
FF80
ENDCHAR
STARTCHAR bracketleft
ENCODING 91
SWIDTH 602 0
DWIDTH 10 0
BBX 6 15 3 -3
BITMAP
FC
FC
C0
C0
C0
C0
C0
C0
C0
C0
C0
C0
C0
FC
FC
ENDCHAR
STARTCHAR backslash
ENCODING 92
SWIDTH 602 0
DWIDTH 10 0
BBX 10 15 0 -3
BITMAP
C000
6000
7000
3000
3800
1800
1C00
0C00
0E00
0600
0700
0300
0380
0180
00C0
ENDCHAR
STARTCHAR bracketright
ENCODING 93
SWIDTH 602 0
DWIDTH 10 0
BBX 6 15 1 -3
BITMAP
FC
FC
0C
0C
0C
0C
0C
0C
0C
0C
0C
0C
0C
FC
FC
ENDCHAR
STARTCHAR asciicircum
ENCODING 94
SWIDTH 602 0
DWIDTH 10 0
BBX 9 10 1 2
BITMAP
0800
0800
1C00
1C00
3E00
3600
3600
6300
6300
C180
ENDCHAR
STARTCHAR underscore
ENCODING 95
SWIDTH 602 0
DWIDTH 10 0
BBX 10 2 0 -2
BITMAP
FFC0
FFC0
ENDCHAR
STARTCHAR grave
ENCODING 96
SWIDTH 602 0
DWIDTH 10 0
BBX 4 2 3 10
BITMAP
E0
30
ENDCHAR
STARTCHAR a
ENCODING 97
SWIDTH 602 0
DWIDTH 10 0
BBX 9 9 1 0
BITMAP
7E00
7F00
4300
3F00
FF00
C300
C700
FF80
7B80
ENDCHAR
STARTCHAR b
ENCODING 98
SWIDTH 602 0
DWIDTH 10 0
BBX 9 12 1 0
BITMAP
C000
C000
C000
DE00
FF00
E380
C180
C180
C180
E380
FF00
DE00
ENDCHAR
STARTCHAR c
ENCODING 99
SWIDTH 602 0
DWIDTH 10 0
BBX 8 9 1 0
BITMAP
3F
7F
E1
C0
C0
C0
E0
7F
3F
ENDCHAR
STARTCHAR d
ENCODING 100
SWIDTH 602 0
DWIDTH 10 0
BBX 9 12 1 0
BITMAP
0180
0180
0180
3D80
7F80
E380
C180
C180
C180
E380
7F80
3D80
ENDCHAR
STARTCHAR e
ENCODING 101
SWIDTH 602 0
DWIDTH 10 0
BBX 9 9 1 0
BITMAP
3E00
7F00
E180
FF80
FF80
C000
E080
7F80
1F00
ENDCHAR
STARTCHAR f
ENCODING 102
SWIDTH 602 0
DWIDTH 10 0
BBX 8 12 2 0
BITMAP
1F
3F
30
FE
FE
30
30
30
30
30
30
30
ENDCHAR
STARTCHAR g
ENCODING 103
SWIDTH 602 0
DWIDTH 10 0
BBX 9 12 1 -3
BITMAP
3D80
7F80
E380
C180
C180
C180
E380
7D80
3D80
4380
7F00
3E00
ENDCHAR
STARTCHAR h
ENCODING 104
SWIDTH 602 0
DWIDTH 10 0
BBX 8 12 1 0
BITMAP
C0
C0
C0
DE
FF
E3
C3
C3
C3
C3
C3
C3
ENDCHAR
STARTCHAR i
ENCODING 105
SWIDTH 602 0
DWIDTH 10 0
BBX 5 12 2 0
BITMAP
18
18
00
F8
F8
18
18
18
18
18
18
18
ENDCHAR
STARTCHAR j
ENCODING 106
SWIDTH 602 0
DWIDTH 10 0
BBX 6 15 1 -3
BITMAP
0C
0C
00
7C
7C
0C
0C
0C
0C
0C
0C
0C
8C
FC
F8
ENDCHAR
STARTCHAR k
ENCODING 107
SWIDTH 602 0
DWIDTH 10 0
BBX 8 12 2 0
BITMAP
C0
C0
C0
C6
CC
DC
F8
F8
D8
CC
CE
C7
ENDCHAR
STARTCHAR l
ENCODING 108
SWIDTH 602 0
DWIDTH 10 0
BBX 5 12 1 0
BITMAP
F8
F8
18
18
18
18
18
18
18
18
18
18
ENDCHAR
STARTCHAR m
ENCODING 109
SWIDTH 602 0
DWIDTH 10 0
BBX 10 9 0 0
BITMAP
D9C0
FFC0
EEC0
CCC0
CCC0
CCC0
CCC0
CCC0
CCC0
ENDCHAR
STARTCHAR n
ENCODING 110
SWIDTH 602 0
DWIDTH 10 0
BBX 8 9 1 0
BITMAP
DE
FF
E3
C3
C3
C3
C3
C3
C3
ENDCHAR
STARTCHAR o
ENCODING 111
SWIDTH 602 0
DWIDTH 10 0
BBX 9 9 1 0
BITMAP
3E00
7F00
E380
C180
C180
C180
E380
7F00
3E00
ENDCHAR
STARTCHAR p
ENCODING 112
SWIDTH 602 0
DWIDTH 10 0
BBX 9 12 1 -3
BITMAP
DE00
FF00
E380
C180
C180
C180
E380
FF00
DE00
C000
C000
C000
ENDCHAR
STARTCHAR q
ENCODING 113
SWIDTH 602 0
DWIDTH 10 0
BBX 9 12 1 -3
BITMAP
3D80
7F80
E380
C180
C180
C180
E380
7F80
3D80
0180
0180
0180
ENDCHAR
STARTCHAR r
ENCODING 114
SWIDTH 602 0
DWIDTH 10 0
BBX 7 9 2 0
BITMAP
DE
FE
E6
C6
C0
C0
C0
C0
C0
ENDCHAR
STARTCHAR s
ENCODING 115
SWIDTH 602 0
DWIDTH 10 0
BBX 8 9 1 0
BITMAP
3E
FE
E2
F8
7E
0F
83
FF
FC
ENDCHAR
STARTCHAR t
ENCODING 116
SWIDTH 602 0
DWIDTH 10 0
BBX 8 11 1 0
BITMAP
30
30
FF
FF
30
30
30
30
30
3F
1F
ENDCHAR
STARTCHAR u
ENCODING 117
SWIDTH 602 0
DWIDTH 10 0
BBX 8 9 1 0
BITMAP
C3
C3
C3
C3
C3
C3
C7
FF
7B
ENDCHAR
STARTCHAR v
ENCODING 118
SWIDTH 602 0
DWIDTH 10 0
BBX 10 9 0 0
BITMAP
E0C0
6180
6180
3380
3300
1B00
1E00
1E00
0E00
ENDCHAR
STARTCHAR w
ENCODING 119
SWIDTH 602 0
DWIDTH 10 0
BBX 10 9 0 0
BITMAP
C0C0
CCC0
DEC0
7E80
7E80
7B80
7380
7380
7380
ENDCHAR
STARTCHAR x
ENCODING 120
SWIDTH 602 0
DWIDTH 10 0
BBX 9 9 1 0
BITMAP
E380
7700
3600
1C00
1C00
3C00
7600
6700
C380
ENDCHAR
STARTCHAR y
ENCODING 121
SWIDTH 602 0
DWIDTH 10 0
BBX 10 12 0 -3
BITMAP
E0C0
6180
3180
3300
1B00
1E00
0E00
0E00
0C00
1C00
7800
7000
ENDCHAR
STARTCHAR z
ENCODING 122
SWIDTH 602 0
DWIDTH 10 0
BBX 8 9 1 0
BITMAP
FF
FF
0E
1C
18
30
60
FF
FF
ENDCHAR
STARTCHAR braceleft
ENCODING 123
SWIDTH 602 0
DWIDTH 10 0
BBX 7 15 2 -3
BITMAP
0E
1E
18
18
18
18
18
E0
F8
18
18
18
18
1E
1E
ENDCHAR
STARTCHAR bar
ENCODING 124
SWIDTH 602 0
DWIDTH 10 0
BBX 2 15 4 -3
BITMAP
C0
C0
C0
C0
C0
C0
C0
C0
C0
C0
C0
C0
C0
C0
C0
ENDCHAR
STARTCHAR braceright
ENCODING 125
SWIDTH 602 0
DWIDTH 10 0
BBX 7 15 1 -3
BITMAP
E0
F0
30
30
30
30
30
0E
3E
30
30
30
30
F0
F0
ENDCHAR
STARTCHAR asciitilde
ENCODING 126
SWIDTH 602 0
DWIDTH 10 0
BBX 9 3 1 3
BITMAP
7980
FF80
CF00
ENDCHAR
STARTCHAR space
ENCODING 160
SWIDTH 602 0
DWIDTH 10 0
BBX 1 1 0 0
BITMAP
00
ENDCHAR
STARTCHAR exclamdown
ENCODING 161
SWIDTH 602 0
DWIDTH 10 0
BBX 2 12 4 -3
BITMAP
C0
C0
00
00
C0
C0
C0
C0
C0
C0
C0
C0
ENDCHAR
STARTCHAR cent
ENCODING 162
SWIDTH 602 0
DWIDTH 10 0
BBX 8 12 1 0
BITMAP
0C
0C
3F
7F
E0
C0
C0
E0
7F
3F
0C
0C
ENDCHAR
STARTCHAR sterling
ENCODING 163
SWIDTH 602 0
DWIDTH 10 0
BBX 6 12 2 0
BITMAP
3C
7C
60
60
60
F8
F8
60
60
40
FC
FC
ENDCHAR
STARTCHAR currency
ENCODING 164
SWIDTH 602 0
DWIDTH 10 0
BBX 10 10 0 1
BITMAP
4080
FFC0
7F80
7380
6180
6180
7380
7F80
FFC0
4080
ENDCHAR
STARTCHAR yen
ENCODING 165
SWIDTH 602 0
DWIDTH 10 0
BBX 10 12 0 0
BITMAP
E1C0
3B80
1F00
0E00
3F00
3F00
0C00
3F00
3F00
0C00
0C00
0C00
ENDCHAR
STARTCHAR brokenbar
ENCODING 166
SWIDTH 602 0
DWIDTH 10 0
BBX 2 15 4 -3
BITMAP
C0
C0
C0
C0
C0
C0
00
00
00
C0
C0
C0
C0
C0
C0
ENDCHAR
STARTCHAR section
ENCODING 167
SWIDTH 602 0
DWIDTH 10 0
BBX 7 15 2 -3
BITMAP
7C
FC
C4
C0
70
7C
CE
C6
E6
7C
1C
06
86
FE
F8
ENDCHAR
STARTCHAR dieresis
ENCODING 168
SWIDTH 602 0
DWIDTH 10 0
BBX 5 2 3 10
BITMAP
D8
D8
ENDCHAR
STARTCHAR copyright
ENCODING 169
SWIDTH 602 0
DWIDTH 10 0
BBX 9 12 1 0
BITMAP
1C00
7F00
E300
DD80
FD80
F580
F180
FD80
DD80
6380
7F00
3C00
ENDCHAR
STARTCHAR ordfeminine
ENCODING 170
SWIDTH 602 0
DWIDTH 10 0
BBX 8 6 1 6
BITMAP
FC
FE
86
7E
FF
7F
ENDCHAR
STARTCHAR guillemotleft
ENCODING 171
SWIDTH 602 0
DWIDTH 10 0
BBX 9 8 1 1
BITMAP
1100
3B80
7300
6600
EE00
7700
3B80
1100
ENDCHAR
STARTCHAR logicalnot
ENCODING 172
SWIDTH 602 0
DWIDTH 10 0
BBX 9 5 1 1
BITMAP
FF80
FF80
0180
0180
0180
ENDCHAR
STARTCHAR hyphen
ENCODING 173
SWIDTH 602 0
DWIDTH 10 0
BBX 7 2 2 4
BITMAP
FE
FE
ENDCHAR
STARTCHAR registered
ENCODING 174
SWIDTH 602 0
DWIDTH 10 0
BBX 9 9 1 3
BITMAP
3C00
7F00
E300
DF80
DF80
DF80
FF00
7F00
3C00
ENDCHAR
STARTCHAR macron
ENCODING 175
SWIDTH 602 0
DWIDTH 10 0
BBX 5 2 3 10
BITMAP
F8
F8
ENDCHAR
STARTCHAR degree
ENCODING 176
SWIDTH 602 0
DWIDTH 10 0
BBX 3 3 4 9
BITMAP
E0
A0
E0
ENDCHAR
STARTCHAR plusminus
ENCODING 177
SWIDTH 602 0
DWIDTH 10 0
BBX 8 9 1 0
BITMAP
18
18
FF
FF
18
18
00
FF
FF
ENDCHAR
STARTCHAR twosuperior
ENCODING 178
SWIDTH 602 0
DWIDTH 10 0
BBX 4 6 -1 6
BITMAP
E0
10
10
60
C0
F0
ENDCHAR
STARTCHAR threesuperior
ENCODING 179
SWIDTH 602 0
DWIDTH 10 0
BBX 3 6 -2 6
BITMAP
E0
20
C0
20
20
C0
ENDCHAR
STARTCHAR acute
ENCODING 180
SWIDTH 602 0
DWIDTH 10 0
BBX 4 2 3 10
BITMAP
70
C0
ENDCHAR
STARTCHAR mu
ENCODING 181
SWIDTH 602 0
DWIDTH 10 0
BBX 8 12 1 -3
BITMAP
C3
C3
C3
C3
C3
C3
E7
FF
FB
C0
C0
C0
ENDCHAR
STARTCHAR paragraph
ENCODING 182
SWIDTH 602 0
DWIDTH 10 0
BBX 7 15 1 -3
BITMAP
7E
FE
FE
FE
FE
7E
1E
1E
1E
1E
1E
1E
1E
1E
1E
ENDCHAR
STARTCHAR periodcentered
ENCODING 183
SWIDTH 602 0
DWIDTH 10 0
BBX 2 2 4 3
BITMAP
C0
C0
ENDCHAR
STARTCHAR cedilla
ENCODING 184
SWIDTH 602 0
DWIDTH 10 0
BBX 3 3 4 -3
BITMAP
C0
60
E0
ENDCHAR
STARTCHAR onesuperior
ENCODING 185
SWIDTH 602 0
DWIDTH 10 0
BBX 3 6 -2 6
BITMAP
C0
40
40
40
40
E0
ENDCHAR
STARTCHAR ordmasculine
ENCODING 186
SWIDTH 602 0
DWIDTH 10 0
BBX 8 6 1 6
BITMAP
3C
FF
C3
C3
FF
3C
ENDCHAR
STARTCHAR guillemotright
ENCODING 187
SWIDTH 602 0
DWIDTH 10 0
BBX 9 8 1 1
BITMAP
4400
EE00
7700
3380
3B80
6700
EE00
4400
ENDCHAR
STARTCHAR onequarter
ENCODING 188
SWIDTH 602 0
DWIDTH 10 0
BBX 10 12 2 0
BITMAP
C0C0
4180
4380
4300
4600
EE00
1D80
1980
3280
73C0
6080
C080
ENDCHAR
STARTCHAR onehalf
ENCODING 189
SWIDTH 602 0
DWIDTH 10 0
BBX 10 12 2 0
BITMAP
C0C0
4180
4380
4300
4600
EE00
1F80
1840
3040
7180
6300
C3C0
ENDCHAR
STARTCHAR threequarters
ENCODING 190
SWIDTH 602 0
DWIDTH 10 0
BBX 10 12 2 0
BITMAP
E0C0
2180
C380
2300
2600
CE00
1D80
1980
3280
73C0
6080
C080
ENDCHAR
STARTCHAR questiondown
ENCODING 191
SWIDTH 602 0
DWIDTH 10 0
BBX 8 12 1 -3
BITMAP
0C
0C
00
0C
0C
38
70
E0
C3
C3
FF
3E
ENDCHAR
STARTCHAR Agrave
ENCODING 192
SWIDTH 602 0
DWIDTH 10 0
BBX 10 15 0 0
BITMAP
1C00
0600
0000
0C00
1E00
1E00
1E00
3700
3300
3300
7F80
7F80
6180
C180
C0C0
ENDCHAR
STARTCHAR Aacute
ENCODING 193
SWIDTH 602 0
DWIDTH 10 0
BBX 10 15 0 0
BITMAP
0E00
1800
0000
0C00
1E00
1E00
1E00
3700
3300
3300
7F80
7F80
6180
C180
C0C0
ENDCHAR
STARTCHAR Acircumflex
ENCODING 194
SWIDTH 602 0
DWIDTH 10 0
BBX 10 15 0 0
BITMAP
0E00
1B00
0000
0C00
1E00
1E00
1E00
3700
3300
3300
7F80
7F80
6180
C180
C0C0
ENDCHAR
STARTCHAR Atilde
ENCODING 195
SWIDTH 602 0
DWIDTH 10 0
BBX 10 15 0 0
BITMAP
1F00
1F00
0000
0C00
1E00
1E00
1E00
3700
3300
3300
7F80
7F80
6180
C180
C0C0
ENDCHAR
STARTCHAR Adieresis
ENCODING 196
SWIDTH 602 0
DWIDTH 10 0
BBX 10 15 0 0
BITMAP
1B00
1B00
0000
0C00
1E00
1E00
1E00
3700
3300
3300
7F80
7F80
6180
C180
C0C0
ENDCHAR
STARTCHAR Aring
ENCODING 197
SWIDTH 602 0
DWIDTH 10 0
BBX 10 15 0 0
BITMAP
0E00
0E00
0000
0C00
1E00
1E00
1E00
3700
3300
3300
7F80
7F80
6180
C180
C0C0
ENDCHAR
STARTCHAR AE
ENCODING 198
SWIDTH 602 0
DWIDTH 10 0
BBX 10 12 0 0
BITMAP
0FC0
0FC0
1E00
1E00
1E00
3FC0
37C0
7E00
7E00
6600
E7C0
C7C0
ENDCHAR
STARTCHAR Ccedilla
ENCODING 199
SWIDTH 602 0
DWIDTH 10 0
BBX 9 15 1 -3
BITMAP
1F80
3F80
7080
E000
C000
C000
C000
C000
E000
7080
3F80
1F00
0800
0C00
1C00
ENDCHAR
STARTCHAR Egrave
ENCODING 200
SWIDTH 602 0
DWIDTH 10 0
BBX 8 15 1 0
BITMAP
38
0C
00
FF
FF
C0
C0
C0
FE
FE
C0
C0
C0
FF
FF
ENDCHAR
STARTCHAR Eacute
ENCODING 201
SWIDTH 602 0
DWIDTH 10 0
BBX 8 15 1 0
BITMAP
1C
30
00
FF
FF
C0
C0
C0
FE
FE
C0
C0
C0
FF
FF
ENDCHAR
STARTCHAR Ecircumflex
ENCODING 202
SWIDTH 602 0
DWIDTH 10 0
BBX 8 15 1 0
BITMAP
1C
36
00
FF
FF
C0
C0
C0
FE
FE
C0
C0
C0
FF
FF
ENDCHAR
STARTCHAR Edieresis
ENCODING 203
SWIDTH 602 0
DWIDTH 10 0
BBX 8 15 1 0
BITMAP
6C
6C
00
FF
FF
C0
C0
C0
FE
FE
C0
C0
C0
FF
FF
ENDCHAR
STARTCHAR Igrave
ENCODING 204
SWIDTH 602 0
DWIDTH 10 0
BBX 8 15 1 0
BITMAP
38
0C
00
FF
FF
18
18
18
18
18
18
18
18
FF
FF
ENDCHAR
STARTCHAR Iacute
ENCODING 205
SWIDTH 602 0
DWIDTH 10 0
BBX 8 15 1 0
BITMAP
1C
30
00
FF
FF
18
18
18
18
18
18
18
18
FF
FF
ENDCHAR
STARTCHAR Icircumflex
ENCODING 206
SWIDTH 602 0
DWIDTH 10 0
BBX 8 15 1 0
BITMAP
1C
36
00
FF
FF
18
18
18
18
18
18
18
18
FF
FF
ENDCHAR
STARTCHAR Idieresis
ENCODING 207
SWIDTH 602 0
DWIDTH 10 0
BBX 8 15 1 0
BITMAP
36
36
00
FF
FF
18
18
18
18
18
18
18
18
FF
FF
ENDCHAR
STARTCHAR Eth
ENCODING 208
SWIDTH 602 0
DWIDTH 10 0
BBX 10 12 0 0
BITMAP
7F00
7F80
61C0
60C0
60C0
FCC0
FCC0
60C0
60C0
6180
7F00
7E00
ENDCHAR
STARTCHAR Ntilde
ENCODING 209
SWIDTH 602 0
DWIDTH 10 0
BBX 8 15 1 0
BITMAP
3E
3E
00
E3
E3
E3
F3
F3
DB
DB
CF
CF
C7
C7
C3
ENDCHAR
STARTCHAR Ograve
ENCODING 210
SWIDTH 602 0
DWIDTH 10 0
BBX 10 15 0 0
BITMAP
1C00
0600
0000
1E00
7F80
6180
C0C0
C0C0
C0C0
C0C0
C0C0
C0C0
6180
7F80
1E00
ENDCHAR
STARTCHAR Oacute
ENCODING 211
SWIDTH 602 0
DWIDTH 10 0
BBX 10 15 0 0
BITMAP
0E00
1800
0000
1E00
7F80
6180
C0C0
C0C0
C0C0
C0C0
C0C0
C0C0
6180
7F80
1E00
ENDCHAR
STARTCHAR Ocircumflex
ENCODING 212
SWIDTH 602 0
DWIDTH 10 0
BBX 10 15 0 0
BITMAP
1C00
3600
0000
1E00
7F80
6180
C0C0
C0C0
C0C0
C0C0
C0C0
C0C0
6180
7F80
1E00
ENDCHAR
STARTCHAR Otilde
ENCODING 213
SWIDTH 602 0
DWIDTH 10 0
BBX 10 15 0 0
BITMAP
1F00
1F00
0000
1E00
7F80
6180
C0C0
C0C0
C0C0
C0C0
C0C0
C0C0
6180
7F80
1E00
ENDCHAR
STARTCHAR Odieresis
ENCODING 214
SWIDTH 602 0
DWIDTH 10 0
BBX 10 15 0 0
BITMAP
3600
3600
0000
1E00
7F80
6180
C0C0
C0C0
C0C0
C0C0
C0C0
C0C0
6180
7F80
1E00
ENDCHAR
STARTCHAR multiply
ENCODING 215
SWIDTH 602 0
DWIDTH 10 0
BBX 9 9 1 0
BITMAP
4100
E380
7700
3E00
1C00
3E00
7700
E380
4100
ENDCHAR
STARTCHAR Oslash
ENCODING 216
SWIDTH 602 0
DWIDTH 10 0
BBX 10 12 0 0
BITMAP
1EC0
7F80
6180
C3C0
C7C0
CEC0
DCC0
F8C0
F0C0
6180
7F80
DE00
ENDCHAR
STARTCHAR Ugrave
ENCODING 217
SWIDTH 602 0
DWIDTH 10 0
BBX 8 15 1 0
BITMAP
38
0C
00
C3
C3
C3
C3
C3
C3
C3
C3
C3
C3
FE
7C
ENDCHAR
STARTCHAR Uacute
ENCODING 218
SWIDTH 602 0
DWIDTH 10 0
BBX 8 15 1 0
BITMAP
1C
30
00
C3
C3
C3
C3
C3
C3
C3
C3
C3
C3
FE
7C
ENDCHAR
STARTCHAR Ucircumflex
ENCODING 219
SWIDTH 602 0
DWIDTH 10 0
BBX 8 15 1 0
BITMAP
1C
36
00
C3
C3
C3
C3
C3
C3
C3
C3
C3
C3
FE
7C
ENDCHAR
STARTCHAR Udieresis
ENCODING 220
SWIDTH 602 0
DWIDTH 10 0
BBX 8 15 1 0
BITMAP
36
36
00
C3
C3
C3
C3
C3
C3
C3
C3
C3
C3
FE
7C
ENDCHAR
STARTCHAR Yacute
ENCODING 221
SWIDTH 602 0
DWIDTH 10 0
BBX 10 15 0 0
BITMAP
0E00
1800
0000
E0C0
6180
3380
3300
1F00
1E00
0E00
0C00
0C00
0C00
0C00
0C00
ENDCHAR
STARTCHAR Thorn
ENCODING 222
SWIDTH 602 0
DWIDTH 10 0
BBX 9 12 1 0
BITMAP
C000
C000
FE00
FF00
C180
C180
C180
C380
FF00
FE00
C000
C000
ENDCHAR
STARTCHAR germandbls
ENCODING 223
SWIDTH 602 0
DWIDTH 10 0
BBX 8 12 1 0
BITMAP
7C
FE
C6
C4
C8
D8
DC
CE
C3
D3
DF
DE
ENDCHAR
STARTCHAR agrave
ENCODING 224
SWIDTH 602 0
DWIDTH 10 0
BBX 9 12 1 0
BITMAP
3800
0C00
0000
7E00
7F00
4300
3F00
FF00
C300
C700
FF80
7B80
ENDCHAR
STARTCHAR aacute
ENCODING 225
SWIDTH 602 0
DWIDTH 10 0
BBX 9 12 1 0
BITMAP
1C00
3000
0000
7E00
7F00
4300
3F00
FF00
C300
C700
FF80
7B80
ENDCHAR
STARTCHAR acircumflex
ENCODING 226
SWIDTH 602 0
DWIDTH 10 0
BBX 9 12 1 0
BITMAP
1C00
3600
0000
7E00
7F00
4300
3F00
FF00
C300
C700
FF80
7B80
ENDCHAR
STARTCHAR atilde
ENCODING 227
SWIDTH 602 0
DWIDTH 10 0
BBX 9 12 1 0
BITMAP
3E00
3E00
0000
7E00
7F00
4300
3F00
FF00
C300
C700
FF80
7B80
ENDCHAR
STARTCHAR adieresis
ENCODING 228
SWIDTH 602 0
DWIDTH 10 0
BBX 9 12 1 0
BITMAP
3600
3600
0000
7E00
7F00
4300
3F00
FF00
C300
C700
FF80
7B80
ENDCHAR
STARTCHAR aring
ENCODING 229
SWIDTH 602 0
DWIDTH 10 0
BBX 9 12 1 0
BITMAP
1C00
1C00
0000
7E00
7F00
4300
3F00
FF00
C300
C700
FF80
7B80
ENDCHAR
STARTCHAR ae
ENCODING 230
SWIDTH 602 0
DWIDTH 10 0
BBX 10 9 0 0
BITMAP
7B80
7F80
4CC0
0CC0
7FC0
FFC0
CC40
FFC0
7380
ENDCHAR
STARTCHAR ccedilla
ENCODING 231
SWIDTH 602 0
DWIDTH 10 0
BBX 8 12 1 -3
BITMAP
3F
7F
E1
C0
C0
C0
E0
7F
3F
08
0C
1C
ENDCHAR
STARTCHAR egrave
ENCODING 232
SWIDTH 602 0
DWIDTH 10 0
BBX 9 12 1 0
BITMAP
3800
0C00
0000
3E00
7F00
E180
FF80
FF80
C000
E080
7F80
1F00
ENDCHAR
STARTCHAR eacute
ENCODING 233
SWIDTH 602 0
DWIDTH 10 0
BBX 9 12 1 0
BITMAP
1C00
3000
0000
3E00
7F00
E180
FF80
FF80
C000
E080
7F80
1F00
ENDCHAR
STARTCHAR ecircumflex
ENCODING 234
SWIDTH 602 0
DWIDTH 10 0
BBX 9 12 1 0
BITMAP
1C00
3600
0000
3E00
7F00
E180
FF80
FF80
C000
E080
7F80
1F00
ENDCHAR
STARTCHAR edieresis
ENCODING 235
SWIDTH 602 0
DWIDTH 10 0
BBX 9 12 1 0
BITMAP
3600
3600
0000
3E00
7F00
E180
FF80
FF80
C000
E080
7F80
1F00
ENDCHAR
STARTCHAR igrave
ENCODING 236
SWIDTH 602 0
DWIDTH 10 0
BBX 5 12 2 0
BITMAP
70
18
00
F8
F8
18
18
18
18
18
18
18
ENDCHAR
STARTCHAR iacute
ENCODING 237
SWIDTH 602 0
DWIDTH 10 0
BBX 5 12 2 0
BITMAP
38
60
00
F8
F8
18
18
18
18
18
18
18
ENDCHAR
STARTCHAR icircumflex
ENCODING 238
SWIDTH 602 0
DWIDTH 10 0
BBX 6 12 2 0
BITMAP
38
6C
00
F8
F8
18
18
18
18
18
18
18
ENDCHAR
STARTCHAR idieresis
ENCODING 239
SWIDTH 602 0
DWIDTH 10 0
BBX 6 12 2 0
BITMAP
6C
6C
00
F8
F8
18
18
18
18
18
18
18
ENDCHAR
STARTCHAR eth
ENCODING 240
SWIDTH 602 0
DWIDTH 10 0
BBX 9 12 1 0
BITMAP
FE00
BF00
2600
3F00
7F80
E380
C180
C180
C180
E380
7F00
3E00
ENDCHAR
STARTCHAR ntilde
ENCODING 241
SWIDTH 602 0
DWIDTH 10 0
BBX 8 12 1 0
BITMAP
7C
7C
00
DE
FF
E3
C3
C3
C3
C3
C3
C3
ENDCHAR
STARTCHAR ograve
ENCODING 242
SWIDTH 602 0
DWIDTH 10 0
BBX 9 12 1 0
BITMAP
1C00
0600
0000
3E00
7F00
E380
C180
C180
C180
E380
7F00
3E00
ENDCHAR
STARTCHAR oacute
ENCODING 243
SWIDTH 602 0
DWIDTH 10 0
BBX 9 12 1 0
BITMAP
1C00
3000
0000
3E00
7F00
E380
C180
C180
C180
E380
7F00
3E00
ENDCHAR
STARTCHAR ocircumflex
ENCODING 244
SWIDTH 602 0
DWIDTH 10 0
BBX 9 12 1 0
BITMAP
1C00
3600
0000
3E00
7F00
E380
C180
C180
C180
E380
7F00
3E00
ENDCHAR
STARTCHAR otilde
ENCODING 245
SWIDTH 602 0
DWIDTH 10 0
BBX 9 12 1 0
BITMAP
3E00
3E00
0000
3E00
7F00
E380
C180
C180
C180
E380
7F00
3E00
ENDCHAR
STARTCHAR odieresis
ENCODING 246
SWIDTH 602 0
DWIDTH 10 0
BBX 9 12 1 0
BITMAP
3600
3600
0000
3E00
7F00
E380
C180
C180
C180
E380
7F00
3E00
ENDCHAR
STARTCHAR divide
ENCODING 247
SWIDTH 602 0
DWIDTH 10 0
BBX 8 9 1 0
BITMAP
18
18
00
FF
FF
00
00
18
18
ENDCHAR
STARTCHAR oslash
ENCODING 248
SWIDTH 602 0
DWIDTH 10 0
BBX 9 9 1 0
BITMAP
3F80
7F00
E780
CF80
DD80
F980
F380
7F00
FE00
ENDCHAR
STARTCHAR ugrave
ENCODING 249
SWIDTH 602 0
DWIDTH 10 0
BBX 8 12 1 0
BITMAP
38
0C
00
C3
C3
C3
C3
C3
C3
C7
FF
7B
ENDCHAR
STARTCHAR uacute
ENCODING 250
SWIDTH 602 0
DWIDTH 10 0
BBX 8 12 1 0
BITMAP
1C
30
00
C3
C3
C3
C3
C3
C3
C7
FF
7B
ENDCHAR
STARTCHAR ucircumflex
ENCODING 251
SWIDTH 602 0
DWIDTH 10 0
BBX 8 12 1 0
BITMAP
1C
36
00
C3
C3
C3
C3
C3
C3
C7
FF
7B
ENDCHAR
STARTCHAR udieresis
ENCODING 252
SWIDTH 602 0
DWIDTH 10 0
BBX 8 12 1 0
BITMAP
36
36
00
C3
C3
C3
C3
C3
C3
C7
FF
7B
ENDCHAR
STARTCHAR yacute
ENCODING 253
SWIDTH 602 0
DWIDTH 10 0
BBX 10 15 0 -3
BITMAP
0E00
1800
0000
E0C0
6180
3180
3300
1B00
1E00
0E00
0E00
0C00
1C00
7800
7000
ENDCHAR
STARTCHAR thorn
ENCODING 254
SWIDTH 602 0
DWIDTH 10 0
BBX 9 15 1 -3
BITMAP
C000
C000
C000
DE00
FF00
E380
C180
C180
C180
E380
FF00
DE00
C000
C000
C000
ENDCHAR
STARTCHAR ydieresis
ENCODING 255
SWIDTH 602 0
DWIDTH 10 0
BBX 10 15 0 -3
BITMAP
3600
3600
0000
E0C0
6180
3180
3300
1B00
1E00
0E00
0E00
0C00
1C00
7800
7000
ENDCHAR
STARTCHAR Amacron
ENCODING 256
SWIDTH 602 0
DWIDTH 10 0
BBX 10 15 0 0
BITMAP
1F00
1F00
0000
0C00
1E00
1E00
1E00
3700
3300
3300
7F80
7F80
6180
C180
C0C0
ENDCHAR
STARTCHAR amacron
ENCODING 257
SWIDTH 602 0
DWIDTH 10 0
BBX 9 12 1 0
BITMAP
3E00
3E00
0000
7E00
7F00
4300
3F00
FF00
C300
C700
FF80
7B80
ENDCHAR
STARTCHAR Abreve
ENCODING 258
SWIDTH 602 0
DWIDTH 10 0
BBX 10 15 0 0
BITMAP
1B00
0E00
0000
0C00
1E00
1E00
1E00
3700
3300
3300
7F80
7F80
6180
C180
C0C0
ENDCHAR
STARTCHAR abreve
ENCODING 259
SWIDTH 602 0
DWIDTH 10 0
BBX 9 12 1 0
BITMAP
3600
1C00
0000
7E00
7F00
4300
3F00
FF00
C300
C700
FF80
7B80
ENDCHAR
STARTCHAR Aogonek
ENCODING 260
SWIDTH 602 0
DWIDTH 10 0
BBX 10 15 0 -3
BITMAP
0C00
1E00
1E00
1E00
3700
3300
3300
7F80
7F80
6180
C180
C0C0
0000
0C00
1C00
ENDCHAR
STARTCHAR aogonek
ENCODING 261
SWIDTH 602 0
DWIDTH 10 0
BBX 9 12 1 -3
BITMAP
7E00
7F00
4300
3F00
FF00
C300
C700
FF80
7B80
0000
0C00
1C00
ENDCHAR
STARTCHAR Cacute
ENCODING 262
SWIDTH 602 0
DWIDTH 10 0
BBX 9 15 1 0
BITMAP
0E00
1800
0000
1F80
3F80
7080
E000
C000
C000
C000
C000
E000
7080
3F80
1F00
ENDCHAR
STARTCHAR cacute
ENCODING 263
SWIDTH 602 0
DWIDTH 10 0
BBX 8 12 1 0
BITMAP
0E
18
00
3F
7F
E1
C0
C0
C0
E0
7F
3F
ENDCHAR
STARTCHAR Ccircumflex
ENCODING 264
SWIDTH 602 0
DWIDTH 10 0
BBX 9 15 1 0
BITMAP
1C00
3600
0000
1F80
3F80
7080
E000
C000
C000
C000
C000
E000
7080
3F80
1F00
ENDCHAR
STARTCHAR ccircumflex
ENCODING 265
SWIDTH 602 0
DWIDTH 10 0
BBX 8 12 1 0
BITMAP
1C
36
00
3F
7F
E1
C0
C0
C0
E0
7F
3F
ENDCHAR
STARTCHAR Cdotaccent
ENCODING 266
SWIDTH 602 0
DWIDTH 10 0
BBX 9 15 1 0
BITMAP
0C00
0C00
0000
1F80
3F80
7080
E000
C000
C000
C000
C000
E000
7080
3F80
1F00
ENDCHAR
STARTCHAR cdotaccent
ENCODING 267
SWIDTH 602 0
DWIDTH 10 0
BBX 8 12 1 0
BITMAP
18
18
00
3F
7F
E1
C0
C0
C0
E0
7F
3F
ENDCHAR
STARTCHAR Ccaron
ENCODING 268
SWIDTH 602 0
DWIDTH 10 0
BBX 9 15 1 0
BITMAP
3600
1C00
0000
1F80
3F80
7080
E000
C000
C000
C000
C000
E000
7080
3F80
1F00
ENDCHAR
STARTCHAR ccaron
ENCODING 269
SWIDTH 602 0
DWIDTH 10 0
BBX 8 12 1 0
BITMAP
36
1C
00
3F
7F
E1
C0
C0
C0
E0
7F
3F
ENDCHAR
STARTCHAR Dcaron
ENCODING 270
SWIDTH 602 0
DWIDTH 10 0
BBX 9 15 1 0
BITMAP
3600
1C00
0000
FE00
FF00
C380
C180
C180
C180
C180
C180
C180
C300
FE00
FC00
ENDCHAR
STARTCHAR dcaron
ENCODING 271
SWIDTH 602 0
DWIDTH 10 0
BBX 9 15 1 0
BITMAP
1B00
0E00
0000
0180
0180
0180
3D80
7F80
E380
C180
C180
C180
E380
7F80
3D80
ENDCHAR
STARTCHAR Dcroat
ENCODING 272
SWIDTH 602 0
DWIDTH 10 0
BBX 10 12 0 0
BITMAP
7F00
7F80
61C0
60C0
60C0
FCC0
FCC0
60C0
60C0
6180
7F00
7E00
ENDCHAR
STARTCHAR dcroat
ENCODING 273
SWIDTH 602 0
DWIDTH 10 0
BBX 10 12 1 0
BITMAP
0180
3FC0
3FC0
3D80
7F80
E380
C180
C180
C180
E380
7F80
3D80
ENDCHAR
STARTCHAR Emacron
ENCODING 274
SWIDTH 602 0
DWIDTH 10 0
BBX 8 15 1 0
BITMAP
7C
7C
00
FF
FF
C0
C0
C0
FE
FE
C0
C0
C0
FF
FF
ENDCHAR
STARTCHAR emacron
ENCODING 275
SWIDTH 602 0
DWIDTH 10 0
BBX 9 12 1 0
BITMAP
3E00
3E00
0000
3E00
7F00
E180
FF80
FF80
C000
E080
7F80
1F00
ENDCHAR
STARTCHAR Ebreve
ENCODING 276
SWIDTH 602 0
DWIDTH 10 0
BBX 8 15 1 0
BITMAP
6C
38
00
FF
FF
C0
C0
C0
FE
FE
C0
C0
C0
FF
FF
ENDCHAR
STARTCHAR ebreve
ENCODING 277
SWIDTH 602 0
DWIDTH 10 0
BBX 9 12 1 0
BITMAP
3600
1C00
0000
3E00
7F00
E180
FF80
FF80
C000
E080
7F80
1F00
ENDCHAR
STARTCHAR Edotaccent
ENCODING 278
SWIDTH 602 0
DWIDTH 10 0
BBX 8 15 1 0
BITMAP
18
18
00
FF
FF
C0
C0
C0
FE
FE
C0
C0
C0
FF
FF
ENDCHAR
STARTCHAR edotaccent
ENCODING 279
SWIDTH 602 0
DWIDTH 10 0
BBX 9 12 1 0
BITMAP
1800
1800
0000
3E00
7F00
E180
FF80
FF80
C000
E080
7F80
1F00
ENDCHAR
STARTCHAR Eogonek
ENCODING 280
SWIDTH 602 0
DWIDTH 10 0
BBX 8 15 1 -3
BITMAP
FF
FF
C0
C0
C0
FE
FE
C0
C0
C0
FF
FF
00
18
38
ENDCHAR
STARTCHAR eogonek
ENCODING 281
SWIDTH 602 0
DWIDTH 10 0
BBX 9 12 1 -3
BITMAP
3E00
7F00
E180
FF80
FF80
C000
E080
7F80
1F00
0000
0C00
1C00
ENDCHAR
STARTCHAR Ecaron
ENCODING 282
SWIDTH 602 0
DWIDTH 10 0
BBX 8 15 1 0
BITMAP
6C
38
00
FF
FF
C0
C0
C0
FE
FE
C0
C0
C0
FF
FF
ENDCHAR
STARTCHAR ecaron
ENCODING 283
SWIDTH 602 0
DWIDTH 10 0
BBX 9 12 1 0
BITMAP
3600
1C00
0000
3E00
7F00
E180
FF80
FF80
C000
E080
7F80
1F00
ENDCHAR
STARTCHAR Gcircumflex
ENCODING 284
SWIDTH 602 0
DWIDTH 10 0
BBX 10 15 0 0
BITMAP
0E00
1B00
0000
1FC0
3FC0
7040
E000
C000
C000
C0C0
C0C0
E0C0
70C0
3FC0
1F80
ENDCHAR
STARTCHAR gcircumflex
ENCODING 285
SWIDTH 602 0
DWIDTH 10 0
BBX 9 15 1 -3
BITMAP
1C00
3600
0000
3D80
7F80
E380
C180
C180
C180
E380
7D80
3D80
4380
7F00
3E00
ENDCHAR
STARTCHAR Gbreve
ENCODING 286
SWIDTH 602 0
DWIDTH 10 0
BBX 10 15 0 0
BITMAP
1B00
0E00
0000
1FC0
3FC0
7040
E000
C000
C000
C0C0
C0C0
E0C0
70C0
3FC0
1F80
ENDCHAR
STARTCHAR gbreve
ENCODING 287
SWIDTH 602 0
DWIDTH 10 0
BBX 9 15 1 -3
BITMAP
3600
1C00
0000
3D80
7F80
E380
C180
C180
C180
E380
7D80
3D80
4380
7F00
3E00
ENDCHAR
STARTCHAR Gdotaccent
ENCODING 288
SWIDTH 602 0
DWIDTH 10 0
BBX 10 15 0 0
BITMAP
0C00
0C00
0000
1FC0
3FC0
7040
E000
C000
C000
C0C0
C0C0
E0C0
70C0
3FC0
1F80
ENDCHAR
STARTCHAR gdotaccent
ENCODING 289
SWIDTH 602 0
DWIDTH 10 0
BBX 9 15 1 -3
BITMAP
0C00
0C00
0000
3D80
7F80
E380
C180
C180
C180
E380
7D80
3D80
4380
7F00
3E00
ENDCHAR
STARTCHAR Gcommaaccent
ENCODING 290
SWIDTH 602 0
DWIDTH 10 0
BBX 10 19 0 -7
BITMAP
1FC0
3FC0
7040
E000
C000
C000
C0C0
C0C0
E0C0
70C0
3FC0
1F80
0000
0E00
0E00
0E00
0600
0E00
0C00
ENDCHAR
STARTCHAR gcommaaccent
ENCODING 291
SWIDTH 602 0
DWIDTH 10 0
BBX 9 18 1 -3
BITMAP
0C00
1C00
1C00
1C00
1C00
0000
3D80
7F80
E380
C180
C180
C180
E380
7D80
3D80
4380
7F00
3E00
ENDCHAR
STARTCHAR Hcircumflex
ENCODING 292
SWIDTH 602 0
DWIDTH 10 0
BBX 9 15 1 0
BITMAP
1C00
3600
0000
C180
C180
C180
C180
C180
FF80
FF80
C180
C180
C180
C180
C180
ENDCHAR
STARTCHAR hcircumflex
ENCODING 293
SWIDTH 602 0
DWIDTH 10 0
BBX 8 15 1 0
BITMAP
70
D8
00
C0
C0
C0
DE
FF
E3
C3
C3
C3
C3
C3
C3
ENDCHAR
STARTCHAR Hbar
ENCODING 294
SWIDTH 602 0
DWIDTH 10 0
BBX 9 12 1 0
BITMAP
C180
C180
FF80
FF80
C180
FF80
FF80
C180
C180
C180
C180
C180
ENDCHAR
STARTCHAR hbar
ENCODING 295
SWIDTH 602 0
DWIDTH 10 0
BBX 10 12 -1 0
BITMAP
3000
FF00
FF00
3780
3FC0
38C0
30C0
30C0
30C0
30C0
30C0
30C0
ENDCHAR
STARTCHAR Itilde
ENCODING 296
SWIDTH 602 0
DWIDTH 10 0
BBX 8 15 1 0
BITMAP
3E
3E
00
FF
FF
18
18
18
18
18
18
18
18
FF
FF
ENDCHAR
STARTCHAR itilde
ENCODING 297
SWIDTH 602 0
DWIDTH 10 0
BBX 5 12 2 0
BITMAP
F8
F8
00
F8
F8
18
18
18
18
18
18
18
ENDCHAR
STARTCHAR Imacron
ENCODING 298
SWIDTH 602 0
DWIDTH 10 0
BBX 8 15 1 0
BITMAP
3E
3E
00
FF
FF
18
18
18
18
18
18
18
18
FF
FF
ENDCHAR
STARTCHAR imacron
ENCODING 299
SWIDTH 602 0
DWIDTH 10 0
BBX 5 12 2 0
BITMAP
F8
F8
00
F8
F8
18
18
18
18
18
18
18
ENDCHAR
STARTCHAR Ibreve
ENCODING 300
SWIDTH 602 0
DWIDTH 10 0
BBX 8 15 1 0
BITMAP
36
1C
00
FF
FF
18
18
18
18
18
18
18
18
FF
FF
ENDCHAR
STARTCHAR ibreve
ENCODING 301
SWIDTH 602 0
DWIDTH 10 0
BBX 5 12 2 0
BITMAP
D8
70
00
F8
F8
18
18
18
18
18
18
18
ENDCHAR
STARTCHAR Iogonek
ENCODING 302
SWIDTH 602 0
DWIDTH 10 0
BBX 8 15 1 -3
BITMAP
FF
FF
18
18
18
18
18
18
18
18
FF
FF
00
18
38
ENDCHAR
STARTCHAR iogonek
ENCODING 303
SWIDTH 602 0
DWIDTH 10 0
BBX 5 15 2 -3
BITMAP
18
18
00
F8
F8
18
18
18
18
18
18
18
00
18
38
ENDCHAR
STARTCHAR Idotaccent
ENCODING 304
SWIDTH 602 0
DWIDTH 10 0
BBX 8 15 1 0
BITMAP
18
18
00
FF
FF
18
18
18
18
18
18
18
18
FF
FF
ENDCHAR
STARTCHAR dotlessi
ENCODING 305
SWIDTH 602 0
DWIDTH 10 0
BBX 5 9 2 0
BITMAP
F8
F8
18
18
18
18
18
18
18
ENDCHAR
STARTCHAR IJ
ENCODING 306
SWIDTH 602 0
DWIDTH 10 0
BBX 11 12 1 0
BITMAP
FFE0
FFE0
1860
1860
1860
1860
1860
1860
1860
18E0
FFC0
FF80
ENDCHAR
STARTCHAR ij
ENCODING 307
SWIDTH 602 0
DWIDTH 10 0
BBX 8 15 2 -3
BITMAP
1B
1B
00
FF
FF
1B
1B
1B
1B
1B
1B
1B
23
3F
3E
ENDCHAR
STARTCHAR Jcircumflex
ENCODING 308
SWIDTH 602 0
DWIDTH 10 0
BBX 7 15 1 0
BITMAP
1C
36
00
7E
7E
06
06
06
06
06
06
06
0E
FC
F8
ENDCHAR
STARTCHAR jcircumflex
ENCODING 309
SWIDTH 602 0
DWIDTH 10 0
BBX 6 15 1 -3
BITMAP
38
6C
00
7C
7C
0C
0C
0C
0C
0C
0C
0C
8C
FC
F8
ENDCHAR
STARTCHAR Kcommaaccent
ENCODING 310
SWIDTH 602 0
DWIDTH 10 0
BBX 9 19 1 -7
BITMAP
C380
C700
CE00
DC00
D800
F000
F800
D800
CC00
CE00
C700
C380
0000
1C00
1C00
1C00
0C00
1C00
1800
ENDCHAR
STARTCHAR kcommaaccent
ENCODING 311
SWIDTH 602 0
DWIDTH 10 0
BBX 8 19 2 -7
BITMAP
C0
C0
C0
C6
CC
DC
F8
F8
D8
CC
CE
C7
00
38
38
38
18
38
30
ENDCHAR
STARTCHAR kgreenlandic
ENCODING 312
SWIDTH 602 0
DWIDTH 10 0
BBX 8 9 2 0
BITMAP
C6
CC
DC
F8
F8
D8
CC
CE
C7
ENDCHAR
STARTCHAR Lacute
ENCODING 313
SWIDTH 602 0
DWIDTH 10 0
BBX 8 15 2 0
BITMAP
38
60
00
C0
C0
C0
C0
C0
C0
C0
C0
C0
C0
FF
FF
ENDCHAR
STARTCHAR lacute
ENCODING 314
SWIDTH 602 0
DWIDTH 10 0
BBX 5 15 1 0
BITMAP
38
60
00
F8
F8
18
18
18
18
18
18
18
18
18
18
ENDCHAR
STARTCHAR Lcommaaccent
ENCODING 315
SWIDTH 602 0
DWIDTH 10 0
BBX 8 19 2 -7
BITMAP
C0
C0
C0
C0
C0
C0
C0
C0
C0
C0
FF
FF
00
38
38
38
18
38
30
ENDCHAR
STARTCHAR lcommaaccent
ENCODING 316
SWIDTH 602 0
DWIDTH 10 0
BBX 5 19 1 -7
BITMAP
F8
F8
18
18
18
18
18
18
18
18
18
18
00
38
38
38
18
38
30
ENDCHAR
STARTCHAR Lcaron
ENCODING 317
SWIDTH 602 0
DWIDTH 10 0
BBX 8 15 2 0
BITMAP
D8
70
00
C0
C0
C0
C0
C0
C0
C0
C0
C0
C0
FF
FF
ENDCHAR
STARTCHAR lcaron
ENCODING 318
SWIDTH 602 0
DWIDTH 10 0
BBX 5 15 1 0
BITMAP
D8
70
00
F8
F8
18
18
18
18
18
18
18
18
18
18
ENDCHAR
STARTCHAR Ldot
ENCODING 319
SWIDTH 602 0
DWIDTH 10 0
BBX 8 12 2 0
BITMAP
C0
C0
C0
C0
C0
C0
C0
CC
CC
C0
FF
FF
ENDCHAR
STARTCHAR ldot
ENCODING 320
SWIDTH 602 0
DWIDTH 10 0
BBX 8 12 1 0
BITMAP
F8
F8
18
18
18
18
18
1B
1B
18
18
18
ENDCHAR
STARTCHAR Lslash
ENCODING 321
SWIDTH 602 0
DWIDTH 10 0
BBX 10 12 0 0
BITMAP
3000
3000
3000
3400
3C00
7800
F000
B000
3000
3000
3FC0
3FC0
ENDCHAR
STARTCHAR lslash
ENCODING 322
SWIDTH 602 0
DWIDTH 10 0
BBX 7 12 1 0
BITMAP
F8
F8
18
1A
1E
1C
38
78
18
18
18
18
ENDCHAR
STARTCHAR Nacute
ENCODING 323
SWIDTH 602 0
DWIDTH 10 0
BBX 8 15 1 0
BITMAP
1C
30
00
E3
E3
E3
F3
F3
DB
DB
CF
CF
C7
C7
C3
ENDCHAR
STARTCHAR nacute
ENCODING 324
SWIDTH 602 0
DWIDTH 10 0
BBX 8 12 1 0
BITMAP
0E
18
00
DE
FF
E3
C3
C3
C3
C3
C3
C3
ENDCHAR
STARTCHAR Ncommaaccent
ENCODING 325
SWIDTH 602 0
DWIDTH 10 0
BBX 8 19 1 -7
BITMAP
E3
E3
E3
F3
F3
DB
DB
CF
CF
C7
C7
C3
00
1C
1C
1C
0C
1C
18
ENDCHAR
STARTCHAR ncommaaccent
ENCODING 326
SWIDTH 602 0
DWIDTH 10 0
BBX 8 16 1 -7
BITMAP
DE
FF
E3
C3
C3
C3
C3
C3
C3
00
1C
1C
1C
0C
1C
18
ENDCHAR
STARTCHAR Ncaron
ENCODING 327
SWIDTH 602 0
DWIDTH 10 0
BBX 8 15 1 0
BITMAP
6C
38
00
E3
E3
E3
F3
F3
DB
DB
CF
CF
C7
C7
C3
ENDCHAR
STARTCHAR ncaron
ENCODING 328
SWIDTH 602 0
DWIDTH 10 0
BBX 8 12 1 0
BITMAP
6C
38
00
DE
FF
E3
C3
C3
C3
C3
C3
C3
ENDCHAR
STARTCHAR napostrophe
ENCODING 329
SWIDTH 602 0
DWIDTH 10 0
BBX 10 12 -1 0
BITMAP
E000
E000
E000
F780
FFC0
38C0
30C0
30C0
30C0
30C0
30C0
30C0
ENDCHAR
STARTCHAR Eng
ENCODING 330
SWIDTH 602 0
DWIDTH 10 0
BBX 8 15 1 -3
BITMAP
E3
E3
E3
F3
F3
DB
DB
CF
CF
C7
C7
C3
23
3F
3E
ENDCHAR
STARTCHAR eng
ENCODING 331
SWIDTH 602 0
DWIDTH 10 0
BBX 8 12 1 -3
BITMAP
DE
FF
E3
C3
C3
C3
C3
C3
C3
23
3F
3E
ENDCHAR
STARTCHAR Omacron
ENCODING 332
SWIDTH 602 0
DWIDTH 10 0
BBX 10 15 0 0
BITMAP
1F00
1F00
0000
1E00
7F80
6180
C0C0
C0C0
C0C0
C0C0
C0C0
C0C0
6180
7F80
1E00
ENDCHAR
STARTCHAR omacron
ENCODING 333
SWIDTH 602 0
DWIDTH 10 0
BBX 9 12 1 0
BITMAP
3E00
3E00
0000
3E00
7F00
E380
C180
C180
C180
E380
7F00
3E00
ENDCHAR
STARTCHAR Obreve
ENCODING 334
SWIDTH 602 0
DWIDTH 10 0
BBX 10 15 0 0
BITMAP
1B00
0E00
0000
1E00
7F80
6180
C0C0
C0C0
C0C0
C0C0
C0C0
C0C0
6180
7F80
1E00
ENDCHAR
STARTCHAR obreve
ENCODING 335
SWIDTH 602 0
DWIDTH 10 0
BBX 9 12 1 0
BITMAP
3600
1C00
0000
3E00
7F00
E380
C180
C180
C180
E380
7F00
3E00
ENDCHAR
STARTCHAR Ohungarumlaut
ENCODING 336
SWIDTH 602 0
DWIDTH 10 0
BBX 10 15 0 0
BITMAP
0D80
1A00
0000
1E00
7F80
6180
C0C0
C0C0
C0C0
C0C0
C0C0
C0C0
6180
7F80
1E00
ENDCHAR
STARTCHAR ohungarumlaut
ENCODING 337
SWIDTH 602 0
DWIDTH 10 0
BBX 9 12 1 0
BITMAP
1B00
3400
0000
3E00
7F00
E380
C180
C180
C180
E380
7F00
3E00
ENDCHAR
STARTCHAR OE
ENCODING 338
SWIDTH 602 0
DWIDTH 10 0
BBX 10 12 0 0
BITMAP
3FC0
7FC0
6600
C600
C600
C7C0
C7C0
C600
C600
6600
7FC0
3FC0
ENDCHAR
STARTCHAR oe
ENCODING 339
SWIDTH 602 0
DWIDTH 10 0
BBX 9 9 1 0
BITMAP
3700
7F80
CD80
CD80
CF80
CF80
CC00
7F80
3780
ENDCHAR
STARTCHAR Racute
ENCODING 340
SWIDTH 602 0
DWIDTH 10 0
BBX 8 15 1 0
BITMAP
0E
18
00
FE
FF
C3
C3
C3
C6
FC
FC
CE
C6
C7
C3
ENDCHAR
STARTCHAR racute
ENCODING 341
SWIDTH 602 0
DWIDTH 10 0
BBX 7 12 2 0
BITMAP
1C
30
00
DE
FE
E6
C6
C0
C0
C0
C0
C0
ENDCHAR
STARTCHAR Rcommaaccent
ENCODING 342
SWIDTH 602 0
DWIDTH 10 0
BBX 8 19 1 -7
BITMAP
FE
FF
C3
C3
C3
C6
FC
FC
CE
C6
C7
C3
00
38
38
38
18
38
30
ENDCHAR
STARTCHAR rcommaaccent
ENCODING 343
SWIDTH 602 0
DWIDTH 10 0
BBX 7 16 2 -7
BITMAP
DE
FE
E6
C6
C0
C0
C0
C0
C0
00
E0
E0
E0
60
E0
C0
ENDCHAR
STARTCHAR Rcaron
ENCODING 344
SWIDTH 602 0
DWIDTH 10 0
BBX 8 15 1 0
BITMAP
6C
38
00
FE
FF
C3
C3
C3
C6
FC
FC
CE
C6
C7
C3
ENDCHAR
STARTCHAR rcaron
ENCODING 345
SWIDTH 602 0
DWIDTH 10 0
BBX 7 12 2 0
BITMAP
6C
38
00
DE
FE
E6
C6
C0
C0
C0
C0
C0
ENDCHAR
STARTCHAR Sacute
ENCODING 346
SWIDTH 602 0
DWIDTH 10 0
BBX 9 15 1 0
BITMAP
0E00
1800
0000
3F00
7F00
C100
C000
F000
3C00
0F00
0380
0180
8380
FF00
FE00
ENDCHAR
STARTCHAR sacute
ENCODING 347
SWIDTH 602 0
DWIDTH 10 0
BBX 8 12 1 0
BITMAP
1C
30
00
3E
FE
E2
F8
7E
0F
83
FF
FC
ENDCHAR
STARTCHAR Scircumflex
ENCODING 348
SWIDTH 602 0
DWIDTH 10 0
BBX 9 15 1 0
BITMAP
1C00
3600
0000
3F00
7F00
C100
C000
F000
3C00
0F00
0380
0180
8380
FF00
FE00
ENDCHAR
STARTCHAR scircumflex
ENCODING 349
SWIDTH 602 0
DWIDTH 10 0
BBX 8 12 1 0
BITMAP
38
6C
00
3E
FE
E2
F8
7E
0F
83
FF
FC
ENDCHAR
STARTCHAR Scedilla
ENCODING 350
SWIDTH 602 0
DWIDTH 10 0
BBX 9 15 1 -3
BITMAP
3F00
7F00
C100
C000
F000
3C00
0F00
0380
0180
8380
FF00
FE00
1800
0C00
1C00
ENDCHAR
STARTCHAR scedilla
ENCODING 351
SWIDTH 602 0
DWIDTH 10 0
BBX 8 12 1 -3
BITMAP
3E
FE
E2
F8
7E
0F
83
FF
FC
18
0C
1C
ENDCHAR
STARTCHAR Scaron
ENCODING 352
SWIDTH 602 0
DWIDTH 10 0
BBX 9 15 1 0
BITMAP
3600
1C00
0000
3F00
7F00
C100
C000
F000
3C00
0F00
0380
0180
8380
FF00
FE00
ENDCHAR
STARTCHAR scaron
ENCODING 353
SWIDTH 602 0
DWIDTH 10 0
BBX 8 12 1 0
BITMAP
6C
38
00
3E
FE
E2
F8
7E
0F
83
FF
FC
ENDCHAR
STARTCHAR Tcommaaccent
ENCODING 354
SWIDTH 602 0
DWIDTH 10 0
BBX 10 15 0 -3
BITMAP
FFC0
FFC0
0C00
0C00
0C00
0C00
0C00
0C00
0C00
0C00
0C00
0C00
0C00
0600
0E00
ENDCHAR
STARTCHAR tcommaaccent
ENCODING 355
SWIDTH 602 0
DWIDTH 10 0
BBX 8 14 1 -3
BITMAP
30
30
FF
FF
30
30
30
30
30
3F
1F
18
0C
1C
ENDCHAR
STARTCHAR Tcaron
ENCODING 356
SWIDTH 602 0
DWIDTH 10 0
BBX 10 15 0 0
BITMAP
1B00
0E00
0000
FFC0
FFC0
0C00
0C00
0C00
0C00
0C00
0C00
0C00
0C00
0C00
0C00
ENDCHAR
STARTCHAR tcaron
ENCODING 357
SWIDTH 602 0
DWIDTH 10 0
BBX 8 14 1 0
BITMAP
6C
38
00
30
30
FF
FF
30
30
30
30
30
3F
1F
ENDCHAR
STARTCHAR Tbar
ENCODING 358
SWIDTH 602 0
DWIDTH 10 0
BBX 10 12 0 0
BITMAP
FFC0
FFC0
0C00
0C00
0C00
7F80
7F80
0C00
0C00
0C00
0C00
0C00
ENDCHAR
STARTCHAR tbar
ENCODING 359
SWIDTH 602 0
DWIDTH 10 0
BBX 8 11 1 0
BITMAP
30
30
FF
FF
30
FF
FF
30
30
3F
1F
ENDCHAR
STARTCHAR Utilde
ENCODING 360
SWIDTH 602 0
DWIDTH 10 0
BBX 8 15 1 0
BITMAP
3E
3E
00
C3
C3
C3
C3
C3
C3
C3
C3
C3
C3
FE
7C
ENDCHAR
STARTCHAR utilde
ENCODING 361
SWIDTH 602 0
DWIDTH 10 0
BBX 8 12 1 0
BITMAP
3E
3E
00
C3
C3
C3
C3
C3
C3
C7
FF
7B
ENDCHAR
STARTCHAR Umacron
ENCODING 362
SWIDTH 602 0
DWIDTH 10 0
BBX 8 15 1 0
BITMAP
3E
3E
00
C3
C3
C3
C3
C3
C3
C3
C3
C3
C3
FE
7C
ENDCHAR
STARTCHAR umacron
ENCODING 363
SWIDTH 602 0
DWIDTH 10 0
BBX 8 12 1 0
BITMAP
3E
3E
00
C3
C3
C3
C3
C3
C3
C7
FF
7B
ENDCHAR
STARTCHAR Ubreve
ENCODING 364
SWIDTH 602 0
DWIDTH 10 0
BBX 8 15 1 0
BITMAP
36
1C
00
C3
C3
C3
C3
C3
C3
C3
C3
C3
C3
FE
7C
ENDCHAR
STARTCHAR ubreve
ENCODING 365
SWIDTH 602 0
DWIDTH 10 0
BBX 8 12 1 0
BITMAP
36
1C
00
C3
C3
C3
C3
C3
C3
C7
FF
7B
ENDCHAR
STARTCHAR Uring
ENCODING 366
SWIDTH 602 0
DWIDTH 10 0
BBX 8 15 1 0
BITMAP
1C
1C
00
C3
C3
C3
C3
C3
C3
C3
C3
C3
C3
FE
7C
ENDCHAR
STARTCHAR uring
ENCODING 367
SWIDTH 602 0
DWIDTH 10 0
BBX 8 12 1 0
BITMAP
1C
1C
00
C3
C3
C3
C3
C3
C3
C7
FF
7B
ENDCHAR
STARTCHAR Uhungarumlaut
ENCODING 368
SWIDTH 602 0
DWIDTH 10 0
BBX 8 15 1 0
BITMAP
1B
34
00
C3
C3
C3
C3
C3
C3
C3
C3
C3
C3
FE
7C
ENDCHAR
STARTCHAR uhungarumlaut
ENCODING 369
SWIDTH 602 0
DWIDTH 10 0
BBX 8 12 1 0
BITMAP
1B
34
00
C3
C3
C3
C3
C3
C3
C7
FF
7B
ENDCHAR
STARTCHAR Uogonek
ENCODING 370
SWIDTH 602 0
DWIDTH 10 0
BBX 8 15 1 -3
BITMAP
C3
C3
C3
C3
C3
C3
C3
C3
C3
C3
FE
7C
00
18
38
ENDCHAR
STARTCHAR uogonek
ENCODING 371
SWIDTH 602 0
DWIDTH 10 0
BBX 8 12 1 -3
BITMAP
C3
C3
C3
C3
C3
C3
C7
FF
7B
00
18
38
ENDCHAR
STARTCHAR Wcircumflex
ENCODING 372
SWIDTH 602 0
DWIDTH 10 0
BBX 10 15 0 0
BITMAP
1C00
3600
0000
C0C0
CEC0
CEC0
DE80
7E80
7F80
7F80
7F80
7780
7300
7300
7300
ENDCHAR
STARTCHAR wcircumflex
ENCODING 373
SWIDTH 602 0
DWIDTH 10 0
BBX 10 12 0 0
BITMAP
0E00
1B00
0000
C0C0
CCC0
DEC0
7E80
7E80
7B80
7380
7380
7380
ENDCHAR
STARTCHAR Ycircumflex
ENCODING 374
SWIDTH 602 0
DWIDTH 10 0
BBX 10 15 0 0
BITMAP
0E00
1B00
0000
E0C0
6180
3380
3300
1F00
1E00
0E00
0C00
0C00
0C00
0C00
0C00
ENDCHAR
STARTCHAR ycircumflex
ENCODING 375
SWIDTH 602 0
DWIDTH 10 0
BBX 10 15 0 -3
BITMAP
1C00
3600
0000
E0C0
6180
3180
3300
1B00
1E00
0E00
0E00
0C00
1C00
7800
7000
ENDCHAR
STARTCHAR Ydieresis
ENCODING 376
SWIDTH 602 0
DWIDTH 10 0
BBX 10 15 0 0
BITMAP
3600
3600
0000
E0C0
6180
3380
3300
1F00
1E00
0E00
0C00
0C00
0C00
0C00
0C00
ENDCHAR
STARTCHAR Zacute
ENCODING 377
SWIDTH 602 0
DWIDTH 10 0
BBX 9 15 0 0
BITMAP
0E00
1800
0000
FF80
FF80
0300
0600
0E00
0C00
1800
3800
3000
6000
FF80
FF80
ENDCHAR
STARTCHAR zacute
ENCODING 378
SWIDTH 602 0
DWIDTH 10 0
BBX 8 12 1 0
BITMAP
0E
18
00
FF
FF
0E
1C
18
30
60
FF
FF
ENDCHAR
STARTCHAR Zdotaccent
ENCODING 379
SWIDTH 602 0
DWIDTH 10 0
BBX 9 15 0 0
BITMAP
0C00
0C00
0000
FF80
FF80
0300
0600
0E00
0C00
1800
3800
3000
6000
FF80
FF80
ENDCHAR
STARTCHAR zdotaccent
ENCODING 380
SWIDTH 602 0
DWIDTH 10 0
BBX 8 12 1 0
BITMAP
18
18
00
FF
FF
0E
1C
18
30
60
FF
FF
ENDCHAR
STARTCHAR Zcaron
ENCODING 381
SWIDTH 602 0
DWIDTH 10 0
BBX 9 15 0 0
BITMAP
3600
1C00
0000
FF80
FF80
0300
0600
0E00
0C00
1800
3800
3000
6000
FF80
FF80
ENDCHAR
STARTCHAR zcaron
ENCODING 382
SWIDTH 602 0
DWIDTH 10 0
BBX 8 12 1 0
BITMAP
6C
38
00
FF
FF
0E
1C
18
30
60
FF
FF
ENDCHAR
STARTCHAR uni0186
ENCODING 390
SWIDTH 602 0
DWIDTH 10 0
BBX 9 12 1 0
BITMAP
7C00
FE00
8700
0380
0180
0180
0180
0180
0380
8700
FE00
FC00
ENDCHAR
STARTCHAR uni0189
ENCODING 393
SWIDTH 602 0
DWIDTH 10 0
BBX 10 12 0 0
BITMAP
7F00
7F80
61C0
60C0
60C0
FCC0
FCC0
60C0
60C0
6180
7F00
7E00
ENDCHAR
STARTCHAR uni018E
ENCODING 398
SWIDTH 602 0
DWIDTH 10 0
BBX 8 12 1 0
BITMAP
FF
FF
03
03
03
7F
7F
03
03
03
FF
FF
ENDCHAR
STARTCHAR florin
ENCODING 402
SWIDTH 602 0
DWIDTH 10 0
BBX 8 15 1 -3
BITMAP
0F
1F
1C
38
38
7C
7C
30
30
30
60
60
60
60
C0
ENDCHAR
STARTCHAR uni0197
ENCODING 407
SWIDTH 602 0
DWIDTH 10 0
BBX 8 12 1 0
BITMAP
FF
FF
18
18
18
FF
FF
18
18
18
FF
FF
ENDCHAR
STARTCHAR uni019A
ENCODING 410
SWIDTH 602 0
DWIDTH 10 0
BBX 8 12 0 0
BITMAP
7C
7C
0C
0C
0C
FF
FF
0C
0C
0C
0C
0C
ENDCHAR
STARTCHAR uni019D
ENCODING 413
SWIDTH 602 0
DWIDTH 10 0
BBX 12 15 -3 -3
BITMAP
0E30
0E30
0E30
0F30
0F30
0DB0
0DB0
0CF0
0CF0
0C70
0C70
0C30
8C00
FC00
F800
ENDCHAR
STARTCHAR uni019F
ENCODING 415
SWIDTH 602 0
DWIDTH 10 0
BBX 10 12 0 0
BITMAP
1E00
7F80
6180
C0C0
C0C0
FFC0
FFC0
C0C0
C0C0
6180
7F80
1E00
ENDCHAR
STARTCHAR Ohorn
ENCODING 416
SWIDTH 602 0
DWIDTH 10 0
BBX 12 12 0 0
BITMAP
1E70
7FF0
61F0
C0F0
C0E0
C0C0
C0C0
C0C0
C0C0
6180
7F80
1E00
ENDCHAR
STARTCHAR ohorn
ENCODING 417
SWIDTH 602 0
DWIDTH 10 0
BBX 11 9 1 0
BITMAP
3EE0
7FE0
E3E0
C1E0
C1C0
C180
E380
7F00
3E00
ENDCHAR
STARTCHAR uni01A7
ENCODING 423
SWIDTH 602 0
DWIDTH 10 0
BBX 9 12 1 0
BITMAP
7E00
7F00
4180
0180
0780
1E00
7800
E000
C000
E080
7F80
3F80
ENDCHAR
STARTCHAR uni01A8
ENCODING 424
SWIDTH 602 0
DWIDTH 10 0
BBX 8 9 1 0
BITMAP
7C
7F
47
1F
7E
F0
C1
FF
3F
ENDCHAR
STARTCHAR uni01AE
ENCODING 430
SWIDTH 602 0
DWIDTH 10 0
BBX 10 15 0 -3
BITMAP
FFC0
FFC0
0C00
0C00
0C00
0C00
0C00
0C00
0C00
0C00
0C00
0C00
0C40
0FC0
07C0
ENDCHAR
STARTCHAR Uhorn
ENCODING 431
SWIDTH 602 0
DWIDTH 10 0
BBX 11 12 1 0
BITMAP
C3E0
C3E0
C3E0
C3E0
C3C0
C300
C300
C300
C300
C300
FE00
7C00
ENDCHAR
STARTCHAR uhorn
ENCODING 432
SWIDTH 602 0
DWIDTH 10 0
BBX 11 9 1 0
BITMAP
C3E0
C3E0
C3E0
C3E0
C3C0
C300
C700
FF00
7B00
ENDCHAR
STARTCHAR uni01B5
ENCODING 437
SWIDTH 602 0
DWIDTH 10 0
BBX 9 12 0 0
BITMAP
FF80
FF80
0300
0600
0E00
7F80
7F80
3800
3000
6000
FF80
FF80
ENDCHAR
STARTCHAR uni01B6
ENCODING 438
SWIDTH 602 0
DWIDTH 10 0
BBX 8 9 1 0
BITMAP
FF
FF
0E
FF
FF
30
60
FF
FF
ENDCHAR
STARTCHAR uni01BB
ENCODING 443
SWIDTH 602 0
DWIDTH 10 0
BBX 7 12 2 0
BITMAP
78
FE
8E
06
06
FE
FE
38
70
E0
FE
FE
ENDCHAR
STARTCHAR uni01BC
ENCODING 444
SWIDTH 602 0
DWIDTH 10 0
BBX 6 12 2 0
BITMAP
FC
FC
C0
C0
F0
F8
1C
0C
0C
9C
F8
F0
ENDCHAR
STARTCHAR uni01C0
ENCODING 448
SWIDTH 602 0
DWIDTH 10 0
BBX 2 15 4 -3
BITMAP
C0
C0
C0
C0
C0
C0
C0
C0
C0
C0
C0
C0
C0
C0
C0
ENDCHAR
STARTCHAR uni01C2
ENCODING 450
SWIDTH 602 0
DWIDTH 10 0
BBX 9 15 1 -3
BITMAP
0C00
0C00
0C00
0C00
0C00
FF80
FF80
0C00
0C00
FF80
FF80
0C00
0C00
0C00
0C00
ENDCHAR
STARTCHAR uni01C3
ENCODING 451
SWIDTH 602 0
DWIDTH 10 0
BBX 2 12 4 0
BITMAP
C0
C0
C0
C0
C0
C0
C0
C0
00
00
C0
C0
ENDCHAR
STARTCHAR uni01CD
ENCODING 461
SWIDTH 602 0
DWIDTH 10 0
BBX 10 15 0 0
BITMAP
1B00
0E00
0000
0C00
1E00
1E00
1E00
3700
3300
3300
7F80
7F80
6180
C180
C0C0
ENDCHAR
STARTCHAR uni01CE
ENCODING 462
SWIDTH 602 0
DWIDTH 10 0
BBX 9 12 1 0
BITMAP
3600
1C00
0000
7E00
7F00
4300
3F00
FF00
C300
C700
FF80
7B80
ENDCHAR
STARTCHAR uni01CF
ENCODING 463
SWIDTH 602 0
DWIDTH 10 0
BBX 8 15 1 0
BITMAP
36
1C
00
FF
FF
18
18
18
18
18
18
18
18
FF
FF
ENDCHAR
STARTCHAR uni01D0
ENCODING 464
SWIDTH 602 0
DWIDTH 10 0
BBX 5 12 2 0
BITMAP
D8
70
00
F8
F8
18
18
18
18
18
18
18
ENDCHAR
STARTCHAR uni01D1
ENCODING 465
SWIDTH 602 0
DWIDTH 10 0
BBX 10 15 0 0
BITMAP
1B00
0E00
0000
1E00
7F80
6180
C0C0
C0C0
C0C0
C0C0
C0C0
C0C0
6180
7F80
1E00
ENDCHAR
STARTCHAR uni01D2
ENCODING 466
SWIDTH 602 0
DWIDTH 10 0
BBX 9 12 1 0
BITMAP
3600
1C00
0000
3E00
7F00
E380
C180
C180
C180
E380
7F00
3E00
ENDCHAR
STARTCHAR uni01D3
ENCODING 467
SWIDTH 602 0
DWIDTH 10 0
BBX 8 15 1 0
BITMAP
36
1C
00
C3
C3
C3
C3
C3
C3
C3
C3
C3
C3
FE
7C
ENDCHAR
STARTCHAR uni01D4
ENCODING 468
SWIDTH 602 0
DWIDTH 10 0
BBX 8 12 1 0
BITMAP
36
1C
00
C3
C3
C3
C3
C3
C3
C7
FF
7B
ENDCHAR
STARTCHAR uni01D5
ENCODING 469
SWIDTH 602 0
DWIDTH 10 0
BBX 8 18 1 0
BITMAP
3E
3E
00
36
36
00
C3
C3
C3
C3
C3
C3
C3
C3
C3
C3
FE
7C
ENDCHAR
STARTCHAR uni01D6
ENCODING 470
SWIDTH 602 0
DWIDTH 10 0
BBX 8 15 1 0
BITMAP
3E
3E
00
36
36
00
C3
C3
C3
C3
C3
C3
C7
FF
7B
ENDCHAR
STARTCHAR uni01D7
ENCODING 471
SWIDTH 602 0
DWIDTH 10 0
BBX 8 18 1 0
BITMAP
0E
18
00
36
36
00
C3
C3
C3
C3
C3
C3
C3
C3
C3
C3
FE
7C
ENDCHAR
STARTCHAR uni01D8
ENCODING 472
SWIDTH 602 0
DWIDTH 10 0
BBX 8 15 1 0
BITMAP
0E
18
00
36
36
00
C3
C3
C3
C3
C3
C3
C7
FF
7B
ENDCHAR
STARTCHAR uni01D9
ENCODING 473
SWIDTH 602 0
DWIDTH 10 0
BBX 8 18 1 0
BITMAP
36
1C
00
36
36
00
C3
C3
C3
C3
C3
C3
C3
C3
C3
C3
FE
7C
ENDCHAR
STARTCHAR uni01DA
ENCODING 474
SWIDTH 602 0
DWIDTH 10 0
BBX 8 15 1 0
BITMAP
36
1C
00
36
36
00
C3
C3
C3
C3
C3
C3
C7
FF
7B
ENDCHAR
STARTCHAR uni01DB
ENCODING 475
SWIDTH 602 0
DWIDTH 10 0
BBX 8 18 1 0
BITMAP
38
0C
00
36
36
00
C3
C3
C3
C3
C3
C3
C3
C3
C3
C3
FE
7C
ENDCHAR
STARTCHAR uni01DC
ENCODING 476
SWIDTH 602 0
DWIDTH 10 0
BBX 8 15 1 0
BITMAP
38
0C
00
36
36
00
C3
C3
C3
C3
C3
C3
C7
FF
7B
ENDCHAR
STARTCHAR uni01DD
ENCODING 477
SWIDTH 602 0
DWIDTH 10 0
BBX 9 9 1 0
BITMAP
7C00
FF00
8380
0180
FF80
FF80
C380
7F00
3E00
ENDCHAR
STARTCHAR uni01DE
ENCODING 478
SWIDTH 602 0
DWIDTH 10 0
BBX 10 18 0 0
BITMAP
1F00
1F00
0000
1B00
1B00
0000
0C00
1E00
1E00
1E00
3700
3300
3300
7F80
7F80
6180
C180
C0C0
ENDCHAR
STARTCHAR uni01DF
ENCODING 479
SWIDTH 602 0
DWIDTH 10 0
BBX 9 15 1 0
BITMAP
3E00
3E00
0000
3600
3600
0000
7E00
7F00
4300
3F00
FF00
C300
C700
FF80
7B80
ENDCHAR
STARTCHAR uni01E0
ENCODING 480
SWIDTH 602 0
DWIDTH 10 0
BBX 10 18 0 0
BITMAP
1F00
1F00
0000
0C00
0C00
0000
0C00
1E00
1E00
1E00
3700
3300
3300
7F80
7F80
6180
C180
C0C0
ENDCHAR
STARTCHAR uni01E1
ENCODING 481
SWIDTH 602 0
DWIDTH 10 0
BBX 9 15 1 0
BITMAP
3E00
3E00
0000
1800
1800
0000
7E00
7F00
4300
3F00
FF00
C300
C700
FF80
7B80
ENDCHAR
STARTCHAR uni01E2
ENCODING 482
SWIDTH 602 0
DWIDTH 10 0
BBX 10 15 0 0
BITMAP
1F00
1F00
0000
0FC0
0FC0
1E00
1E00
1E00
3FC0
37C0
7E00
7E00
6600
E7C0
C7C0
ENDCHAR
STARTCHAR uni01E3
ENCODING 483
SWIDTH 602 0
DWIDTH 10 0
BBX 10 12 0 0
BITMAP
1F00
1F00
0000
7B80
7F80
4CC0
0CC0
7FC0
FFC0
CC40
FFC0
7380
ENDCHAR
STARTCHAR uni01E4
ENCODING 484
SWIDTH 602 0
DWIDTH 10 0
BBX 12 12 0 0
BITMAP
1FC0
3FC0
7040
E000
C000
C000
C0C0
C0C0
EFF0
7FF0
3FC0
1F80
ENDCHAR
STARTCHAR uni01E5
ENCODING 485
SWIDTH 602 0
DWIDTH 10 0
BBX 9 12 1 -3
BITMAP
3D80
7F80
E380
C180
C180
C180
E380
7D80
FF80
FF80
7F00
3E00
ENDCHAR
STARTCHAR Gcaron
ENCODING 486
SWIDTH 602 0
DWIDTH 10 0
BBX 10 15 0 0
BITMAP
1B00
0E00
0000
1FC0
3FC0
7040
E000
C000
C000
C0C0
C0C0
E0C0
70C0
3FC0
1F80
ENDCHAR
STARTCHAR gcaron
ENCODING 487
SWIDTH 602 0
DWIDTH 10 0
BBX 9 15 1 -3
BITMAP
3600
1C00
0000
3D80
7F80
E380
C180
C180
C180
E380
7D80
3D80
4380
7F00
3E00
ENDCHAR
STARTCHAR uni01E8
ENCODING 488
SWIDTH 602 0
DWIDTH 10 0
BBX 9 15 1 0
BITMAP
3600
1C00
0000
C380
C700
CE00
DC00
D800
F000
F800
D800
CC00
CE00
C700
C380
ENDCHAR
STARTCHAR uni01E9
ENCODING 489
SWIDTH 602 0
DWIDTH 10 0
BBX 8 15 2 0
BITMAP
D8
70
00
C0
C0
C0
C6
CC
DC
F8
F8
D8
CC
CE
C7
ENDCHAR
STARTCHAR uni01EA
ENCODING 490
SWIDTH 602 0
DWIDTH 10 0
BBX 10 15 0 -3
BITMAP
1E00
7F80
6180
C0C0
C0C0
C0C0
C0C0
C0C0
C0C0
6180
7F80
1E00
0000
0C00
1C00
ENDCHAR
STARTCHAR uni01EB
ENCODING 491
SWIDTH 602 0
DWIDTH 10 0
BBX 9 12 1 -3
BITMAP
3E00
7F00
E380
C180
C180
C180
E380
7F00
3E00
0000
0C00
1C00
ENDCHAR
STARTCHAR uni01EC
ENCODING 492
SWIDTH 602 0
DWIDTH 10 0
BBX 10 18 0 -3
BITMAP
1F00
1F00
0000
1E00
7F80
6180
C0C0
C0C0
C0C0
C0C0
C0C0
C0C0
6180
7F80
1E00
0000
0C00
1C00
ENDCHAR
STARTCHAR uni01ED
ENCODING 493
SWIDTH 602 0
DWIDTH 10 0
BBX 9 15 1 -3
BITMAP
3E00
3E00
0000
3E00
7F00
E380
C180
C180
C180
E380
7F00
3E00
0000
0C00
1C00
ENDCHAR
STARTCHAR uni01F0
ENCODING 496
SWIDTH 602 0
DWIDTH 10 0
BBX 6 15 1 -3
BITMAP
6C
38
00
7C
7C
0C
0C
0C
0C
0C
0C
0C
8C
FC
F8
ENDCHAR
STARTCHAR uni01F4
ENCODING 500
SWIDTH 602 0
DWIDTH 10 0
BBX 10 15 0 0
BITMAP
0700
0C00
0000
1FC0
3FC0
7040
E000
C000
C000
C0C0
C0C0
E0C0
70C0
3FC0
1F80
ENDCHAR
STARTCHAR uni01F5
ENCODING 501
SWIDTH 602 0
DWIDTH 10 0
BBX 9 15 1 -3
BITMAP
0E00
1800
0000
3D80
7F80
E380
C180
C180
C180
E380
7D80
3D80
4380
7F00
3E00
ENDCHAR
STARTCHAR uni01F8
ENCODING 504
SWIDTH 602 0
DWIDTH 10 0
BBX 8 15 1 0
BITMAP
70
18
00
E3
E3
E3
F3
F3
DB
DB
CF
CF
C7
C7
C3
ENDCHAR
STARTCHAR uni01F9
ENCODING 505
SWIDTH 602 0
DWIDTH 10 0
BBX 8 12 1 0
BITMAP
70
18
00
DE
FF
E3
C3
C3
C3
C3
C3
C3
ENDCHAR
STARTCHAR Aringacute
ENCODING 506
SWIDTH 602 0
DWIDTH 10 0
BBX 10 18 0 0
BITMAP
0700
0C00
0000
0E00
0E00
0000
0C00
1E00
1E00
1E00
3700
3300
3300
7F80
7F80
6180
C180
C0C0
ENDCHAR
STARTCHAR aringacute
ENCODING 507
SWIDTH 602 0
DWIDTH 10 0
BBX 9 15 1 0
BITMAP
0E00
1800
0000
1C00
1C00
0000
7E00
7F00
4300
3F00
FF00
C300
C700
FF80
7B80
ENDCHAR
STARTCHAR AEacute
ENCODING 508
SWIDTH 602 0
DWIDTH 10 0
BBX 10 15 0 0
BITMAP
0700
0C00
0000
0FC0
0FC0
1E00
1E00
1E00
3FC0
37C0
7E00
7E00
6600
E7C0
C7C0
ENDCHAR
STARTCHAR aeacute
ENCODING 509
SWIDTH 602 0
DWIDTH 10 0
BBX 10 12 0 0
BITMAP
0700
0C00
0000
7B80
7F80
4CC0
0CC0
7FC0
FFC0
CC40
FFC0
7380
ENDCHAR
STARTCHAR Oslashacute
ENCODING 510
SWIDTH 602 0
DWIDTH 10 0
BBX 10 15 0 0
BITMAP
0700
0C00
0000
1EC0
7F80
6180
C3C0
C7C0
CEC0
DCC0
F8C0
F0C0
6180
7F80
DE00
ENDCHAR
STARTCHAR oslashacute
ENCODING 511
SWIDTH 602 0
DWIDTH 10 0
BBX 9 12 1 0
BITMAP
0E00
1800
0000
3F80
7F00
E780
CF80
DD80
F980
F380
7F00
FE00
ENDCHAR
STARTCHAR uni0200
ENCODING 512
SWIDTH 602 0
DWIDTH 10 0
BBX 10 15 0 0
BITMAP
6C00
1600
0000
0C00
1E00
1E00
1E00
3700
3300
3300
7F80
7F80
6180
C180
C0C0
ENDCHAR
STARTCHAR uni0201
ENCODING 513
SWIDTH 602 0
DWIDTH 10 0
BBX 9 12 1 0
BITMAP
6C00
1600
0000
7E00
7F00
4300
3F00
FF00
C300
C700
FF80
7B80
ENDCHAR
STARTCHAR uni0202
ENCODING 514
SWIDTH 602 0
DWIDTH 10 0
BBX 10 15 0 0
BITMAP
0E00
1B00
0000
0C00
1E00
1E00
1E00
3700
3300
3300
7F80
7F80
6180
C180
C0C0
ENDCHAR
STARTCHAR uni0203
ENCODING 515
SWIDTH 602 0
DWIDTH 10 0
BBX 9 12 1 0
BITMAP
1C00
3600
0000
7E00
7F00
4300
3F00
FF00
C300
C700
FF80
7B80
ENDCHAR
STARTCHAR uni0204
ENCODING 516
SWIDTH 602 0
DWIDTH 10 0
BBX 8 15 1 0
BITMAP
D8
2C
00
FF
FF
C0
C0
C0
FE
FE
C0
C0
C0
FF
FF
ENDCHAR
STARTCHAR uni0205
ENCODING 517
SWIDTH 602 0
DWIDTH 10 0
BBX 9 12 1 0
BITMAP
6C00
1600
0000
3E00
7F00
E180
FF80
FF80
C000
E080
7F80
1F00
ENDCHAR
STARTCHAR uni0206
ENCODING 518
SWIDTH 602 0
DWIDTH 10 0
BBX 8 15 1 0
BITMAP
38
6C
00
FF
FF
C0
C0
C0
FE
FE
C0
C0
C0
FF
FF
ENDCHAR
STARTCHAR uni0207
ENCODING 519
SWIDTH 602 0
DWIDTH 10 0
BBX 9 12 1 0
BITMAP
1C00
3600
0000
3E00
7F00
E180
FF80
FF80
C000
E080
7F80
1F00
ENDCHAR
STARTCHAR uni0208
ENCODING 520
SWIDTH 602 0
DWIDTH 10 0
BBX 8 15 1 0
BITMAP
D8
2C
00
FF
FF
18
18
18
18
18
18
18
18
FF
FF
ENDCHAR
STARTCHAR uni0209
ENCODING 521
SWIDTH 602 0
DWIDTH 10 0
BBX 6 12 1 0
BITMAP
D8
2C
00
7C
7C
0C
0C
0C
0C
0C
0C
0C
ENDCHAR
STARTCHAR uni020A
ENCODING 522
SWIDTH 602 0
DWIDTH 10 0
BBX 8 15 1 0
BITMAP
1C
36
00
FF
FF
18
18
18
18
18
18
18
18
FF
FF
ENDCHAR
STARTCHAR uni020B
ENCODING 523
SWIDTH 602 0
DWIDTH 10 0
BBX 5 12 2 0
BITMAP
70
D8
00
F8
F8
18
18
18
18
18
18
18
ENDCHAR
STARTCHAR uni020C
ENCODING 524
SWIDTH 602 0
DWIDTH 10 0
BBX 10 15 0 0
BITMAP
6C00
1600
0000
1E00
7F80
6180
C0C0
C0C0
C0C0
C0C0
C0C0
C0C0
6180
7F80
1E00
ENDCHAR
STARTCHAR uni020D
ENCODING 525
SWIDTH 602 0
DWIDTH 10 0
BBX 9 12 1 0
BITMAP
6C00
1600
0000
3E00
7F00
E380
C180
C180
C180
E380
7F00
3E00
ENDCHAR
STARTCHAR uni020E
ENCODING 526
SWIDTH 602 0
DWIDTH 10 0
BBX 10 15 0 0
BITMAP
0E00
1B00
0000
1E00
7F80
6180
C0C0
C0C0
C0C0
C0C0
C0C0
C0C0
6180
7F80
1E00
ENDCHAR
STARTCHAR uni020F
ENCODING 527
SWIDTH 602 0
DWIDTH 10 0
BBX 9 12 1 0
BITMAP
1C00
3600
0000
3E00
7F00
E380
C180
C180
C180
E380
7F00
3E00
ENDCHAR
STARTCHAR uni0210
ENCODING 528
SWIDTH 602 0
DWIDTH 10 0
BBX 8 15 1 0
BITMAP
D8
2C
00
FE
FF
C3
C3
C3
C6
FC
FC
CE
C6
C7
C3
ENDCHAR
STARTCHAR uni0211
ENCODING 529
SWIDTH 602 0
DWIDTH 10 0
BBX 7 12 2 0
BITMAP
D8
2C
00
DE
FE
E6
C6
C0
C0
C0
C0
C0
ENDCHAR
STARTCHAR uni0212
ENCODING 530
SWIDTH 602 0
DWIDTH 10 0
BBX 8 15 1 0
BITMAP
38
6C
00
FE
FF
C3
C3
C3
C6
FC
FC
CE
C6
C7
C3
ENDCHAR
STARTCHAR uni0213
ENCODING 531
SWIDTH 602 0
DWIDTH 10 0
BBX 7 12 2 0
BITMAP
38
6C
00
DE
FE
E6
C6
C0
C0
C0
C0
C0
ENDCHAR
STARTCHAR uni0214
ENCODING 532
SWIDTH 602 0
DWIDTH 10 0
BBX 8 15 1 0
BITMAP
D8
2C
00
C3
C3
C3
C3
C3
C3
C3
C3
C3
C3
FE
7C
ENDCHAR
STARTCHAR uni0215
ENCODING 533
SWIDTH 602 0
DWIDTH 10 0
BBX 8 12 1 0
BITMAP
D8
2C
00
C3
C3
C3
C3
C3
C3
C7
FF
7B
ENDCHAR
STARTCHAR uni0216
ENCODING 534
SWIDTH 602 0
DWIDTH 10 0
BBX 8 15 1 0
BITMAP
1C
36
00
C3
C3
C3
C3
C3
C3
C3
C3
C3
C3
FE
7C
ENDCHAR
STARTCHAR uni0217
ENCODING 535
SWIDTH 602 0
DWIDTH 10 0
BBX 8 12 1 0
BITMAP
1C
36
00
C3
C3
C3
C3
C3
C3
C7
FF
7B
ENDCHAR
STARTCHAR Scommaaccent
ENCODING 536
SWIDTH 602 0
DWIDTH 10 0
BBX 9 19 1 -7
BITMAP
3F00
7F00
C100
C000
F000
3C00
0F00
0380
0180
8380
FF00
FE00
0000
1C00
1C00
1C00
0C00
1C00
1800
ENDCHAR
STARTCHAR scommaaccent
ENCODING 537
SWIDTH 602 0
DWIDTH 10 0
BBX 8 16 1 -7
BITMAP
3E
FE
E2
F8
7E
0F
83
FF
FC
00
38
38
38
18
38
30
ENDCHAR
STARTCHAR Tcommaaccent
ENCODING 538
SWIDTH 602 0
DWIDTH 10 0
BBX 10 19 0 -7
BITMAP
FFC0
FFC0
0C00
0C00
0C00
0C00
0C00
0C00
0C00
0C00
0C00
0C00
0000
0E00
0E00
0E00
0600
0E00
0C00
ENDCHAR
STARTCHAR tcommaaccent
ENCODING 539
SWIDTH 602 0
DWIDTH 10 0
BBX 8 18 1 -7
BITMAP
30
30
FF
FF
30
30
30
30
30
3F
1F
00
1C
1C
1C
0C
1C
18
ENDCHAR
STARTCHAR uni021E
ENCODING 542
SWIDTH 602 0
DWIDTH 10 0
BBX 9 15 1 0
BITMAP
3600
1C00
0000
C180
C180
C180
C180
C180
FF80
FF80
C180
C180
C180
C180
C180
ENDCHAR
STARTCHAR uni021F
ENCODING 543
SWIDTH 602 0
DWIDTH 10 0
BBX 8 15 1 0
BITMAP
D8
70
00
C0
C0
C0
DE
FF
E3
C3
C3
C3
C3
C3
C3
ENDCHAR
STARTCHAR uni0226
ENCODING 550
SWIDTH 602 0
DWIDTH 10 0
BBX 10 15 0 0
BITMAP
0C00
0C00
0000
0C00
1E00
1E00
1E00
3700
3300
3300
7F80
7F80
6180
C180
C0C0
ENDCHAR
STARTCHAR uni0227
ENCODING 551
SWIDTH 602 0
DWIDTH 10 0
BBX 9 12 1 0
BITMAP
1800
1800
0000
7E00
7F00
4300
3F00
FF00
C300
C700
FF80
7B80
ENDCHAR
STARTCHAR uni0228
ENCODING 552
SWIDTH 602 0
DWIDTH 10 0
BBX 8 15 1 -3
BITMAP
FF
FF
C0
C0
C0
FE
FE
C0
C0
C0
FF
FF
30
18
38
ENDCHAR
STARTCHAR uni0229
ENCODING 553
SWIDTH 602 0
DWIDTH 10 0
BBX 9 12 1 -3
BITMAP
3E00
7F00
E180
FF80
FF80
C000
E080
7F80
1F00
1800
0C00
1C00
ENDCHAR
STARTCHAR uni022A
ENCODING 554
SWIDTH 602 0
DWIDTH 10 0
BBX 10 18 0 0
BITMAP
3E00
3E00
0000
3600
3600
0000
1E00
7F80
6180
C0C0
C0C0
C0C0
C0C0
C0C0
C0C0
6180
7F80
1E00
ENDCHAR
STARTCHAR uni022B
ENCODING 555
SWIDTH 602 0
DWIDTH 10 0
BBX 9 15 1 0
BITMAP
3E00
3E00
0000
3600
3600
0000
3E00
7F00
E380
C180
C180
C180
E380
7F00
3E00
ENDCHAR
STARTCHAR uni022C
ENCODING 556
SWIDTH 602 0
DWIDTH 10 0
BBX 10 18 0 0
BITMAP
1F00
1F00
0000
1F00
1F00
0000
1E00
7F80
6180
C0C0
C0C0
C0C0
C0C0
C0C0
C0C0
6180
7F80
1E00
ENDCHAR
STARTCHAR uni022D
ENCODING 557
SWIDTH 602 0
DWIDTH 10 0
BBX 9 15 1 0
BITMAP
3E00
3E00
0000
3E00
3E00
0000
3E00
7F00
E380
C180
C180
C180
E380
7F00
3E00
ENDCHAR
STARTCHAR uni022E
ENCODING 558
SWIDTH 602 0
DWIDTH 10 0
BBX 10 15 0 0
BITMAP
0C00
0C00
0000
1E00
7F80
6180
C0C0
C0C0
C0C0
C0C0
C0C0
C0C0
6180
7F80
1E00
ENDCHAR
STARTCHAR uni022F
ENCODING 559
SWIDTH 602 0
DWIDTH 10 0
BBX 9 12 1 0
BITMAP
0C00
0C00
0000
3E00
7F00
E380
C180
C180
C180
E380
7F00
3E00
ENDCHAR
STARTCHAR uni0230
ENCODING 560
SWIDTH 602 0
DWIDTH 10 0
BBX 10 18 0 0
BITMAP
1F00
1F00
0000
0C00
0C00
0000
1E00
7F80
6180
C0C0
C0C0
C0C0
C0C0
C0C0
C0C0
6180
7F80
1E00
ENDCHAR
STARTCHAR uni0231
ENCODING 561
SWIDTH 602 0
DWIDTH 10 0
BBX 9 15 1 0
BITMAP
3E00
3E00
0000
0C00
0C00
0000
3E00
7F00
E380
C180
C180
C180
E380
7F00
3E00
ENDCHAR
STARTCHAR uni0232
ENCODING 562
SWIDTH 602 0
DWIDTH 10 0
BBX 10 15 0 0
BITMAP
1F00
1F00
0000
E0C0
6180
3380
3300
1F00
1E00
0E00
0C00
0C00
0C00
0C00
0C00
ENDCHAR
STARTCHAR uni0233
ENCODING 563
SWIDTH 602 0
DWIDTH 10 0
BBX 10 15 0 -3
BITMAP
3E00
3E00
0000
E0C0
6180
3180
3300
1B00
1E00
0E00
0E00
0C00
1C00
7800
7000
ENDCHAR
STARTCHAR uni0250
ENCODING 592
SWIDTH 602 0
DWIDTH 10 0
BBX 9 9 1 0
BITMAP
EF00
FF80
7180
6180
7F80
7E00
6100
7F00
3F00
ENDCHAR
STARTCHAR uni0254
ENCODING 596
SWIDTH 602 0
DWIDTH 10 0
BBX 8 9 1 0
BITMAP
FC
FE
87
03
03
03
07
FE
FC
ENDCHAR
STARTCHAR uni0258
ENCODING 600
SWIDTH 602 0
DWIDTH 10 0
BBX 9 9 1 0
BITMAP
3E00
7F00
C380
FF80
FF80
0180
8380
FF00
7C00
ENDCHAR
STARTCHAR uni0259
ENCODING 601
SWIDTH 602 0
DWIDTH 10 0
BBX 9 9 1 0
BITMAP
7C00
FF00
8380
0180
FF80
FF80
C380
7F00
3E00
ENDCHAR
STARTCHAR uni025F
ENCODING 607
SWIDTH 602 0
DWIDTH 10 0
BBX 8 12 2 -3
BITMAP
0C
0C
0C
0C
0C
0C
0C
7F
7F
0C
FC
F8
ENDCHAR
STARTCHAR uni0265
ENCODING 613
SWIDTH 602 0
DWIDTH 10 0
BBX 8 12 1 -3
BITMAP
C3
C3
C3
C3
C3
C3
C7
FF
7B
03
03
03
ENDCHAR
STARTCHAR uni0275
ENCODING 629
SWIDTH 602 0
DWIDTH 10 0
BBX 9 9 1 0
BITMAP
3E00
7F00
E380
FF80
FF80
C180
E380
7F00
3E00
ENDCHAR
STARTCHAR uni0279
ENCODING 633
SWIDTH 602 0
DWIDTH 10 0
BBX 7 9 2 0
BITMAP
06
06
06
06
06
C6
CE
FE
F6
ENDCHAR
STARTCHAR uni0287
ENCODING 647
SWIDTH 602 0
DWIDTH 10 0
BBX 8 11 1 0
BITMAP
F8
FC
0C
0C
0C
0C
0C
FF
FF
0C
0C
ENDCHAR
STARTCHAR uni0288
ENCODING 648
SWIDTH 602 0
DWIDTH 10 0
BBX 8 14 1 -3
BITMAP
30
30
FF
FF
30
30
30
30
30
30
30
31
3F
1F
ENDCHAR
STARTCHAR uni0289
ENCODING 649
SWIDTH 602 0
DWIDTH 10 0
BBX 8 9 1 0
BITMAP
C3
C3
C3
FF
FF
C3
C7
FF
7B
ENDCHAR
STARTCHAR uni028C
ENCODING 652
SWIDTH 602 0
DWIDTH 10 0
BBX 10 9 0 0
BITMAP
1C00
1E00
1E00
3600
3300
7300
6180
6180
C1C0
ENDCHAR
STARTCHAR uni028D
ENCODING 653
SWIDTH 602 0
DWIDTH 10 0
BBX 10 9 0 0
BITMAP
7380
7380
7380
7780
5F80
5F80
DEC0
CCC0
C0C0
ENDCHAR
STARTCHAR uni028E
ENCODING 654
SWIDTH 602 0
DWIDTH 10 0
BBX 10 12 0 0
BITMAP
0380
0780
0E00
0C00
1C00
1C00
1E00
3600
3300
6300
6180
C1C0
ENDCHAR
STARTCHAR uni029E
ENCODING 670
SWIDTH 602 0
DWIDTH 10 0
BBX 8 12 2 -3
BITMAP
E3
73
33
1B
1F
1F
3B
33
63
03
03
03
ENDCHAR
STARTCHAR uni02BB
ENCODING 699
SWIDTH 602 0
DWIDTH 10 0
BBX 3 5 4 7
BITMAP
60
E0
E0
E0
E0
ENDCHAR
STARTCHAR afii57929
ENCODING 700
SWIDTH 602 0
DWIDTH 10 0
BBX 3 5 4 7
BITMAP
E0
E0
E0
E0
C0
ENDCHAR
STARTCHAR afii64937
ENCODING 701
SWIDTH 602 0
DWIDTH 10 0
BBX 3 5 4 7
BITMAP
E0
E0
E0
E0
60
ENDCHAR
STARTCHAR circumflex
ENCODING 710
SWIDTH 602 0
DWIDTH 10 0
BBX 5 2 3 10
BITMAP
70
D8
ENDCHAR
STARTCHAR caron
ENCODING 711
SWIDTH 602 0
DWIDTH 10 0
BBX 5 2 3 10
BITMAP
D8
70
ENDCHAR
STARTCHAR uni02C8
ENCODING 712
SWIDTH 602 0
DWIDTH 10 0
BBX 3 5 4 7
BITMAP
E0
E0
E0
60
60
ENDCHAR
STARTCHAR macron
ENCODING 713
SWIDTH 602 0
DWIDTH 10 0
BBX 5 2 3 10
BITMAP
F8
F8
ENDCHAR
STARTCHAR uni02CA
ENCODING 714
SWIDTH 602 0
DWIDTH 10 0
BBX 4 2 3 10
BITMAP
70
C0
ENDCHAR
STARTCHAR uni02CB
ENCODING 715
SWIDTH 602 0
DWIDTH 10 0
BBX 4 2 3 10
BITMAP
E0
30
ENDCHAR
STARTCHAR uni02CD
ENCODING 717
SWIDTH 602 0
DWIDTH 10 0
BBX 5 2 3 -3
BITMAP
F8
F8
ENDCHAR
STARTCHAR uni02CE
ENCODING 718
SWIDTH 602 0
DWIDTH 10 0
BBX 4 2 3 -3
BITMAP
E0
30
ENDCHAR
STARTCHAR uni02CF
ENCODING 719
SWIDTH 602 0
DWIDTH 10 0
BBX 4 2 3 -3
BITMAP
70
C0
ENDCHAR
STARTCHAR breve
ENCODING 728
SWIDTH 602 0
DWIDTH 10 0
BBX 5 2 3 10
BITMAP
D8
70
ENDCHAR
STARTCHAR dotaccent
ENCODING 729
SWIDTH 602 0
DWIDTH 10 0
BBX 2 2 4 10
BITMAP
C0
C0
ENDCHAR
STARTCHAR ring
ENCODING 730
SWIDTH 602 0
DWIDTH 10 0
BBX 3 2 4 10
BITMAP
E0
E0
ENDCHAR
STARTCHAR ogonek
ENCODING 731
SWIDTH 602 0
DWIDTH 10 0
BBX 3 2 4 -3
BITMAP
60
E0
ENDCHAR
STARTCHAR tilde
ENCODING 732
SWIDTH 602 0
DWIDTH 10 0
BBX 5 2 3 10
BITMAP
F8
F8
ENDCHAR
STARTCHAR hungarumlaut
ENCODING 733
SWIDTH 602 0
DWIDTH 10 0
BBX 6 2 3 10
BITMAP
6C
D0
ENDCHAR
STARTCHAR uni02EE
ENCODING 750
SWIDTH 602 0
DWIDTH 10 0
BBX 7 4 2 8
BITMAP
C6
C6
C6
C6
ENDCHAR
STARTCHAR uni037E
ENCODING 894
SWIDTH 602 0
DWIDTH 10 0
BBX 2 12 4 -3
BITMAP
C0
C0
00
00
00
00
C0
C0
C0
C0
C0
80
ENDCHAR
STARTCHAR tonos
ENCODING 900
SWIDTH 602 0
DWIDTH 10 0
BBX 4 2 3 10
BITMAP
70
C0
ENDCHAR
STARTCHAR dieresistonos
ENCODING 901
SWIDTH 602 0
DWIDTH 10 0
BBX 5 5 3 10
BITMAP
38
60
00
D8
D8
ENDCHAR
STARTCHAR anoteleia
ENCODING 903
SWIDTH 602 0
DWIDTH 10 0
BBX 2 2 4 3
BITMAP
C0
C0
ENDCHAR
STARTCHAR mu
ENCODING 956
SWIDTH 602 0
DWIDTH 10 0
BBX 8 12 1 -3
BITMAP
C3
C3
C3
C3
C3
C3
E7
FF
FB
C0
C0
C0
ENDCHAR
STARTCHAR uni1E00
ENCODING 7680
SWIDTH 602 0
DWIDTH 10 0
BBX 10 15 0 -3
BITMAP
0C00
1E00
1E00
1E00
3700
3300
3300
7F80
7F80
6180
C180
C0C0
0000
1C00
1C00
ENDCHAR
STARTCHAR uni1E01
ENCODING 7681
SWIDTH 602 0
DWIDTH 10 0
BBX 9 12 1 -3
BITMAP
7E00
7F00
4300
3F00
FF00
C300
C700
FF80
7B80
0000
1C00
1C00
ENDCHAR
STARTCHAR uni1E02
ENCODING 7682
SWIDTH 602 0
DWIDTH 10 0
BBX 8 15 1 0
BITMAP
18
18
00
FE
FF
C3
C3
C6
FC
FE
C7
C3
C7
FF
FE
ENDCHAR
STARTCHAR uni1E03
ENCODING 7683
SWIDTH 602 0
DWIDTH 10 0
BBX 9 15 1 0
BITMAP
3000
3000
0000
C000
C000
C000
DE00
FF00
E380
C180
C180
C180
E380
FF00
DE00
ENDCHAR
STARTCHAR uni1E04
ENCODING 7684
SWIDTH 602 0
DWIDTH 10 0
BBX 8 15 1 -3
BITMAP
FE
FF
C3
C3
C6
FC
FE
C7
C3
C7
FF
FE
00
18
18
ENDCHAR
STARTCHAR uni1E05
ENCODING 7685
SWIDTH 602 0
DWIDTH 10 0
BBX 9 15 1 -3
BITMAP
C000
C000
C000
DE00
FF00
E380
C180
C180
C180
E380
FF00
DE00
0000
1800
1800
ENDCHAR
STARTCHAR uni1E06
ENCODING 7686
SWIDTH 602 0
DWIDTH 10 0
BBX 8 15 1 -3
BITMAP
FE
FF
C3
C3
C6
FC
FE
C7
C3
C7
FF
FE
00
7C
7C
ENDCHAR
STARTCHAR uni1E07
ENCODING 7687
SWIDTH 602 0
DWIDTH 10 0
BBX 9 15 1 -3
BITMAP
C000
C000
C000
DE00
FF00
E380
C180
C180
C180
E380
FF00
DE00
0000
3E00
3E00
ENDCHAR
STARTCHAR uni1E08
ENCODING 7688
SWIDTH 602 0
DWIDTH 10 0
BBX 9 18 1 -3
BITMAP
0E00
1800
0000
1F80
3F80
7080
E000
C000
C000
C000
C000
E000
7080
3F80
1F00
0800
0C00
1C00
ENDCHAR
STARTCHAR uni1E09
ENCODING 7689
SWIDTH 602 0
DWIDTH 10 0
BBX 8 15 1 -3
BITMAP
0E
18
00
3F
7F
E1
C0
C0
C0
E0
7F
3F
08
0C
1C
ENDCHAR
STARTCHAR uni1E0A
ENCODING 7690
SWIDTH 602 0
DWIDTH 10 0
BBX 9 15 1 0
BITMAP
1800
1800
0000
FE00
FF00
C380
C180
C180
C180
C180
C180
C180
C300
FE00
FC00
ENDCHAR
STARTCHAR uni1E0B
ENCODING 7691
SWIDTH 602 0
DWIDTH 10 0
BBX 9 15 1 0
BITMAP
0600
0600
0000
0180
0180
0180
3D80
7F80
E380
C180
C180
C180
E380
7F80
3D80
ENDCHAR
STARTCHAR uni1E0C
ENCODING 7692
SWIDTH 602 0
DWIDTH 10 0
BBX 9 15 1 -3
BITMAP
FE00
FF00
C380
C180
C180
C180
C180
C180
C180
C300
FE00
FC00
0000
1800
1800
ENDCHAR
STARTCHAR uni1E0D
ENCODING 7693
SWIDTH 602 0
DWIDTH 10 0
BBX 9 15 1 -3
BITMAP
0180
0180
0180
3D80
7F80
E380
C180
C180
C180
E380
7F80
3D80
0000
0C00
0C00
ENDCHAR
STARTCHAR uni1E0E
ENCODING 7694
SWIDTH 602 0
DWIDTH 10 0
BBX 9 15 1 -3
BITMAP
FE00
FF00
C380
C180
C180
C180
C180
C180
C180
C300
FE00
FC00
0000
7C00
7C00
ENDCHAR
STARTCHAR uni1E0F
ENCODING 7695
SWIDTH 602 0
DWIDTH 10 0
BBX 9 15 1 -3
BITMAP
0180
0180
0180
3D80
7F80
E380
C180
C180
C180
E380
7F80
3D80
0000
3E00
3E00
ENDCHAR
STARTCHAR uni1E10
ENCODING 7696
SWIDTH 602 0
DWIDTH 10 0
BBX 9 15 1 -3
BITMAP
FE00
FF00
C380
C180
C180
C180
C180
C180
C180
C300
FE00
FC00
1800
0C00
1C00
ENDCHAR
STARTCHAR uni1E11
ENCODING 7697
SWIDTH 602 0
DWIDTH 10 0
BBX 9 15 1 -3
BITMAP
0180
0180
0180
3D80
7F80
E380
C180
C180
C180
E380
7F80
3D80
0C00
0600
0E00
ENDCHAR
STARTCHAR uni1E12
ENCODING 7698
SWIDTH 602 0
DWIDTH 10 0
BBX 9 15 1 -3
BITMAP
FE00
FF00
C380
C180
C180
C180
C180
C180
C180
C300
FE00
FC00
0000
3800
6C00
ENDCHAR
STARTCHAR uni1E13
ENCODING 7699
SWIDTH 602 0
DWIDTH 10 0
BBX 9 15 1 -3
BITMAP
0180
0180
0180
3D80
7F80
E380
C180
C180
C180
E380
7F80
3D80
0000
1C00
3600
ENDCHAR
STARTCHAR uni1E14
ENCODING 7700
SWIDTH 602 0
DWIDTH 10 0
BBX 8 18 1 0
BITMAP
70
18
00
7C
7C
00
FF
FF
C0
C0
C0
FE
FE
C0
C0
C0
FF
FF
ENDCHAR
STARTCHAR uni1E15
ENCODING 7701
SWIDTH 602 0
DWIDTH 10 0
BBX 9 15 1 0
BITMAP
3800
0C00
0000
3E00
3E00
0000
3E00
7F00
E180
FF80
FF80
C000
E080
7F80
1F00
ENDCHAR
STARTCHAR uni1E16
ENCODING 7702
SWIDTH 602 0
DWIDTH 10 0
BBX 8 18 1 0
BITMAP
1C
30
00
7C
7C
00
FF
FF
C0
C0
C0
FE
FE
C0
C0
C0
FF
FF
ENDCHAR
STARTCHAR uni1E17
ENCODING 7703
SWIDTH 602 0
DWIDTH 10 0
BBX 9 15 1 0
BITMAP
0E00
1800
0000
3E00
3E00
0000
3E00
7F00
E180
FF80
FF80
C000
E080
7F80
1F00
ENDCHAR
STARTCHAR uni1E18
ENCODING 7704
SWIDTH 602 0
DWIDTH 10 0
BBX 8 15 1 -3
BITMAP
FF
FF
C0
C0
C0
FE
FE
C0
C0
C0
FF
FF
00
38
6C
ENDCHAR
STARTCHAR uni1E19
ENCODING 7705
SWIDTH 602 0
DWIDTH 10 0
BBX 9 12 1 -3
BITMAP
3E00
7F00
E180
FF80
FF80
C000
E080
7F80
1F00
0000
1C00
3600
ENDCHAR
STARTCHAR uni1E1A
ENCODING 7706
SWIDTH 602 0
DWIDTH 10 0
BBX 8 15 1 -3
BITMAP
FF
FF
C0
C0
C0
FE
FE
C0
C0
C0
FF
FF
00
7C
7C
ENDCHAR
STARTCHAR uni1E1B
ENCODING 7707
SWIDTH 602 0
DWIDTH 10 0
BBX 9 12 1 -3
BITMAP
3E00
7F00
E180
FF80
FF80
C000
E080
7F80
1F00
0000
3E00
3E00
ENDCHAR
STARTCHAR uni1E1C
ENCODING 7708
SWIDTH 602 0
DWIDTH 10 0
BBX 8 18 1 -3
BITMAP
6C
38
00
FF
FF
C0
C0
C0
FE
FE
C0
C0
C0
FF
FF
30
18
38
ENDCHAR
STARTCHAR uni1E1D
ENCODING 7709
SWIDTH 602 0
DWIDTH 10 0
BBX 9 15 1 -3
BITMAP
3600
1C00
0000
3E00
7F00
E180
FF80
FF80
C000
E080
7F80
1F00
1800
0C00
1C00
ENDCHAR
STARTCHAR uni1E1E
ENCODING 7710
SWIDTH 602 0
DWIDTH 10 0
BBX 8 15 2 0
BITMAP
18
18
00
FF
FF
C0
C0
C0
FE
FE
C0
C0
C0
C0
C0
ENDCHAR
STARTCHAR uni1E1F
ENCODING 7711
SWIDTH 602 0
DWIDTH 10 0
BBX 8 15 2 0
BITMAP
18
18
00
1F
3F
30
FE
FE
30
30
30
30
30
30
30
ENDCHAR
STARTCHAR uni1E20
ENCODING 7712
SWIDTH 602 0
DWIDTH 10 0
BBX 10 15 0 0
BITMAP
1F00
1F00
0000
1FC0
3FC0
7040
E000
C000
C000
C0C0
C0C0
E0C0
70C0
3FC0
1F80
ENDCHAR
STARTCHAR uni1E21
ENCODING 7713
SWIDTH 602 0
DWIDTH 10 0
BBX 9 15 1 -3
BITMAP
3E00
3E00
0000
3D80
7F80
E380
C180
C180
C180
E380
7D80
3D80
4380
7F00
3E00
ENDCHAR
STARTCHAR uni1E22
ENCODING 7714
SWIDTH 602 0
DWIDTH 10 0
BBX 9 15 1 0
BITMAP
0C00
0C00
0000
C180
C180
C180
C180
C180
FF80
FF80
C180
C180
C180
C180
C180
ENDCHAR
STARTCHAR uni1E23
ENCODING 7715
SWIDTH 602 0
DWIDTH 10 0
BBX 8 15 1 0
BITMAP
30
30
00
C0
C0
C0
DE
FF
E3
C3
C3
C3
C3
C3
C3
ENDCHAR
STARTCHAR uni1E24
ENCODING 7716
SWIDTH 602 0
DWIDTH 10 0
BBX 9 15 1 -3
BITMAP
C180
C180
C180
C180
C180
FF80
FF80
C180
C180
C180
C180
C180
0000
0C00
0C00
ENDCHAR
STARTCHAR uni1E25
ENCODING 7717
SWIDTH 602 0
DWIDTH 10 0
BBX 8 15 1 -3
BITMAP
C0
C0
C0
DE
FF
E3
C3
C3
C3
C3
C3
C3
00
18
18
ENDCHAR
STARTCHAR uni1E26
ENCODING 7718
SWIDTH 602 0
DWIDTH 10 0
BBX 9 15 1 0
BITMAP
3600
3600
0000
C180
C180
C180
C180
C180
FF80
FF80
C180
C180
C180
C180
C180
ENDCHAR
STARTCHAR uni1E27
ENCODING 7719
SWIDTH 602 0
DWIDTH 10 0
BBX 8 15 1 0
BITMAP
D8
D8
00
C0
C0
C0
DE
FF
E3
C3
C3
C3
C3
C3
C3
ENDCHAR
STARTCHAR uni1E28
ENCODING 7720
SWIDTH 602 0
DWIDTH 10 0
BBX 9 15 1 -3
BITMAP
C180
C180
C180
C180
C180
FF80
FF80
C180
C180
C180
C180
C180
1800
0C00
1C00
ENDCHAR
STARTCHAR uni1E29
ENCODING 7721
SWIDTH 602 0
DWIDTH 10 0
BBX 8 15 1 -3
BITMAP
C0
C0
C0
DE
FF
E3
C3
C3
C3
C3
C3
C3
18
0C
1C
ENDCHAR
STARTCHAR uni1E2A
ENCODING 7722
SWIDTH 602 0
DWIDTH 10 0
BBX 9 15 1 -3
BITMAP
C180
C180
C180
C180
C180
FF80
FF80
C180
C180
C180
C180
C180
0000
3600
1C00
ENDCHAR
STARTCHAR uni1E2B
ENCODING 7723
SWIDTH 602 0
DWIDTH 10 0
BBX 8 15 1 -3
BITMAP
C0
C0
C0
DE
FF
E3
C3
C3
C3
C3
C3
C3
00
36
1C
ENDCHAR
STARTCHAR uni1E2C
ENCODING 7724
SWIDTH 602 0
DWIDTH 10 0
BBX 8 15 1 -3
BITMAP
FF
FF
18
18
18
18
18
18
18
18
FF
FF
00
3E
3E
ENDCHAR
STARTCHAR uni1E2D
ENCODING 7725
SWIDTH 602 0
DWIDTH 10 0
BBX 6 15 2 -3
BITMAP
18
18
00
F8
F8
18
18
18
18
18
18
18
00
7C
7C
ENDCHAR
STARTCHAR uni1E2E
ENCODING 7726
SWIDTH 602 0
DWIDTH 10 0
BBX 8 18 1 0
BITMAP
0E
18
00
36
36
00
FF
FF
18
18
18
18
18
18
18
18
FF
FF
ENDCHAR
STARTCHAR uni1E2F
ENCODING 7727
SWIDTH 602 0
DWIDTH 10 0
BBX 6 15 2 0
BITMAP
1C
30
00
6C
6C
00
F8
F8
18
18
18
18
18
18
18
ENDCHAR
STARTCHAR uni1E30
ENCODING 7728
SWIDTH 602 0
DWIDTH 10 0
BBX 9 15 1 0
BITMAP
0E00
1800
0000
C380
C700
CE00
DC00
D800
F000
F800
D800
CC00
CE00
C700
C380
ENDCHAR
STARTCHAR uni1E31
ENCODING 7729
SWIDTH 602 0
DWIDTH 10 0
BBX 8 15 2 0
BITMAP
38
60
00
C0
C0
C0
C6
CC
DC
F8
F8
D8
CC
CE
C7
ENDCHAR
STARTCHAR uni1E32
ENCODING 7730
SWIDTH 602 0
DWIDTH 10 0
BBX 9 15 1 -3
BITMAP
C380
C700
CE00
DC00
D800
F000
F800
D800
CC00
CE00
C700
C380
0000
1800
1800
ENDCHAR
STARTCHAR uni1E33
ENCODING 7731
SWIDTH 602 0
DWIDTH 10 0
BBX 8 15 2 -3
BITMAP
C0
C0
C0
C6
CC
DC
F8
F8
D8
CC
CE
C7
00
18
18
ENDCHAR
STARTCHAR uni1E34
ENCODING 7732
SWIDTH 602 0
DWIDTH 10 0
BBX 9 15 1 -3
BITMAP
C380
C700
CE00
DC00
D800
F000
F800
D800
CC00
CE00
C700
C380
0000
3E00
3E00
ENDCHAR
STARTCHAR uni1E35
ENCODING 7733
SWIDTH 602 0
DWIDTH 10 0
BBX 8 15 2 -3
BITMAP
C0
C0
C0
C6
CC
DC
F8
F8
D8
CC
CE
C7
00
7C
7C
ENDCHAR
STARTCHAR uni1E36
ENCODING 7734
SWIDTH 602 0
DWIDTH 10 0
BBX 8 15 2 -3
BITMAP
C0
C0
C0
C0
C0
C0
C0
C0
C0
C0
FF
FF
00
18
18
ENDCHAR
STARTCHAR uni1E37
ENCODING 7735
SWIDTH 602 0
DWIDTH 10 0
BBX 5 15 1 -3
BITMAP
F8
F8
18
18
18
18
18
18
18
18
18
18
00
18
18
ENDCHAR
STARTCHAR uni1E38
ENCODING 7736
SWIDTH 602 0
DWIDTH 10 0
BBX 8 18 2 -3
BITMAP
F8
F8
00
C0
C0
C0
C0
C0
C0
C0
C0
C0
C0
FF
FF
00
18
18
ENDCHAR
STARTCHAR uni1E39
ENCODING 7737
SWIDTH 602 0
DWIDTH 10 0
BBX 5 18 1 -3
BITMAP
F8
F8
00
F8
F8
18
18
18
18
18
18
18
18
18
18
00
18
18
ENDCHAR
STARTCHAR uni1E3A
ENCODING 7738
SWIDTH 602 0
DWIDTH 10 0
BBX 8 15 2 -3
BITMAP
C0
C0
C0
C0
C0
C0
C0
C0
C0
C0
FF
FF
00
7C
7C
ENDCHAR
STARTCHAR uni1E3B
ENCODING 7739
SWIDTH 602 0
DWIDTH 10 0
BBX 6 15 1 -3
BITMAP
F8
F8
18
18
18
18
18
18
18
18
18
18
00
7C
7C
ENDCHAR
STARTCHAR uni1E3C
ENCODING 7740
SWIDTH 602 0
DWIDTH 10 0
BBX 8 15 2 -3
BITMAP
C0
C0
C0
C0
C0
C0
C0
C0
C0
C0
FF
FF
00
38
6C
ENDCHAR
STARTCHAR uni1E3D
ENCODING 7741
SWIDTH 602 0
DWIDTH 10 0
BBX 6 15 1 -3
BITMAP
F8
F8
18
18
18
18
18
18
18
18
18
18
00
38
6C
ENDCHAR
STARTCHAR uni1E3E
ENCODING 7742
SWIDTH 602 0
DWIDTH 10 0
BBX 9 15 1 0
BITMAP
0E00
1800
0000
E380
E380
F780
F780
F780
F780
F780
DD80
DD80
DD80
DD80
C180
ENDCHAR
STARTCHAR uni1E3F
ENCODING 7743
SWIDTH 602 0
DWIDTH 10 0
BBX 10 12 0 0
BITMAP
0700
0C00
0000
D9C0
FFC0
EEC0
CCC0
CCC0
CCC0
CCC0
CCC0
CCC0
ENDCHAR
STARTCHAR uni1E40
ENCODING 7744
SWIDTH 602 0
DWIDTH 10 0
BBX 9 15 1 0
BITMAP
0C00
0C00
0000
E380
E380
F780
F780
F780
F780
F780
DD80
DD80
DD80
DD80
C180
ENDCHAR
STARTCHAR uni1E41
ENCODING 7745
SWIDTH 602 0
DWIDTH 10 0
BBX 10 12 0 0
BITMAP
0C00
0C00
0000
D9C0
FFC0
EEC0
CCC0
CCC0
CCC0
CCC0
CCC0
CCC0
ENDCHAR
STARTCHAR uni1E42
ENCODING 7746
SWIDTH 602 0
DWIDTH 10 0
BBX 9 15 1 -3
BITMAP
E380
E380
F780
F780
F780
F780
F780
DD80
DD80
DD80
DD80
C180
0000
0C00
0C00
ENDCHAR
STARTCHAR uni1E43
ENCODING 7747
SWIDTH 602 0
DWIDTH 10 0
BBX 10 12 0 -3
BITMAP
D9C0
FFC0
EEC0
CCC0
CCC0
CCC0
CCC0
CCC0
CCC0
0000
0C00
0C00
ENDCHAR
STARTCHAR uni1E44
ENCODING 7748
SWIDTH 602 0
DWIDTH 10 0
BBX 8 15 1 0
BITMAP
18
18
00
E3
E3
E3
F3
F3
DB
DB
CF
CF
C7
C7
C3
ENDCHAR
STARTCHAR uni1E45
ENCODING 7749
SWIDTH 602 0
DWIDTH 10 0
BBX 8 12 1 0
BITMAP
18
18
00
DE
FF
E3
C3
C3
C3
C3
C3
C3
ENDCHAR
STARTCHAR uni1E46
ENCODING 7750
SWIDTH 602 0
DWIDTH 10 0
BBX 8 15 1 -3
BITMAP
E3
E3
E3
F3
F3
DB
DB
CF
CF
C7
C7
C3
00
18
18
ENDCHAR
STARTCHAR uni1E47
ENCODING 7751
SWIDTH 602 0
DWIDTH 10 0
BBX 8 12 1 -3
BITMAP
DE
FF
E3
C3
C3
C3
C3
C3
C3
00
18
18
ENDCHAR
STARTCHAR uni1E48
ENCODING 7752
SWIDTH 602 0
DWIDTH 10 0
BBX 8 15 1 -3
BITMAP
E3
E3
E3
F3
F3
DB
DB
CF
CF
C7
C7
C3
00
3E
3E
ENDCHAR
STARTCHAR uni1E49
ENCODING 7753
SWIDTH 602 0
DWIDTH 10 0
BBX 8 12 1 -3
BITMAP
DE
FF
E3
C3
C3
C3
C3
C3
C3
00
3E
3E
ENDCHAR
STARTCHAR uni1E4A
ENCODING 7754
SWIDTH 602 0
DWIDTH 10 0
BBX 8 15 1 -3
BITMAP
E3
E3
E3
F3
F3
DB
DB
CF
CF
C7
C7
C3
00
1C
36
ENDCHAR
STARTCHAR uni1E4B
ENCODING 7755
SWIDTH 602 0
DWIDTH 10 0
BBX 8 12 1 -3
BITMAP
DE
FF
E3
C3
C3
C3
C3
C3
C3
00
1C
36
ENDCHAR
STARTCHAR uni1E4C
ENCODING 7756
SWIDTH 602 0
DWIDTH 10 0
BBX 10 18 0 0
BITMAP
0700
0C00
0000
1F00
1F00
0000
1E00
7F80
6180
C0C0
C0C0
C0C0
C0C0
C0C0
C0C0
6180
7F80
1E00
ENDCHAR
STARTCHAR uni1E4D
ENCODING 7757
SWIDTH 602 0
DWIDTH 10 0
BBX 9 15 1 0
BITMAP
0E00
1800
0000
3E00
3E00
0000
3E00
7F00
E380
C180
C180
C180
E380
7F00
3E00
ENDCHAR
STARTCHAR uni1E4E
ENCODING 7758
SWIDTH 602 0
DWIDTH 10 0
BBX 10 18 0 0
BITMAP
1B00
1B00
0000
1F00
1F00
0000
1E00
7F80
6180
C0C0
C0C0
C0C0
C0C0
C0C0
C0C0
6180
7F80
1E00
ENDCHAR
STARTCHAR uni1E4F
ENCODING 7759
SWIDTH 602 0
DWIDTH 10 0
BBX 9 15 1 0
BITMAP
3600
3600
0000
3E00
3E00
0000
3E00
7F00
E380
C180
C180
C180
E380
7F00
3E00
ENDCHAR
STARTCHAR uni1E50
ENCODING 7760
SWIDTH 602 0
DWIDTH 10 0
BBX 10 18 0 0
BITMAP
1C00
0600
0000
1F00
1F00
0000
1E00
7F80
6180
C0C0
C0C0
C0C0
C0C0
C0C0
C0C0
6180
7F80
1E00
ENDCHAR
STARTCHAR uni1E51
ENCODING 7761
SWIDTH 602 0
DWIDTH 10 0
BBX 9 15 1 0
BITMAP
3800
0C00
0000
3E00
3E00
0000
3E00
7F00
E380
C180
C180
C180
E380
7F00
3E00
ENDCHAR
STARTCHAR uni1E52
ENCODING 7762
SWIDTH 602 0
DWIDTH 10 0
BBX 10 18 0 0
BITMAP
0700
0C00
0000
1F00
1F00
0000
1E00
7F80
6180
C0C0
C0C0
C0C0
C0C0
C0C0
C0C0
6180
7F80
1E00
ENDCHAR
STARTCHAR uni1E53
ENCODING 7763
SWIDTH 602 0
DWIDTH 10 0
BBX 9 15 1 0
BITMAP
0E00
1800
0000
3E00
3E00
0000
3E00
7F00
E380
C180
C180
C180
E380
7F00
3E00
ENDCHAR
STARTCHAR uni1E54
ENCODING 7764
SWIDTH 602 0
DWIDTH 10 0
BBX 9 15 1 0
BITMAP
0E00
1800
0000
FE00
FF00
C180
C180
C180
C380
FF00
FE00
C000
C000
C000
C000
ENDCHAR
STARTCHAR uni1E55
ENCODING 7765
SWIDTH 602 0
DWIDTH 10 0
BBX 9 15 1 -3
BITMAP
0E00
1800
0000
DE00
FF00
E380
C180
C180
C180
E380
FF00
DE00
C000
C000
C000
ENDCHAR
STARTCHAR uni1E56
ENCODING 7766
SWIDTH 602 0
DWIDTH 10 0
BBX 9 15 1 0
BITMAP
1800
1800
0000
FE00
FF00
C180
C180
C180
C380
FF00
FE00
C000
C000
C000
C000
ENDCHAR
STARTCHAR uni1E57
ENCODING 7767
SWIDTH 602 0
DWIDTH 10 0
BBX 9 15 1 -3
BITMAP
1800
1800
0000
DE00
FF00
E380
C180
C180
C180
E380
FF00
DE00
C000
C000
C000
ENDCHAR
STARTCHAR uni1E58
ENCODING 7768
SWIDTH 602 0
DWIDTH 10 0
BBX 8 15 1 0
BITMAP
18
18
00
FE
FF
C3
C3
C3
C6
FC
FC
CE
C6
C7
C3
ENDCHAR
STARTCHAR uni1E59
ENCODING 7769
SWIDTH 602 0
DWIDTH 10 0
BBX 7 12 2 0
BITMAP
18
18
00
DE
FE
E6
C6
C0
C0
C0
C0
C0
ENDCHAR
STARTCHAR uni1E5A
ENCODING 7770
SWIDTH 602 0
DWIDTH 10 0
BBX 8 15 1 -3
BITMAP
FE
FF
C3
C3
C3
C6
FC
FC
CE
C6
C7
C3
00
18
18
ENDCHAR
STARTCHAR uni1E5B
ENCODING 7771
SWIDTH 602 0
DWIDTH 10 0
BBX 7 12 2 -3
BITMAP
DE
FE
E6
C6
C0
C0
C0
C0
C0
00
60
60
ENDCHAR
STARTCHAR uni1E5C
ENCODING 7772
SWIDTH 602 0
DWIDTH 10 0
BBX 8 18 1 -3
BITMAP
7C
7C
00
FE
FF
C3
C3
C3
C6
FC
FC
CE
C6
C7
C3
00
18
18
ENDCHAR
STARTCHAR uni1E5D
ENCODING 7773
SWIDTH 602 0
DWIDTH 10 0
BBX 7 15 2 -3
BITMAP
7C
7C
00
DE
FE
E6
C6
C0
C0
C0
C0
C0
00
60
60
ENDCHAR
STARTCHAR uni1E5E
ENCODING 7774
SWIDTH 602 0
DWIDTH 10 0
BBX 8 15 1 -3
BITMAP
FE
FF
C3
C3
C3
C6
FC
FC
CE
C6
C7
C3
00
7C
7C
ENDCHAR
STARTCHAR uni1E5F
ENCODING 7775
SWIDTH 602 0
DWIDTH 10 0
BBX 8 12 1 -3
BITMAP
6F
7F
73
63
60
60
60
60
60
00
F8
F8
ENDCHAR
STARTCHAR uni1E60
ENCODING 7776
SWIDTH 602 0
DWIDTH 10 0
BBX 9 15 1 0
BITMAP
1800
1800
0000
3F00
7F00
C100
C000
F000
3C00
0F00
0380
0180
8380
FF00
FE00
ENDCHAR
STARTCHAR uni1E61
ENCODING 7777
SWIDTH 602 0
DWIDTH 10 0
BBX 8 12 1 0
BITMAP
18
18
00
3E
FE
E2
F8
7E
0F
83
FF
FC
ENDCHAR
STARTCHAR uni1E62
ENCODING 7778
SWIDTH 602 0
DWIDTH 10 0
BBX 9 15 1 -3
BITMAP
3F00
7F00
C100
C000
F000
3C00
0F00
0380
0180
8380
FF00
FE00
0000
0C00
0C00
ENDCHAR
STARTCHAR uni1E63
ENCODING 7779
SWIDTH 602 0
DWIDTH 10 0
BBX 8 12 1 -3
BITMAP
3E
FE
E2
F8
7E
0F
83
FF
FC
00
18
18
ENDCHAR
STARTCHAR uni1E64
ENCODING 7780
SWIDTH 602 0
DWIDTH 10 0
BBX 9 18 1 0
BITMAP
0C00
0C00
0000
0E00
1800
0000
3F00
7F00
C100
C000
F000
3C00
0F00
0380
0180
8380
FF00
FE00
ENDCHAR
STARTCHAR uni1E65
ENCODING 7781
SWIDTH 602 0
DWIDTH 10 0
BBX 8 15 1 0
BITMAP
18
18
00
1C
30
00
3E
FE
E2
F8
7E
0F
83
FF
FC
ENDCHAR
STARTCHAR uni1E66
ENCODING 7782
SWIDTH 602 0
DWIDTH 10 0
BBX 9 18 1 0
BITMAP
0C00
0C00
0000
3600
1C00
0000
3F00
7F00
C100
C000
F000
3C00
0F00
0380
0180
8380
FF00
FE00
ENDCHAR
STARTCHAR uni1E67
ENCODING 7783
SWIDTH 602 0
DWIDTH 10 0
BBX 8 15 1 0
BITMAP
18
18
00
6C
38
00
3E
FE
E2
F8
7E
0F
83
FF
FC
ENDCHAR
STARTCHAR uni1E68
ENCODING 7784
SWIDTH 602 0
DWIDTH 10 0
BBX 9 18 1 -3
BITMAP
1800
1800
0000
3F00
7F00
C100
C000
F000
3C00
0F00
0380
0180
8380
FF00
FE00
0000
0C00
0C00
ENDCHAR
STARTCHAR uni1E69
ENCODING 7785
SWIDTH 602 0
DWIDTH 10 0
BBX 8 15 1 -3
BITMAP
18
18
00
3E
FE
E2
F8
7E
0F
83
FF
FC
00
18
18
ENDCHAR
STARTCHAR uni1E6A
ENCODING 7786
SWIDTH 602 0
DWIDTH 10 0
BBX 10 15 0 0
BITMAP
0C00
0C00
0000
FFC0
FFC0
0C00
0C00
0C00
0C00
0C00
0C00
0C00
0C00
0C00
0C00
ENDCHAR
STARTCHAR uni1E6B
ENCODING 7787
SWIDTH 602 0
DWIDTH 10 0
BBX 8 14 1 0
BITMAP
18
18
00
30
30
FF
FF
30
30
30
30
30
3F
1F
ENDCHAR
STARTCHAR uni1E6C
ENCODING 7788
SWIDTH 602 0
DWIDTH 10 0
BBX 10 15 0 -3
BITMAP
FFC0
FFC0
0C00
0C00
0C00
0C00
0C00
0C00
0C00
0C00
0C00
0C00
0000
0C00
0C00
ENDCHAR
STARTCHAR uni1E6D
ENCODING 7789
SWIDTH 602 0
DWIDTH 10 0
BBX 8 14 1 -3
BITMAP
30
30
FF
FF
30
30
30
30
30
3F
1F
00
0C
0C
ENDCHAR
STARTCHAR uni1E6E
ENCODING 7790
SWIDTH 602 0
DWIDTH 10 0
BBX 10 15 0 -3
BITMAP
FFC0
FFC0
0C00
0C00
0C00
0C00
0C00
0C00
0C00
0C00
0C00
0C00
0000
1F00
1F00
ENDCHAR
STARTCHAR uni1E6F
ENCODING 7791
SWIDTH 602 0
DWIDTH 10 0
BBX 8 14 1 -3
BITMAP
30
30
FF
FF
30
30
30
30
30
3F
1F
00
3E
3E
ENDCHAR
STARTCHAR uni1E70
ENCODING 7792
SWIDTH 602 0
DWIDTH 10 0
BBX 10 15 0 -3
BITMAP
FFC0
FFC0
0C00
0C00
0C00
0C00
0C00
0C00
0C00
0C00
0C00
0C00
0000
0E00
1B00
ENDCHAR
STARTCHAR uni1E71
ENCODING 7793
SWIDTH 602 0
DWIDTH 10 0
BBX 8 14 1 -3
BITMAP
30
30
FF
FF
30
30
30
30
30
3F
1F
00
1C
36
ENDCHAR
STARTCHAR uni1E72
ENCODING 7794
SWIDTH 602 0
DWIDTH 10 0
BBX 8 15 1 -3
BITMAP
C3
C3
C3
C3
C3
C3
C3
C3
C3
C3
FE
7C
00
6C
6C
ENDCHAR
STARTCHAR uni1E73
ENCODING 7795
SWIDTH 602 0
DWIDTH 10 0
BBX 8 12 1 -3
BITMAP
C3
C3
C3
C3
C3
C3
C7
FF
7B
00
36
36
ENDCHAR
STARTCHAR uni1E74
ENCODING 7796
SWIDTH 602 0
DWIDTH 10 0
BBX 8 15 1 -3
BITMAP
C3
C3
C3
C3
C3
C3
C3
C3
C3
C3
FE
7C
00
7C
7C
ENDCHAR
STARTCHAR uni1E75
ENCODING 7797
SWIDTH 602 0
DWIDTH 10 0
BBX 8 12 1 -3
BITMAP
C3
C3
C3
C3
C3
C3
C7
FF
7B
00
3E
3E
ENDCHAR
STARTCHAR uni1E76
ENCODING 7798
SWIDTH 602 0
DWIDTH 10 0
BBX 8 15 1 -3
BITMAP
C3
C3
C3
C3
C3
C3
C3
C3
C3
C3
FE
7C
00
38
6C
ENDCHAR
STARTCHAR uni1E77
ENCODING 7799
SWIDTH 602 0
DWIDTH 10 0
BBX 8 12 1 -3
BITMAP
C3
C3
C3
C3
C3
C3
C7
FF
7B
00
1C
36
ENDCHAR
STARTCHAR uni1E78
ENCODING 7800
SWIDTH 602 0
DWIDTH 10 0
BBX 8 18 1 0
BITMAP
0E
18
00
3E
3E
00
C3
C3
C3
C3
C3
C3
C3
C3
C3
C3
FE
7C
ENDCHAR
STARTCHAR uni1E79
ENCODING 7801
SWIDTH 602 0
DWIDTH 10 0
BBX 8 15 1 0
BITMAP
0E
18
00
3E
3E
00
C3
C3
C3
C3
C3
C3
C7
FF
7B
ENDCHAR
STARTCHAR uni1E7A
ENCODING 7802
SWIDTH 602 0
DWIDTH 10 0
BBX 8 18 1 0
BITMAP
36
36
00
3E
3E
00
C3
C3
C3
C3
C3
C3
C3
C3
C3
C3
FE
7C
ENDCHAR
STARTCHAR uni1E7B
ENCODING 7803
SWIDTH 602 0
DWIDTH 10 0
BBX 8 15 1 0
BITMAP
36
36
00
3E
3E
00
C3
C3
C3
C3
C3
C3
C7
FF
7B
ENDCHAR
STARTCHAR uni1E7C
ENCODING 7804
SWIDTH 602 0
DWIDTH 10 0
BBX 10 15 0 0
BITMAP
3E00
3E00
0000
E0C0
60C0
6180
6180
3180
3300
3300
1B00
1E00
1E00
1E00
0C00
ENDCHAR
STARTCHAR uni1E7D
ENCODING 7805
SWIDTH 602 0
DWIDTH 10 0
BBX 10 12 0 0
BITMAP
3E00
3E00
0000
E0C0
6180
6180
3380
3300
1B00
1E00
1E00
0E00
ENDCHAR
STARTCHAR uni1E7E
ENCODING 7806
SWIDTH 602 0
DWIDTH 10 0
BBX 10 15 0 -3
BITMAP
E0C0
60C0
6180
6180
3180
3300
3300
1B00
1E00
1E00
1E00
0C00
0000
0C00
0C00
ENDCHAR
STARTCHAR uni1E7F
ENCODING 7807
SWIDTH 602 0
DWIDTH 10 0
BBX 10 12 0 -3
BITMAP
E0C0
6180
6180
3380
3300
1B00
1E00
1E00
0E00
0000
0C00
0C00
ENDCHAR
STARTCHAR Wgrave
ENCODING 7808
SWIDTH 602 0
DWIDTH 10 0
BBX 10 15 0 0
BITMAP
3800
0C00
0000
C0C0
CEC0
CEC0
DE80
7E80
7F80
7F80
7F80
7780
7300
7300
7300
ENDCHAR
STARTCHAR wgrave
ENCODING 7809
SWIDTH 602 0
DWIDTH 10 0
BBX 10 12 0 0
BITMAP
3800
0C00
0000
C0C0
CCC0
DEC0
7E80
7E80
7B80
7380
7380
7380
ENDCHAR
STARTCHAR Wacute
ENCODING 7810
SWIDTH 602 0
DWIDTH 10 0
BBX 10 15 0 0
BITMAP
0700
0C00
0000
C0C0
CEC0
CEC0
DE80
7E80
7F80
7F80
7F80
7780
7300
7300
7300
ENDCHAR
STARTCHAR wacute
ENCODING 7811
SWIDTH 602 0
DWIDTH 10 0
BBX 10 12 0 0
BITMAP
0700
0C00
0000
C0C0
CCC0
DEC0
7E80
7E80
7B80
7380
7380
7380
ENDCHAR
STARTCHAR Wdieresis
ENCODING 7812
SWIDTH 602 0
DWIDTH 10 0
BBX 10 15 0 0
BITMAP
3600
3600
0000
C0C0
CEC0
CEC0
DE80
7E80
7F80
7F80
7F80
7780
7300
7300
7300
ENDCHAR
STARTCHAR wdieresis
ENCODING 7813
SWIDTH 602 0
DWIDTH 10 0
BBX 10 12 0 0
BITMAP
1B00
1B00
0000
C0C0
CCC0
DEC0
7E80
7E80
7B80
7380
7380
7380
ENDCHAR
STARTCHAR uni1E86
ENCODING 7814
SWIDTH 602 0
DWIDTH 10 0
BBX 10 15 0 0
BITMAP
0C00
0C00
0000
C0C0
CEC0
CEC0
DE80
7E80
7F80
7F80
7F80
7780
7300
7300
7300
ENDCHAR
STARTCHAR uni1E87
ENCODING 7815
SWIDTH 602 0
DWIDTH 10 0
BBX 10 12 0 0
BITMAP
0C00
0C00
0000
C0C0
CCC0
DEC0
7E80
7E80
7B80
7380
7380
7380
ENDCHAR
STARTCHAR uni1E88
ENCODING 7816
SWIDTH 602 0
DWIDTH 10 0
BBX 10 15 0 -3
BITMAP
C0C0
CEC0
CEC0
DE80
7E80
7F80
7F80
7F80
7780
7300
7300
7300
0000
0C00
0C00
ENDCHAR
STARTCHAR uni1E89
ENCODING 7817
SWIDTH 602 0
DWIDTH 10 0
BBX 10 12 0 -3
BITMAP
C0C0
CCC0
DEC0
7E80
7E80
7B80
7380
7380
7380
0000
0C00
0C00
ENDCHAR
STARTCHAR uni1E8A
ENCODING 7818
SWIDTH 602 0
DWIDTH 10 0
BBX 10 15 0 0
BITMAP
0C00
0C00
0000
E1C0
7180
3300
3F00
1E00
0E00
1E00
1E00
3700
7300
6180
C1C0
ENDCHAR
STARTCHAR uni1E8B
ENCODING 7819
SWIDTH 602 0
DWIDTH 10 0
BBX 9 12 1 0
BITMAP
0C00
0C00
0000
E380
7700
3600
1C00
1C00
3C00
7600
6700
C380
ENDCHAR
STARTCHAR uni1E8C
ENCODING 7820
SWIDTH 602 0
DWIDTH 10 0
BBX 10 15 0 0
BITMAP
3600
3600
0000
E1C0
7180
3300
3F00
1E00
0E00
1E00
1E00
3700
7300
6180
C1C0
ENDCHAR
STARTCHAR uni1E8D
ENCODING 7821
SWIDTH 602 0
DWIDTH 10 0
BBX 9 12 1 0
BITMAP
3600
3600
0000
E380
7700
3600
1C00
1C00
3C00
7600
6700
C380
ENDCHAR
STARTCHAR uni1E8E
ENCODING 7822
SWIDTH 602 0
DWIDTH 10 0
BBX 10 15 0 0
BITMAP
0C00
0C00
0000
E0C0
6180
3380
3300
1F00
1E00
0E00
0C00
0C00
0C00
0C00
0C00
ENDCHAR
STARTCHAR uni1E8F
ENCODING 7823
SWIDTH 602 0
DWIDTH 10 0
BBX 10 15 0 -3
BITMAP
0C00
0C00
0000
E0C0
6180
3180
3300
1B00
1E00
0E00
0E00
0C00
1C00
7800
7000
ENDCHAR
STARTCHAR uni1E90
ENCODING 7824
SWIDTH 602 0
DWIDTH 10 0
BBX 9 15 0 0
BITMAP
1C00
3600
0000
FF80
FF80
0300
0600
0E00
0C00
1800
3800
3000
6000
FF80
FF80
ENDCHAR
STARTCHAR uni1E91
ENCODING 7825
SWIDTH 602 0
DWIDTH 10 0
BBX 8 12 1 0
BITMAP
1C
36
00
FF
FF
0E
1C
18
30
60
FF
FF
ENDCHAR
STARTCHAR uni1E92
ENCODING 7826
SWIDTH 602 0
DWIDTH 10 0
BBX 9 15 0 -3
BITMAP
FF80
FF80
0300
0600
0E00
0C00
1800
3800
3000
6000
FF80
FF80
0000
1800
1800
ENDCHAR
STARTCHAR uni1E93
ENCODING 7827
SWIDTH 602 0
DWIDTH 10 0
BBX 8 12 1 -3
BITMAP
FF
FF
0E
1C
18
30
60
FF
FF
00
18
18
ENDCHAR
STARTCHAR uni1E94
ENCODING 7828
SWIDTH 602 0
DWIDTH 10 0
BBX 9 15 0 -3
BITMAP
FF80
FF80
0300
0600
0E00
0C00
1800
3800
3000
6000
FF80
FF80
0000
3E00
3E00
ENDCHAR
STARTCHAR uni1E95
ENCODING 7829
SWIDTH 602 0
DWIDTH 10 0
BBX 8 12 1 -3
BITMAP
FF
FF
0E
1C
18
30
60
FF
FF
00
7C
7C
ENDCHAR
STARTCHAR uni1E96
ENCODING 7830
SWIDTH 602 0
DWIDTH 10 0
BBX 8 15 1 -3
BITMAP
C0
C0
C0
DE
FF
E3
C3
C3
C3
C3
C3
C3
00
3E
3E
ENDCHAR
STARTCHAR uni1E97
ENCODING 7831
SWIDTH 602 0
DWIDTH 10 0
BBX 8 14 1 0
BITMAP
6C
6C
00
30
30
FF
FF
30
30
30
30
30
3F
1F
ENDCHAR
STARTCHAR uni1E98
ENCODING 7832
SWIDTH 602 0
DWIDTH 10 0
BBX 10 12 0 0
BITMAP
0E00
0E00
0000
C0C0
CCC0
DEC0
7E80
7E80
7B80
7380
7380
7380
ENDCHAR
STARTCHAR uni1E99
ENCODING 7833
SWIDTH 602 0
DWIDTH 10 0
BBX 10 15 0 -3
BITMAP
1C00
1C00
0000
E0C0
6180
3180
3300
1B00
1E00
0E00
0E00
0C00
1C00
7800
7000
ENDCHAR
STARTCHAR uni1EA0
ENCODING 7840
SWIDTH 602 0
DWIDTH 10 0
BBX 10 15 0 -3
BITMAP
0C00
1E00
1E00
1E00
3700
3300
3300
7F80
7F80
6180
C180
C0C0
0000
0C00
0C00
ENDCHAR
STARTCHAR uni1EA1
ENCODING 7841
SWIDTH 602 0
DWIDTH 10 0
BBX 9 12 1 -3
BITMAP
7E00
7F00
4300
3F00
FF00
C300
C700
FF80
7B80
0000
0C00
0C00
ENDCHAR
STARTCHAR uni1EA4
ENCODING 7844
SWIDTH 602 0
DWIDTH 10 0
BBX 10 18 0 0
BITMAP
0700
0C00
0000
0E00
1B00
0000
0C00
1E00
1E00
1E00
3700
3300
3300
7F80
7F80
6180
C180
C0C0
ENDCHAR
STARTCHAR uni1EA5
ENCODING 7845
SWIDTH 602 0
DWIDTH 10 0
BBX 9 15 1 0
BITMAP
0E00
1800
0000
1C00
3600
0000
7E00
7F00
4300
3F00
FF00
C300
C700
FF80
7B80
ENDCHAR
STARTCHAR uni1EA6
ENCODING 7846
SWIDTH 602 0
DWIDTH 10 0
BBX 10 18 0 0
BITMAP
1C00
0600
0000
0E00
1B00
0000
0C00
1E00
1E00
1E00
3700
3300
3300
7F80
7F80
6180
C180
C0C0
ENDCHAR
STARTCHAR uni1EA7
ENCODING 7847
SWIDTH 602 0
DWIDTH 10 0
BBX 9 15 1 0
BITMAP
3800
0C00
0000
1C00
3600
0000
7E00
7F00
4300
3F00
FF00
C300
C700
FF80
7B80
ENDCHAR
STARTCHAR uni1EAA
ENCODING 7850
SWIDTH 602 0
DWIDTH 10 0
BBX 10 18 0 0
BITMAP
1F00
1F00
0000
0E00
1B00
0000
0C00
1E00
1E00
1E00
3700
3300
3300
7F80
7F80
6180
C180
C0C0
ENDCHAR
STARTCHAR uni1EAB
ENCODING 7851
SWIDTH 602 0
DWIDTH 10 0
BBX 9 15 1 0
BITMAP
3E00
3E00
0000
1C00
3600
0000
7E00
7F00
4300
3F00
FF00
C300
C700
FF80
7B80
ENDCHAR
STARTCHAR uni1EAC
ENCODING 7852
SWIDTH 602 0
DWIDTH 10 0
BBX 10 18 0 -3
BITMAP
0E00
1B00
0000
0C00
1E00
1E00
1E00
3700
3300
3300
7F80
7F80
6180
C180
C0C0
0000
0C00
0C00
ENDCHAR
STARTCHAR uni1EAD
ENCODING 7853
SWIDTH 602 0
DWIDTH 10 0
BBX 9 15 1 -3
BITMAP
1C00
3600
0000
7E00
7F00
4300
3F00
FF00
C300
C700
FF80
7B80
0000
0C00
0C00
ENDCHAR
STARTCHAR uni1EAE
ENCODING 7854
SWIDTH 602 0
DWIDTH 10 0
BBX 10 18 0 0
BITMAP
0700
0C00
0000
1B00
0E00
0000
0C00
1E00
1E00
1E00
3700
3300
3300
7F80
7F80
6180
C180
C0C0
ENDCHAR
STARTCHAR uni1EAF
ENCODING 7855
SWIDTH 602 0
DWIDTH 10 0
BBX 9 15 1 0
BITMAP
0E00
1800
0000
3600
1C00
0000
7E00
7F00
4300
3F00
FF00
C300
C700
FF80
7B80
ENDCHAR
STARTCHAR uni1EB0
ENCODING 7856
SWIDTH 602 0
DWIDTH 10 0
BBX 10 18 0 0
BITMAP
1C00
0600
0000
1B00
0E00
0000
0C00
1E00
1E00
1E00
3700
3300
3300
7F80
7F80
6180
C180
C0C0
ENDCHAR
STARTCHAR uni1EB1
ENCODING 7857
SWIDTH 602 0
DWIDTH 10 0
BBX 9 15 1 0
BITMAP
3800
0C00
0000
3600
1C00
0000
7E00
7F00
4300
3F00
FF00
C300
C700
FF80
7B80
ENDCHAR
STARTCHAR uni1EB4
ENCODING 7860
SWIDTH 602 0
DWIDTH 10 0
BBX 10 18 0 0
BITMAP
1F00
1F00
0000
1B00
0E00
0000
0C00
1E00
1E00
1E00
3700
3300
3300
7F80
7F80
6180
C180
C0C0
ENDCHAR
STARTCHAR uni1EB5
ENCODING 7861
SWIDTH 602 0
DWIDTH 10 0
BBX 9 15 1 0
BITMAP
3E00
3E00
0000
3600
1C00
0000
7E00
7F00
4300
3F00
FF00
C300
C700
FF80
7B80
ENDCHAR
STARTCHAR uni1EB6
ENCODING 7862
SWIDTH 602 0
DWIDTH 10 0
BBX 10 18 0 -3
BITMAP
1B00
0E00
0000
0C00
1E00
1E00
1E00
3700
3300
3300
7F80
7F80
6180
C180
C0C0
0000
0C00
0C00
ENDCHAR
STARTCHAR uni1EB7
ENCODING 7863
SWIDTH 602 0
DWIDTH 10 0
BBX 9 15 1 -3
BITMAP
3600
1C00
0000
7E00
7F00
4300
3F00
FF00
C300
C700
FF80
7B80
0000
0C00
0C00
ENDCHAR
STARTCHAR uni1EB8
ENCODING 7864
SWIDTH 602 0
DWIDTH 10 0
BBX 8 15 1 -3
BITMAP
FF
FF
C0
C0
C0
FE
FE
C0
C0
C0
FF
FF
00
18
18
ENDCHAR
STARTCHAR uni1EB9
ENCODING 7865
SWIDTH 602 0
DWIDTH 10 0
BBX 9 12 1 -3
BITMAP
3E00
7F00
E180
FF80
FF80
C000
E080
7F80
1F00
0000
0C00
0C00
ENDCHAR
STARTCHAR uni1EBC
ENCODING 7868
SWIDTH 602 0
DWIDTH 10 0
BBX 8 15 1 0
BITMAP
7C
7C
00
FF
FF
C0
C0
C0
FE
FE
C0
C0
C0
FF
FF
ENDCHAR
STARTCHAR uni1EBD
ENCODING 7869
SWIDTH 602 0
DWIDTH 10 0
BBX 9 12 1 0
BITMAP
3E00
3E00
0000
3E00
7F00
E180
FF80
FF80
C000
E080
7F80
1F00
ENDCHAR
STARTCHAR uni1EBE
ENCODING 7870
SWIDTH 602 0
DWIDTH 10 0
BBX 8 18 1 0
BITMAP
0E
18
00
1C
36
00
FF
FF
C0
C0
C0
FE
FE
C0
C0
C0
FF
FF
ENDCHAR
STARTCHAR uni1EBF
ENCODING 7871
SWIDTH 602 0
DWIDTH 10 0
BBX 9 15 1 0
BITMAP
0E00
1800
0000
1C00
3600
0000
3E00
7F00
E180
FF80
FF80
C000
E080
7F80
1F00
ENDCHAR
STARTCHAR uni1EC0
ENCODING 7872
SWIDTH 602 0
DWIDTH 10 0
BBX 8 18 1 0
BITMAP
70
18
00
1C
36
00
FF
FF
C0
C0
C0
FE
FE
C0
C0
C0
FF
FF
ENDCHAR
STARTCHAR uni1EC1
ENCODING 7873
SWIDTH 602 0
DWIDTH 10 0
BBX 9 15 1 0
BITMAP
3800
0C00
0000
1C00
3600
0000
3E00
7F00
E180
FF80
FF80
C000
E080
7F80
1F00
ENDCHAR
STARTCHAR uni1EC4
ENCODING 7876
SWIDTH 602 0
DWIDTH 10 0
BBX 8 18 1 0
BITMAP
3E
3E
00
1C
36
00
FF
FF
C0
C0
C0
FE
FE
C0
C0
C0
FF
FF
ENDCHAR
STARTCHAR uni1EC5
ENCODING 7877
SWIDTH 602 0
DWIDTH 10 0
BBX 9 15 1 0
BITMAP
3E00
3E00
0000
1C00
3600
0000
3E00
7F00
E180
FF80
FF80
C000
E080
7F80
1F00
ENDCHAR
STARTCHAR uni1EC6
ENCODING 7878
SWIDTH 602 0
DWIDTH 10 0
BBX 8 18 1 -3
BITMAP
38
6C
00
FF
FF
C0
C0
C0
FE
FE
C0
C0
C0
FF
FF
00
18
18
ENDCHAR
STARTCHAR uni1EC7
ENCODING 7879
SWIDTH 602 0
DWIDTH 10 0
BBX 9 15 1 -3
BITMAP
1C00
3600
0000
3E00
7F00
E180
FF80
FF80
C000
E080
7F80
1F00
0000
0C00
0C00
ENDCHAR
STARTCHAR uni1ECA
ENCODING 7882
SWIDTH 602 0
DWIDTH 10 0
BBX 8 15 1 -3
BITMAP
FF
FF
18
18
18
18
18
18
18
18
FF
FF
00
18
18
ENDCHAR
STARTCHAR uni1ECB
ENCODING 7883
SWIDTH 602 0
DWIDTH 10 0
BBX 5 15 2 -3
BITMAP
18
18
00
F8
F8
18
18
18
18
18
18
18
00
18
18
ENDCHAR
STARTCHAR uni1ECC
ENCODING 7884
SWIDTH 602 0
DWIDTH 10 0
BBX 10 15 0 -3
BITMAP
1E00
7F80
6180
C0C0
C0C0
C0C0
C0C0
C0C0
C0C0
6180
7F80
1E00
0000
0C00
0C00
ENDCHAR
STARTCHAR uni1ECD
ENCODING 7885
SWIDTH 602 0
DWIDTH 10 0
BBX 9 12 1 -3
BITMAP
3E00
7F00
E380
C180
C180
C180
E380
7F00
3E00
0000
0C00
0C00
ENDCHAR
STARTCHAR uni1ED0
ENCODING 7888
SWIDTH 602 0
DWIDTH 10 0
BBX 10 18 0 0
BITMAP
0E00
1800
0000
1C00
3600
0000
1E00
7F80
6180
C0C0
C0C0
C0C0
C0C0
C0C0
C0C0
6180
7F80
1E00
ENDCHAR
STARTCHAR uni1ED1
ENCODING 7889
SWIDTH 602 0
DWIDTH 10 0
BBX 9 15 1 0
BITMAP
0E00
1800
0000
1C00
3600
0000
3E00
7F00
E380
C180
C180
C180
E380
7F00
3E00
ENDCHAR
STARTCHAR uni1ED2
ENCODING 7890
SWIDTH 602 0
DWIDTH 10 0
BBX 10 18 0 0
BITMAP
3800
0C00
0000
1C00
3600
0000
1E00
7F80
6180
C0C0
C0C0
C0C0
C0C0
C0C0
C0C0
6180
7F80
1E00
ENDCHAR
STARTCHAR uni1ED3
ENCODING 7891
SWIDTH 602 0
DWIDTH 10 0
BBX 9 15 1 0
BITMAP
3800
0C00
0000
1C00
3600
0000
3E00
7F00
E380
C180
C180
C180
E380
7F00
3E00
ENDCHAR
STARTCHAR uni1ED6
ENCODING 7894
SWIDTH 602 0
DWIDTH 10 0
BBX 10 18 0 0
BITMAP
3E00
3E00
0000
1C00
3600
0000
1E00
7F80
6180
C0C0
C0C0
C0C0
C0C0
C0C0
C0C0
6180
7F80
1E00
ENDCHAR
STARTCHAR uni1ED7
ENCODING 7895
SWIDTH 602 0
DWIDTH 10 0
BBX 9 15 1 0
BITMAP
3E00
3E00
0000
1C00
3600
0000
3E00
7F00
E380
C180
C180
C180
E380
7F00
3E00
ENDCHAR
STARTCHAR uni1ED8
ENCODING 7896
SWIDTH 602 0
DWIDTH 10 0
BBX 10 18 0 -3
BITMAP
0E00
1B00
0000
1E00
7F80
6180
C0C0
C0C0
C0C0
C0C0
C0C0
C0C0
6180
7F80
1E00
0000
0C00
0C00
ENDCHAR
STARTCHAR uni1ED9
ENCODING 7897
SWIDTH 602 0
DWIDTH 10 0
BBX 9 15 1 -3
BITMAP
1C00
3600
0000
3E00
7F00
E380
C180
C180
C180
E380
7F00
3E00
0000
0C00
0C00
ENDCHAR
STARTCHAR uni1EDA
ENCODING 7898
SWIDTH 602 0
DWIDTH 10 0
BBX 12 15 0 0
BITMAP
0380
0600
0000
1E70
7FF0
61F0
C0F0
C0E0
C0C0
C0C0
C0C0
C0C0
6180
7F80
1E00
ENDCHAR
STARTCHAR uni1EDB
ENCODING 7899
SWIDTH 602 0
DWIDTH 10 0
BBX 11 12 1 0
BITMAP
0380
0600
0000
3EE0
7FE0
E3E0
C1E0
C1C0
C180
E380
7F00
3E00
ENDCHAR
STARTCHAR uni1EDC
ENCODING 7900
SWIDTH 602 0
DWIDTH 10 0
BBX 12 15 0 0
BITMAP
0E00
0300
0000
1E70
7FF0
61F0
C0F0
C0E0
C0C0
C0C0
C0C0
C0C0
6180
7F80
1E00
ENDCHAR
STARTCHAR uni1EDD
ENCODING 7901
SWIDTH 602 0
DWIDTH 10 0
BBX 11 12 1 0
BITMAP
1C00
0600
0000
3EE0
7FE0
E3E0
C1E0
C1C0
C180
E380
7F00
3E00
ENDCHAR
STARTCHAR uni1EE0
ENCODING 7904
SWIDTH 602 0
DWIDTH 10 0
BBX 12 15 0 0
BITMAP
0F80
0F80
0000
1E70
7FF0
61F0
C0F0
C0E0
C0C0
C0C0
C0C0
C0C0
6180
7F80
1E00
ENDCHAR
STARTCHAR uni1EE1
ENCODING 7905
SWIDTH 602 0
DWIDTH 10 0
BBX 11 12 1 0
BITMAP
1F00
1F00
0000
3EE0
7FE0
E3E0
C1E0
C1C0
C180
E380
7F00
3E00
ENDCHAR
STARTCHAR uni1EE2
ENCODING 7906
SWIDTH 602 0
DWIDTH 10 0
BBX 12 15 0 -3
BITMAP
1E70
7FF0
61F0
C0F0
C0E0
C0C0
C0C0
C0C0
C0C0
6180
7F80
1E00
0000
0C00
0C00
ENDCHAR
STARTCHAR uni1EE3
ENCODING 7907
SWIDTH 602 0
DWIDTH 10 0
BBX 11 12 1 -3
BITMAP
3EE0
7FE0
E3E0
C1E0
C1C0
C180
E380
7F00
3E00
0000
0C00
0C00
ENDCHAR
STARTCHAR uni1EE4
ENCODING 7908
SWIDTH 602 0
DWIDTH 10 0
BBX 8 15 1 -3
BITMAP
C3
C3
C3
C3
C3
C3
C3
C3
C3
C3
FE
7C
00
18
18
ENDCHAR
STARTCHAR uni1EE5
ENCODING 7909
SWIDTH 602 0
DWIDTH 10 0
BBX 8 12 1 -3
BITMAP
C3
C3
C3
C3
C3
C3
C7
FF
7B
00
18
18
ENDCHAR
STARTCHAR uni1EE8
ENCODING 7912
SWIDTH 602 0
DWIDTH 10 0
BBX 11 15 1 0
BITMAP
0380
0600
0000
C3E0
C3E0
C3E0
C3E0
C3C0
C300
C300
C300
C300
C300
FE00
7C00
ENDCHAR
STARTCHAR uni1EE9
ENCODING 7913
SWIDTH 602 0
DWIDTH 10 0
BBX 11 12 1 0
BITMAP
0380
0600
0000
C3E0
C3E0
C3E0
C3E0
C3C0
C300
C700
FF00
7B00
ENDCHAR
STARTCHAR uni1EEA
ENCODING 7914
SWIDTH 602 0
DWIDTH 10 0
BBX 11 15 1 0
BITMAP
1C00
0600
0000
C3E0
C3E0
C3E0
C3E0
C3C0
C300
C300
C300
C300
C300
FE00
7C00
ENDCHAR
STARTCHAR uni1EEB
ENCODING 7915
SWIDTH 602 0
DWIDTH 10 0
BBX 11 12 1 0
BITMAP
1C00
0600
0000
C3E0
C3E0
C3E0
C3E0
C3C0
C300
C700
FF00
7B00
ENDCHAR
STARTCHAR uni1EEE
ENCODING 7918
SWIDTH 602 0
DWIDTH 10 0
BBX 11 15 1 0
BITMAP
0F80
0F80
0000
C3E0
C3E0
C3E0
C3E0
C3C0
C300
C300
C300
C300
C300
FE00
7C00
ENDCHAR
STARTCHAR uni1EEF
ENCODING 7919
SWIDTH 602 0
DWIDTH 10 0
BBX 11 12 1 0
BITMAP
0F80
0F80
0000
C3E0
C3E0
C3E0
C3E0
C3C0
C300
C700
FF00
7B00
ENDCHAR
STARTCHAR uni1EF0
ENCODING 7920
SWIDTH 602 0
DWIDTH 10 0
BBX 11 15 1 -3
BITMAP
C3E0
C3E0
C3E0
C3E0
C3C0
C300
C300
C300
C300
C300
FE00
7C00
0000
1800
1800
ENDCHAR
STARTCHAR uni1EF1
ENCODING 7921
SWIDTH 602 0
DWIDTH 10 0
BBX 11 12 1 -3
BITMAP
C3E0
C3E0
C3E0
C3E0
C3C0
C300
C700
FF00
7B00
0000
0C00
0C00
ENDCHAR
STARTCHAR Ygrave
ENCODING 7922
SWIDTH 602 0
DWIDTH 10 0
BBX 10 15 0 0
BITMAP
3800
0C00
0000
E0C0
6180
3380
3300
1F00
1E00
0E00
0C00
0C00
0C00
0C00
0C00
ENDCHAR
STARTCHAR ygrave
ENCODING 7923
SWIDTH 602 0
DWIDTH 10 0
BBX 10 15 0 -3
BITMAP
3800
0C00
0000
E0C0
6180
3180
3300
1B00
1E00
0E00
0E00
0C00
1C00
7800
7000
ENDCHAR
STARTCHAR uni1EF4
ENCODING 7924
SWIDTH 602 0
DWIDTH 10 0
BBX 10 15 0 -3
BITMAP
E0C0
6180
3380
3300
1F00
1E00
0E00
0C00
0C00
0C00
0C00
0C00
0000
0C00
0C00
ENDCHAR
STARTCHAR uni1EF5
ENCODING 7925
SWIDTH 602 0
DWIDTH 10 0
BBX 10 15 0 -6
BITMAP
E0C0
6180
3180
3300
1B00
1E00
0E00
0E00
0C00
1C00
7800
7000
0000
1800
1800
ENDCHAR
STARTCHAR uni1EF8
ENCODING 7928
SWIDTH 602 0
DWIDTH 10 0
BBX 10 15 0 0
BITMAP
1F00
1F00
0000
E0C0
6180
3380
3300
1F00
1E00
0E00
0C00
0C00
0C00
0C00
0C00
ENDCHAR
STARTCHAR uni1EF9
ENCODING 7929
SWIDTH 602 0
DWIDTH 10 0
BBX 10 15 0 -3
BITMAP
3E00
3E00
0000
E0C0
6180
3180
3300
1B00
1E00
0E00
0E00
0C00
1C00
7800
7000
ENDCHAR
STARTCHAR uni2000
ENCODING 8192
SWIDTH 602 0
DWIDTH 10 0
BBX 1 1 0 0
BITMAP
00
ENDCHAR
STARTCHAR uni2001
ENCODING 8193
SWIDTH 602 0
DWIDTH 10 0
BBX 1 1 0 0
BITMAP
00
ENDCHAR
STARTCHAR uni2002
ENCODING 8194
SWIDTH 602 0
DWIDTH 10 0
BBX 1 1 0 0
BITMAP
00
ENDCHAR
STARTCHAR uni2003
ENCODING 8195
SWIDTH 602 0
DWIDTH 10 0
BBX 1 1 0 0
BITMAP
00
ENDCHAR
STARTCHAR uni2004
ENCODING 8196
SWIDTH 602 0
DWIDTH 10 0
BBX 1 1 0 0
BITMAP
00
ENDCHAR
STARTCHAR uni2005
ENCODING 8197
SWIDTH 602 0
DWIDTH 10 0
BBX 1 1 0 0
BITMAP
00
ENDCHAR
STARTCHAR uni2006
ENCODING 8198
SWIDTH 602 0
DWIDTH 10 0
BBX 1 1 0 0
BITMAP
00
ENDCHAR
STARTCHAR uni2007
ENCODING 8199
SWIDTH 602 0
DWIDTH 10 0
BBX 1 1 0 0
BITMAP
00
ENDCHAR
STARTCHAR uni2008
ENCODING 8200
SWIDTH 602 0
DWIDTH 10 0
BBX 1 1 0 0
BITMAP
00
ENDCHAR
STARTCHAR uni2009
ENCODING 8201
SWIDTH 602 0
DWIDTH 10 0
BBX 1 1 0 0
BITMAP
00
ENDCHAR
STARTCHAR uni200A
ENCODING 8202
SWIDTH 602 0
DWIDTH 10 0
BBX 1 1 0 0
BITMAP
00
ENDCHAR
STARTCHAR uni2010
ENCODING 8208
SWIDTH 602 0
DWIDTH 10 0
BBX 7 2 2 4
BITMAP
FE
FE
ENDCHAR
STARTCHAR uni2011
ENCODING 8209
SWIDTH 602 0
DWIDTH 10 0
BBX 7 2 2 4
BITMAP
FE
FE
ENDCHAR
STARTCHAR figuredash
ENCODING 8210
SWIDTH 602 0
DWIDTH 10 0
BBX 8 2 1 4
BITMAP
FF
FF
ENDCHAR
STARTCHAR endash
ENCODING 8211
SWIDTH 602 0
DWIDTH 10 0
BBX 8 2 1 4
BITMAP
FF
FF
ENDCHAR
STARTCHAR emdash
ENCODING 8212
SWIDTH 602 0
DWIDTH 10 0
BBX 9 2 1 4
BITMAP
FF80
FF80
ENDCHAR
STARTCHAR afii00208
ENCODING 8213
SWIDTH 602 0
DWIDTH 10 0
BBX 9 2 1 4
BITMAP
FF80
FF80
ENDCHAR
STARTCHAR quoteleft
ENCODING 8216
SWIDTH 602 0
DWIDTH 10 0
BBX 3 5 4 7
BITMAP
60
E0
E0
E0
E0
ENDCHAR
STARTCHAR quoteright
ENCODING 8217
SWIDTH 602 0
DWIDTH 10 0
BBX 3 5 4 7
BITMAP
E0
E0
E0
E0
C0
ENDCHAR
STARTCHAR quotesinglbase
ENCODING 8218
SWIDTH 602 0
DWIDTH 10 0
BBX 3 6 4 -3
BITMAP
E0
E0
E0
60
E0
C0
ENDCHAR
STARTCHAR quotereversed
ENCODING 8219
SWIDTH 602 0
DWIDTH 10 0
BBX 3 5 4 7
BITMAP
E0
E0
E0
E0
60
ENDCHAR
STARTCHAR quotedblleft
ENCODING 8220
SWIDTH 602 0
DWIDTH 10 0
BBX 7 4 2 8
BITMAP
C6
CC
CE
CE
ENDCHAR
STARTCHAR quotedblright
ENCODING 8221
SWIDTH 602 0
DWIDTH 10 0
BBX 7 4 2 8
BITMAP
C6
C6
C6
C6
ENDCHAR
STARTCHAR quotedblbase
ENCODING 8222
SWIDTH 602 0
DWIDTH 10 0
BBX 7 6 2 -3
BITMAP
C6
C6
C6
C6
C6
84
ENDCHAR
STARTCHAR uni201F
ENCODING 8223
SWIDTH 602 0
DWIDTH 10 0
BBX 7 4 2 8
BITMAP
C6
C6
C6
C6
ENDCHAR
STARTCHAR dagger
ENCODING 8224
SWIDTH 602 0
DWIDTH 10 0
BBX 6 15 2 -3
BITMAP
30
30
30
30
FC
FC
30
30
30
30
30
30
30
30
30
ENDCHAR
STARTCHAR daggerdbl
ENCODING 8225
SWIDTH 602 0
DWIDTH 10 0
BBX 6 15 2 -3
BITMAP
30
30
30
30
FC
FC
30
30
30
FC
FC
30
30
30
30
ENDCHAR
STARTCHAR bullet
ENCODING 8226
SWIDTH 602 0
DWIDTH 10 0
BBX 7 7 2 1
BITMAP
FE
FE
FE
FE
FE
FE
FE
ENDCHAR
STARTCHAR ellipsis
ENCODING 8230
SWIDTH 602 0
DWIDTH 10 0
BBX 9 2 1 0
BITMAP
CD80
CD80
ENDCHAR
STARTCHAR perthousand
ENCODING 8240
SWIDTH 602 0
DWIDTH 10 0
BBX 10 12 0 0
BITMAP
F400
F800
F800
F800
F000
1000
2000
3FC0
5FC0
5FC0
5FC0
9FC0
ENDCHAR
STARTCHAR guilsinglleft
ENCODING 8249
SWIDTH 602 0
DWIDTH 10 0
BBX 5 8 3 1
BITMAP
10
38
70
60
E0
70
38
10
ENDCHAR
STARTCHAR guilsinglright
ENCODING 8250
SWIDTH 602 0
DWIDTH 10 0
BBX 5 8 3 1
BITMAP
40
E0
70
38
30
70
E0
40
ENDCHAR
STARTCHAR uni203D
ENCODING 8253
SWIDTH 602 0
DWIDTH 10 0
BBX 8 12 1 0
BITMAP
7C
FF
DB
DB
1F
1E
3C
38
30
00
38
38
ENDCHAR
STARTCHAR fraction
ENCODING 8260
SWIDTH 602 0
DWIDTH 10 0
BBX 10 12 0 0
BITMAP
00C0
0180
0380
0300
0600
0E00
1C00
1800
3000
7000
6000
C000
ENDCHAR
STARTCHAR oneinferior
ENCODING 8321
SWIDTH 602 0
DWIDTH 10 0
BBX 3 6 -2 -3
BITMAP
C0
40
40
40
40
E0
ENDCHAR
STARTCHAR twoinferior
ENCODING 8322
SWIDTH 602 0
DWIDTH 10 0
BBX 4 6 -1 -3
BITMAP
E0
10
10
60
C0
F0
ENDCHAR
STARTCHAR threeinferior
ENCODING 8323
SWIDTH 602 0
DWIDTH 10 0
BBX 3 6 -2 -3
BITMAP
E0
20
C0
20
20
C0
ENDCHAR
STARTCHAR uni20A5
ENCODING 8357
SWIDTH 602 0
DWIDTH 10 0
BBX 10 15 0 -3
BITMAP
00C0
0180
0380
DBC0
FFC0
EEC0
CEC0
CCC0
DCC0
DCC0
FCC0
FCC0
6000
6000
C000
ENDCHAR
STARTCHAR uni20A6
ENCODING 8358
SWIDTH 602 0
DWIDTH 10 0
BBX 9 12 1 0
BITMAP
E300
E300
E300
FF80
FF80
DB00
DB00
FF80
FF80
C700
C700
C300
ENDCHAR
STARTCHAR uni20A9
ENCODING 8361
SWIDTH 602 0
DWIDTH 10 0
BBX 10 12 0 0
BITMAP
C0C0
CEC0
CEC0
FFC0
7FC0
7F80
7F80
7FC0
7FC0
7300
7300
7300
ENDCHAR
STARTCHAR Euro
ENCODING 8364
SWIDTH 602 0
DWIDTH 10 0
BBX 11 12 -1 0
BITMAP
07E0
0FE0
1C20
FF80
FF80
3000
3000
FF80
FF80
1C20
0FE0
07C0
ENDCHAR
STARTCHAR uni20AD
ENCODING 8365
SWIDTH 602 0
DWIDTH 10 0
BBX 9 12 1 0
BITMAP
C380
C700
CE00
DC00
D800
FF80
FF80
D800
CC00
CE00
C700
C380
ENDCHAR
STARTCHAR trademark
ENCODING 8482
SWIDTH 602 0
DWIDTH 10 0
BBX 10 6 0 6
BITMAP
FCC0
FEC0
6FC0
6FC0
6EC0
6CC0
ENDCHAR
STARTCHAR uni212A
ENCODING 8490
SWIDTH 602 0
DWIDTH 10 0
BBX 9 12 1 0
BITMAP
C380
C700
CE00
DC00
D800
F000
F800
D800
CC00
CE00
C700
C380
ENDCHAR
STARTCHAR uni212B
ENCODING 8491
SWIDTH 602 0
DWIDTH 10 0
BBX 10 15 0 0
BITMAP
0E00
0E00
0000
0C00
1E00
1E00
1E00
3700
3300
3300
7F80
7F80
6180
C180
C0C0
ENDCHAR
STARTCHAR uni2132
ENCODING 8498
SWIDTH 602 0
DWIDTH 10 0
BBX 8 12 2 0
BITMAP
03
03
03
03
03
7F
7F
03
03
03
FF
FF
ENDCHAR
STARTCHAR universal
ENCODING 8704
SWIDTH 602 0
DWIDTH 10 0
BBX 10 12 0 0
BITMAP
C0C0
C180
6180
7F80
7F80
3300
3300
3700
1E00
1E00
1E00
0C00
ENDCHAR
STARTCHAR existential
ENCODING 8707
SWIDTH 602 0
DWIDTH 10 0
BBX 8 12 1 0
BITMAP
FF
FF
03
03
03
7F
7F
03
03
03
FF
FF
ENDCHAR
STARTCHAR uni2204
ENCODING 8708
SWIDTH 602 0
DWIDTH 10 0
BBX 10 15 0 -1
BITMAP
00C0
0180
7F80
7F80
0780
0780
0F80
3F80
3F80
1980
3980
3180
7F80
7F80
C000
ENDCHAR
STARTCHAR minus
ENCODING 8722
SWIDTH 602 0
DWIDTH 10 0
BBX 9 2 1 3
BITMAP
FF80
FF80
ENDCHAR
STARTCHAR fraction
ENCODING 8725
SWIDTH 602 0
DWIDTH 10 0
BBX 10 12 0 0
BITMAP
00C0
0180
0380
0300
0600
0E00
1C00
1800
3000
7000
6000
C000
ENDCHAR
STARTCHAR periodcentered
ENCODING 8729
SWIDTH 602 0
DWIDTH 10 0
BBX 2 2 4 3
BITMAP
C0
C0
ENDCHAR
STARTCHAR uni2236
ENCODING 8758
SWIDTH 602 0
DWIDTH 10 0
BBX 2 9 4 0
BITMAP
C0
C0
00
00
00
00
00
C0
C0
ENDCHAR
STARTCHAR uni2259
ENCODING 8793
SWIDTH 602 0
DWIDTH 10 0
BBX 9 9 1 1
BITMAP
1C00
3600
0000
FF80
FF80
0000
0000
FF80
FF80
ENDCHAR
STARTCHAR uni225A
ENCODING 8794
SWIDTH 602 0
DWIDTH 10 0
BBX 9 9 1 1
BITMAP
3600
1C00
0000
FF80
FF80
0000
0000
FF80
FF80
ENDCHAR
STARTCHAR notequal
ENCODING 8800
SWIDTH 602 0
DWIDTH 10 0
BBX 10 15 1 -3
BITMAP
00C0
0180
0380
0300
0700
FF80
FF80
0C00
1C00
FF80
FF80
3000
6000
6000
C000
ENDCHAR
STARTCHAR equivalence
ENCODING 8801
SWIDTH 602 0
DWIDTH 10 0
BBX 9 8 0 0
BITMAP
FF80
FF80
0000
FF80
FF80
0000
FF80
FF80
ENDCHAR
STARTCHAR uni2262
ENCODING 8802
SWIDTH 602 0
DWIDTH 10 0
BBX 10 15 0 -3
BITMAP
00C0
0180
0380
0300
FF80
FF80
0E00
FF80
FF80
1800
FF80
FF80
6000
6000
C000
ENDCHAR
STARTCHAR lessequal
ENCODING 8804
SWIDTH 602 0
DWIDTH 10 0
BBX 9 12 1 -3
BITMAP
0080
0380
0F00
3C00
F000
3C00
0F00
0380
0080
0000
FF80
FF80
ENDCHAR
STARTCHAR greaterequal
ENCODING 8805
SWIDTH 602 0
DWIDTH 10 0
BBX 9 12 1 -3
BITMAP
8000
E000
7800
1E00
0780
1E00
7800
E000
8000
0000
FF80
FF80
ENDCHAR
STARTCHAR uni226E
ENCODING 8814
SWIDTH 602 0
DWIDTH 10 0
BBX 10 15 1 -3
BITMAP
00C0
0180
0380
0380
0780
0F00
3E00
FC00
3C00
1F00
3B80
3080
6000
6000
C000
ENDCHAR
STARTCHAR uni226F
ENCODING 8815
SWIDTH 602 0
DWIDTH 10 0
BBX 10 15 1 -3
BITMAP
00C0
0180
0380
8300
E700
7E00
1E00
0F80
1E00
7800
F800
B000
6000
6000
C000
ENDCHAR
STARTCHAR uni2270
ENCODING 8816
SWIDTH 602 0
DWIDTH 10 0
BBX 10 15 1 -4
BITMAP
00C0
0180
0380
0380
0F00
3E00
FE00
3C00
1F00
1B80
3880
3000
FF80
FF80
C000
ENDCHAR
STARTCHAR uni2271
ENCODING 8817
SWIDTH 602 0
DWIDTH 10 0
BBX 10 15 1 -4
BITMAP
00C0
0180
8380
E300
7F00
1E00
0F80
1E00
7C00
F800
B800
3000
FF80
FF80
C000
ENDCHAR
STARTCHAR SF100000
ENCODING 9472
SWIDTH 602 0
DWIDTH 10 0
BBX 10 2 0 5
BITMAP
FFC0
FFC0
ENDCHAR
STARTCHAR uni2501
ENCODING 9473
SWIDTH 602 0
DWIDTH 10 0
BBX 10 6 0 3
BITMAP
FFC0
FFC0
FFC0
FFC0
FFC0
FFC0
ENDCHAR
STARTCHAR SF110000
ENCODING 9474
SWIDTH 602 0
DWIDTH 10 0
BBX 2 18 4 -3
BITMAP
C0
C0
C0
C0
C0
C0
C0
C0
C0
C0
C0
C0
C0
C0
C0
C0
C0
C0
ENDCHAR
STARTCHAR uni2503
ENCODING 9475
SWIDTH 602 0
DWIDTH 10 0
BBX 6 18 2 -3
BITMAP
FC
FC
FC
FC
FC
FC
FC
FC
FC
FC
FC
FC
FC
FC
FC
FC
FC
FC
ENDCHAR
STARTCHAR SF010000
ENCODING 9484
SWIDTH 602 0
DWIDTH 10 0
BBX 6 10 4 -3
BITMAP
FC
FC
C0
C0
C0
C0
C0
C0
C0
C0
ENDCHAR
STARTCHAR uni250D
ENCODING 9485
SWIDTH 602 0
DWIDTH 10 0
BBX 8 12 2 -3
BITMAP
FF
FF
FF
FF
FF
FF
30
30
30
30
30
30
ENDCHAR
STARTCHAR uni250E
ENCODING 9486
SWIDTH 602 0
DWIDTH 10 0
BBX 8 12 2 -3
BITMAP
FC
FC
FF
FF
FC
FC
FC
FC
FC
FC
FC
FC
ENDCHAR
STARTCHAR uni250F
ENCODING 9487
SWIDTH 602 0
DWIDTH 10 0
BBX 8 12 2 -3
BITMAP
FF
FF
FF
FF
FF
FF
FC
FC
FC
FC
FC
FC
ENDCHAR
STARTCHAR SF030000
ENCODING 9488
SWIDTH 602 0
DWIDTH 10 0
BBX 6 10 0 -3
BITMAP
FC
FC
0C
0C
0C
0C
0C
0C
0C
0C
ENDCHAR
STARTCHAR uni2511
ENCODING 9489
SWIDTH 602 0
DWIDTH 10 0
BBX 8 12 0 -3
BITMAP
FF
FF
FF
FF
FF
FF
0C
0C
0C
0C
0C
0C
ENDCHAR
STARTCHAR uni2512
ENCODING 9490
SWIDTH 602 0
DWIDTH 10 0
BBX 8 12 0 -3
BITMAP
3F
3F
FF
FF
3F
3F
3F
3F
3F
3F
3F
3F
ENDCHAR
STARTCHAR uni2513
ENCODING 9491
SWIDTH 602 0
DWIDTH 10 0
BBX 8 12 0 -3
BITMAP
FF
FF
FF
FF
FF
FF
3F
3F
3F
3F
3F
3F
ENDCHAR
STARTCHAR SF020000
ENCODING 9492
SWIDTH 602 0
DWIDTH 10 0
BBX 6 10 4 5
BITMAP
C0
C0
C0
C0
C0
C0
C0
C0
FC
FC
ENDCHAR
STARTCHAR uni2515
ENCODING 9493
SWIDTH 602 0
DWIDTH 10 0
BBX 8 12 2 3
BITMAP
30
30
30
30
30
30
FF
FF
FF
FF
FF
FF
ENDCHAR
STARTCHAR uni2516
ENCODING 9494
SWIDTH 602 0
DWIDTH 10 0
BBX 8 12 2 3
BITMAP
FC
FC
FC
FC
FC
FC
FC
FC
FF
FF
FC
FC
ENDCHAR
STARTCHAR uni2517
ENCODING 9495
SWIDTH 602 0
DWIDTH 10 0
BBX 8 12 2 3
BITMAP
FC
FC
FC
FC
FC
FC
FF
FF
FF
FF
FF
FF
ENDCHAR
STARTCHAR SF040000
ENCODING 9496
SWIDTH 602 0
DWIDTH 10 0
BBX 6 10 0 5
BITMAP
0C
0C
0C
0C
0C
0C
0C
0C
FC
FC
ENDCHAR
STARTCHAR uni2519
ENCODING 9497
SWIDTH 602 0
DWIDTH 10 0
BBX 8 12 0 3
BITMAP
0C
0C
0C
0C
0C
0C
FF
FF
FF
FF
FF
FF
ENDCHAR
STARTCHAR uni251A
ENCODING 9498
SWIDTH 602 0
DWIDTH 10 0
BBX 8 12 0 3
BITMAP
3F
3F
3F
3F
3F
3F
3F
3F
FF
FF
3F
3F
ENDCHAR
STARTCHAR uni251B
ENCODING 9499
SWIDTH 602 0
DWIDTH 10 0
BBX 8 12 0 3
BITMAP
3F
3F
3F
3F
3F
3F
FF
FF
FF
FF
FF
FF
ENDCHAR
STARTCHAR SF080000
ENCODING 9500
SWIDTH 602 0
DWIDTH 10 0
BBX 6 18 4 -3
BITMAP
C0
C0
C0
C0
C0
C0
C0
C0
FC
FC
C0
C0
C0
C0
C0
C0
C0
C0
ENDCHAR
STARTCHAR uni251D
ENCODING 9501
SWIDTH 602 0
DWIDTH 10 0
BBX 8 18 2 -3
BITMAP
30
30
30
30
30
30
FF
FF
FF
FF
FF
FF
30
30
30
30
30
30
ENDCHAR
STARTCHAR uni251E
ENCODING 9502
SWIDTH 602 0
DWIDTH 10 0
BBX 8 18 2 -3
BITMAP
FC
FC
FC
FC
FC
FC
FC
FC
FF
FF
FC
FC
30
30
30
30
30
30
ENDCHAR
STARTCHAR uni251F
ENCODING 9503
SWIDTH 602 0
DWIDTH 10 0
BBX 8 18 2 -3
BITMAP
30
30
30
30
30
30
FC
FC
FF
FF
FC
FC
FC
FC
FC
FC
FC
FC
ENDCHAR
STARTCHAR uni2520
ENCODING 9504
SWIDTH 602 0
DWIDTH 10 0
BBX 8 18 2 -3
BITMAP
FC
FC
FC
FC
FC
FC
FC
FC
FF
FF
FC
FC
FC
FC
FC
FC
FC
FC
ENDCHAR
STARTCHAR uni2521
ENCODING 9505
SWIDTH 602 0
DWIDTH 10 0
BBX 8 18 2 -3
BITMAP
FC
FC
FC
FC
FC
FC
FF
FF
FF
FF
FF
FF
30
30
30
30
30
30
ENDCHAR
STARTCHAR uni2522
ENCODING 9506
SWIDTH 602 0
DWIDTH 10 0
BBX 8 18 2 -3
BITMAP
30
30
30
30
30
30
FF
FF
FF
FF
FF
FF
FC
FC
FC
FC
FC
FC
ENDCHAR
STARTCHAR uni2523
ENCODING 9507
SWIDTH 602 0
DWIDTH 10 0
BBX 8 18 2 -3
BITMAP
FC
FC
FC
FC
FC
FC
FF
FF
FF
FF
FF
FF
FC
FC
FC
FC
FC
FC
ENDCHAR
STARTCHAR SF090000
ENCODING 9508
SWIDTH 602 0
DWIDTH 10 0
BBX 6 18 0 -3
BITMAP
0C
0C
0C
0C
0C
0C
0C
0C
FC
FC
0C
0C
0C
0C
0C
0C
0C
0C
ENDCHAR
STARTCHAR uni2525
ENCODING 9509
SWIDTH 602 0
DWIDTH 10 0
BBX 8 18 0 -3
BITMAP
0C
0C
0C
0C
0C
0C
FF
FF
FF
FF
FF
FF
0C
0C
0C
0C
0C
0C
ENDCHAR
STARTCHAR uni2526
ENCODING 9510
SWIDTH 602 0
DWIDTH 10 0
BBX 8 18 0 -3
BITMAP
3F
3F
3F
3F
3F
3F
3F
3F
FF
FF
3F
3F
0C
0C
0C
0C
0C
0C
ENDCHAR
STARTCHAR uni2527
ENCODING 9511
SWIDTH 602 0
DWIDTH 10 0
BBX 8 18 0 -3
BITMAP
0C
0C
0C
0C
0C
0C
3F
3F
FF
FF
3F
3F
3F
3F
3F
3F
3F
3F
ENDCHAR
STARTCHAR uni2528
ENCODING 9512
SWIDTH 602 0
DWIDTH 10 0
BBX 8 18 0 -3
BITMAP
3F
3F
3F
3F
3F
3F
3F
3F
FF
FF
3F
3F
3F
3F
3F
3F
3F
3F
ENDCHAR
STARTCHAR uni2529
ENCODING 9513
SWIDTH 602 0
DWIDTH 10 0
BBX 8 18 0 -3
BITMAP
3F
3F
3F
3F
3F
3F
FF
FF
FF
FF
FF
FF
0C
0C
0C
0C
0C
0C
ENDCHAR
STARTCHAR uni252A
ENCODING 9514
SWIDTH 602 0
DWIDTH 10 0
BBX 8 18 0 -3
BITMAP
0C
0C
0C
0C
0C
0C
FF
FF
FF
FF
FF
FF
3F
3F
3F
3F
3F
3F
ENDCHAR
STARTCHAR uni252B
ENCODING 9515
SWIDTH 602 0
DWIDTH 10 0
BBX 8 18 0 -3
BITMAP
3F
3F
3F
3F
3F
3F
FF
FF
FF
FF
FF
FF
3F
3F
3F
3F
3F
3F
ENDCHAR
STARTCHAR SF060000
ENCODING 9516
SWIDTH 602 0
DWIDTH 10 0
BBX 10 10 0 -3
BITMAP
FFC0
FFC0
0C00
0C00
0C00
0C00
0C00
0C00
0C00
0C00
ENDCHAR
STARTCHAR uni252D
ENCODING 9517
SWIDTH 602 0
DWIDTH 10 0
BBX 10 12 0 -3
BITMAP
FF00
FF00
FFC0
FFC0
FF00
FF00
0C00
0C00
0C00
0C00
0C00
0C00
ENDCHAR
STARTCHAR uni252E
ENCODING 9518
SWIDTH 602 0
DWIDTH 10 0
BBX 10 12 0 -3
BITMAP
3FC0
3FC0
FFC0
FFC0
3FC0
3FC0
0C00
0C00
0C00
0C00
0C00
0C00
ENDCHAR
STARTCHAR uni252F
ENCODING 9519
SWIDTH 602 0
DWIDTH 10 0
BBX 10 12 0 -3
BITMAP
FFC0
FFC0
FFC0
FFC0
FFC0
FFC0
0C00
0C00
0C00
0C00
0C00
0C00
ENDCHAR
STARTCHAR uni2530
ENCODING 9520
SWIDTH 602 0
DWIDTH 10 0
BBX 10 12 0 -3
BITMAP
3F00
3F00
FFC0
FFC0
3F00
3F00
3F00
3F00
3F00
3F00
3F00
3F00
ENDCHAR
STARTCHAR uni2531
ENCODING 9521
SWIDTH 602 0
DWIDTH 10 0
BBX 10 12 0 -3
BITMAP
FF00
FF00
FFC0
FFC0
FF00
FF00
3F00
3F00
3F00
3F00
3F00
3F00
ENDCHAR
STARTCHAR uni2532
ENCODING 9522
SWIDTH 602 0
DWIDTH 10 0
BBX 10 12 0 -3
BITMAP
3FC0
3FC0
FFC0
FFC0
3FC0
3FC0
3F00
3F00
3F00
3F00
3F00
3F00
ENDCHAR
STARTCHAR uni2533
ENCODING 9523
SWIDTH 602 0
DWIDTH 10 0
BBX 10 12 0 -3
BITMAP
FFC0
FFC0
FFC0
FFC0
FFC0
FFC0
3F00
3F00
3F00
3F00
3F00
3F00
ENDCHAR
STARTCHAR SF070000
ENCODING 9524
SWIDTH 602 0
DWIDTH 10 0
BBX 10 10 0 5
BITMAP
0C00
0C00
0C00
0C00
0C00
0C00
0C00
0C00
FFC0
FFC0
ENDCHAR
STARTCHAR uni2535
ENCODING 9525
SWIDTH 602 0
DWIDTH 10 0
BBX 10 12 0 3
BITMAP
0C00
0C00
0C00
0C00
0C00
0C00
FF00
FF00
FFC0
FFC0
FF00
FF00
ENDCHAR
STARTCHAR uni2536
ENCODING 9526
SWIDTH 602 0
DWIDTH 10 0
BBX 10 12 0 3
BITMAP
0C00
0C00
0C00
0C00
0C00
0C00
3FC0
3FC0
FFC0
FFC0
3FC0
3FC0
ENDCHAR
STARTCHAR uni2537
ENCODING 9527
SWIDTH 602 0
DWIDTH 10 0
BBX 10 12 0 3
BITMAP
0C00
0C00
0C00
0C00
0C00
0C00
FFC0
FFC0
FFC0
FFC0
FFC0
FFC0
ENDCHAR
STARTCHAR uni2538
ENCODING 9528
SWIDTH 602 0
DWIDTH 10 0
BBX 10 12 0 3
BITMAP
3F00
3F00
3F00
3F00
3F00
3F00
3F00
3F00
FFC0
FFC0
3F00
3F00
ENDCHAR
STARTCHAR uni2539
ENCODING 9529
SWIDTH 602 0
DWIDTH 10 0
BBX 10 12 0 3
BITMAP
3F00
3F00
3F00
3F00
3F00
3F00
FF00
FF00
FFC0
FFC0
FF00
FF00
ENDCHAR
STARTCHAR uni253A
ENCODING 9530
SWIDTH 602 0
DWIDTH 10 0
BBX 10 12 0 3
BITMAP
3F00
3F00
3F00
3F00
3F00
3F00
3FC0
3FC0
FFC0
FFC0
3FC0
3FC0
ENDCHAR
STARTCHAR uni253B
ENCODING 9531
SWIDTH 602 0
DWIDTH 10 0
BBX 10 12 0 3
BITMAP
3F00
3F00
3F00
3F00
3F00
3F00
FFC0
FFC0
FFC0
FFC0
FFC0
FFC0
ENDCHAR
STARTCHAR SF050000
ENCODING 9532
SWIDTH 602 0
DWIDTH 10 0
BBX 10 18 0 -3
BITMAP
0C00
0C00
0C00
0C00
0C00
0C00
0C00
0C00
FFC0
FFC0
0C00
0C00
0C00
0C00
0C00
0C00
0C00
0C00
ENDCHAR
STARTCHAR uni253D
ENCODING 9533
SWIDTH 602 0
DWIDTH 10 0
BBX 10 18 0 -3
BITMAP
0C00
0C00
0C00
0C00
0C00
0C00
FF00
FF00
FFC0
FFC0
FF00
FF00
0C00
0C00
0C00
0C00
0C00
0C00
ENDCHAR
STARTCHAR uni253E
ENCODING 9534
SWIDTH 602 0
DWIDTH 10 0
BBX 10 18 0 -3
BITMAP
0C00
0C00
0C00
0C00
0C00
0C00
3FC0
3FC0
FFC0
FFC0
3FC0
3FC0
0C00
0C00
0C00
0C00
0C00
0C00
ENDCHAR
STARTCHAR uni253F
ENCODING 9535
SWIDTH 602 0
DWIDTH 10 0
BBX 10 18 0 -3
BITMAP
0C00
0C00
0C00
0C00
0C00
0C00
FFC0
FFC0
FFC0
FFC0
FFC0
FFC0
0C00
0C00
0C00
0C00
0C00
0C00
ENDCHAR
STARTCHAR uni2540
ENCODING 9536
SWIDTH 602 0
DWIDTH 10 0
BBX 10 18 0 -3
BITMAP
3F00
3F00
3F00
3F00
3F00
3F00
3F00
3F00
FFC0
FFC0
3F00
3F00
0C00
0C00
0C00
0C00
0C00
0C00
ENDCHAR
STARTCHAR uni2541
ENCODING 9537
SWIDTH 602 0
DWIDTH 10 0
BBX 10 18 0 -3
BITMAP
0C00
0C00
0C00
0C00
0C00
0C00
3F00
3F00
FFC0
FFC0
3F00
3F00
3F00
3F00
3F00
3F00
3F00
3F00
ENDCHAR
STARTCHAR uni2542
ENCODING 9538
SWIDTH 602 0
DWIDTH 10 0
BBX 10 18 0 -3
BITMAP
3F00
3F00
3F00
3F00
3F00
3F00
3F00
3F00
FFC0
FFC0
3F00
3F00
3F00
3F00
3F00
3F00
3F00
3F00
ENDCHAR
STARTCHAR uni2543
ENCODING 9539
SWIDTH 602 0
DWIDTH 10 0
BBX 10 18 0 -3
BITMAP
3F00
3F00
3F00
3F00
3F00
3F00
FF00
FF00
FFC0
FFC0
FF00
FF00
0C00
0C00
0C00
0C00
0C00
0C00
ENDCHAR
STARTCHAR uni2544
ENCODING 9540
SWIDTH 602 0
DWIDTH 10 0
BBX 10 18 0 -3
BITMAP
3F00
3F00
3F00
3F00
3F00
3F00
3FC0
3FC0
FFC0
FFC0
3FC0
3FC0
0C00
0C00
0C00
0C00
0C00
0C00
ENDCHAR
STARTCHAR uni2545
ENCODING 9541
SWIDTH 602 0
DWIDTH 10 0
BBX 10 18 0 -3
BITMAP
0C00
0C00
0C00
0C00
0C00
0C00
FF00
FF00
FFC0
FFC0
FF00
FF00
3F00
3F00
3F00
3F00
3F00
3F00
ENDCHAR
STARTCHAR uni2546
ENCODING 9542
SWIDTH 602 0
DWIDTH 10 0
BBX 10 18 0 -3
BITMAP
0C00
0C00
0C00
0C00
0C00
0C00
3FC0
3FC0
FFC0
FFC0
3FC0
3FC0
3F00
3F00
3F00
3F00
3F00
3F00
ENDCHAR
STARTCHAR uni2547
ENCODING 9543
SWIDTH 602 0
DWIDTH 10 0
BBX 10 18 0 -3
BITMAP
3F00
3F00
3F00
3F00
3F00
3F00
FFC0
FFC0
FFC0
FFC0
FFC0
FFC0
0C00
0C00
0C00
0C00
0C00
0C00
ENDCHAR
STARTCHAR uni2548
ENCODING 9544
SWIDTH 602 0
DWIDTH 10 0
BBX 10 18 0 -3
BITMAP
0C00
0C00
0C00
0C00
0C00
0C00
FFC0
FFC0
FFC0
FFC0
FFC0
FFC0
3F00
3F00
3F00
3F00
3F00
3F00
ENDCHAR
STARTCHAR uni2549
ENCODING 9545
SWIDTH 602 0
DWIDTH 10 0
BBX 10 18 0 -3
BITMAP
3F00
3F00
3F00
3F00
3F00
3F00
FF00
FF00
FFC0
FFC0
FF00
FF00
3F00
3F00
3F00
3F00
3F00
3F00
ENDCHAR
STARTCHAR uni254A
ENCODING 9546
SWIDTH 602 0
DWIDTH 10 0
BBX 10 18 0 -3
BITMAP
3F00
3F00
3F00
3F00
3F00
3F00
3FC0
3FC0
FFC0
FFC0
3FC0
3FC0
3F00
3F00
3F00
3F00
3F00
3F00
ENDCHAR
STARTCHAR uni254B
ENCODING 9547
SWIDTH 602 0
DWIDTH 10 0
BBX 10 18 0 -3
BITMAP
3F00
3F00
3F00
3F00
3F00
3F00
FFC0
FFC0
FFC0
FFC0
FFC0
FFC0
3F00
3F00
3F00
3F00
3F00
3F00
ENDCHAR
STARTCHAR uni254C
ENCODING 9548
SWIDTH 602 0
DWIDTH 10 0
BBX 10 18 0 -3
BITMAP
0000
0000
0000
0000
0000
0000
0000
0000
F3C0
F3C0
0000
0000
0000
0000
0000
0000
0000
0000
ENDCHAR
STARTCHAR uni254D
ENCODING 9549
SWIDTH 602 0
DWIDTH 10 0
BBX 10 18 0 -3
BITMAP
0000
0000
0000
0000
0000
0000
F3C0
F3C0
F3C0
F3C0
F3C0
F3C0
0000
0000
0000
0000
0000
0000
ENDCHAR
STARTCHAR uni254E
ENCODING 9550
SWIDTH 602 0
DWIDTH 10 0
BBX 10 18 0 -3
BITMAP
0C00
0C00
0C00
0C00
0C00
0C00
0C00
0C00
0000
0000
0C00
0C00
0C00
0C00
0C00
0C00
0C00
0C00
ENDCHAR
STARTCHAR uni254F
ENCODING 9551
SWIDTH 602 0
DWIDTH 10 0
BBX 10 18 0 -3
BITMAP
3F00
3F00
3F00
3F00
3F00
3F00
3F00
3F00
0000
0000
3F00
3F00
3F00
3F00
3F00
3F00
3F00
3F00
ENDCHAR
STARTCHAR SF430000
ENCODING 9552
SWIDTH 602 0
DWIDTH 10 0
BBX 10 6 0 3
BITMAP
FFC0
FFC0
0000
0000
FFC0
FFC0
ENDCHAR
STARTCHAR SF240000
ENCODING 9553
SWIDTH 602 0
DWIDTH 10 0
BBX 6 18 2 -3
BITMAP
CC
CC
CC
CC
CC
CC
CC
CC
CC
CC
CC
CC
CC
CC
CC
CC
CC
CC
ENDCHAR
STARTCHAR SF390000
ENCODING 9556
SWIDTH 602 0
DWIDTH 10 0
BBX 8 12 2 -3
BITMAP
FF
FF
C0
C0
CF
CF
CC
CC
CC
CC
CC
CC
ENDCHAR
STARTCHAR SF250000
ENCODING 9559
SWIDTH 602 0
DWIDTH 10 0
BBX 8 12 0 -3
BITMAP
FF
FF
03
03
F3
F3
33
33
33
33
33
33
ENDCHAR
STARTCHAR SF380000
ENCODING 9562
SWIDTH 602 0
DWIDTH 10 0
BBX 8 12 2 3
BITMAP
CC
CC
CC
CC
CC
CC
CF
CF
C0
C0
FF
FF
ENDCHAR
STARTCHAR SF260000
ENCODING 9565
SWIDTH 602 0
DWIDTH 10 0
BBX 8 12 0 3
BITMAP
33
33
33
33
33
33
F3
F3
03
03
FF
FF
ENDCHAR
STARTCHAR SF420000
ENCODING 9568
SWIDTH 602 0
DWIDTH 10 0
BBX 8 18 2 -3
BITMAP
CC
CC
CC
CC
CC
CC
CF
CF
C0
C0
CF
CF
CC
CC
CC
CC
CC
CC
ENDCHAR
STARTCHAR SF230000
ENCODING 9571
SWIDTH 602 0
DWIDTH 10 0
BBX 8 18 0 -3
BITMAP
33
33
33
33
33
33
F3
F3
03
03
F3
F3
33
33
33
33
33
33
ENDCHAR
STARTCHAR SF410000
ENCODING 9574
SWIDTH 602 0
DWIDTH 10 0
BBX 10 12 0 -3
BITMAP
FFC0
FFC0
0000
0000
F3C0
F3C0
3300
3300
3300
3300
3300
3300
ENDCHAR
STARTCHAR SF400000
ENCODING 9577
SWIDTH 602 0
DWIDTH 10 0
BBX 10 12 0 3
BITMAP
3300
3300
3300
3300
3300
3300
F3C0
F3C0
0000
0000
FFC0
FFC0
ENDCHAR
STARTCHAR SF540000
ENCODING 9578
SWIDTH 602 0
DWIDTH 10 0
BBX 10 18 0 -3
BITMAP
0C00
0C00
0C00
0C00
0C00
0C00
FFC0
FFC0
0C00
0C00
FFC0
FFC0
0C00
0C00
0C00
0C00
0C00
0C00
ENDCHAR
STARTCHAR SF530000
ENCODING 9579
SWIDTH 602 0
DWIDTH 10 0
BBX 10 18 0 -3
BITMAP
3300
3300
3300
3300
3300
3300
3300
3300
FFC0
FFC0
3300
3300
3300
3300
3300
3300
3300
3300
ENDCHAR
STARTCHAR SF440000
ENCODING 9580
SWIDTH 602 0
DWIDTH 10 0
BBX 10 18 0 -3
BITMAP
3300
3300
3300
3300
3300
3300
F3C0
F3C0
0000
0000
F3C0
F3C0
3300
3300
3300
3300
3300
3300
ENDCHAR
STARTCHAR uni2574
ENCODING 9588
SWIDTH 602 0
DWIDTH 10 0
BBX 6 2 0 5
BITMAP
FC
FC
ENDCHAR
STARTCHAR uni2575
ENCODING 9589
SWIDTH 602 0
DWIDTH 10 0
BBX 2 10 4 5
BITMAP
C0
C0
C0
C0
C0
C0
C0
C0
C0
C0
ENDCHAR
STARTCHAR uni2576
ENCODING 9590
SWIDTH 602 0
DWIDTH 10 0
BBX 6 2 4 5
BITMAP
FC
FC
ENDCHAR
STARTCHAR uni2577
ENCODING 9591
SWIDTH 602 0
DWIDTH 10 0
BBX 2 10 4 -3
BITMAP
C0
C0
C0
C0
C0
C0
C0
C0
C0
C0
ENDCHAR
STARTCHAR uni2578
ENCODING 9592
SWIDTH 602 0
DWIDTH 10 0
BBX 8 6 0 3
BITMAP
FF
FF
FF
FF
FF
FF
ENDCHAR
STARTCHAR uni2579
ENCODING 9593
SWIDTH 602 0
DWIDTH 10 0
BBX 6 12 2 3
BITMAP
FC
FC
FC
FC
FC
FC
FC
FC
FC
FC
FC
FC
ENDCHAR
STARTCHAR uni257A
ENCODING 9594
SWIDTH 602 0
DWIDTH 10 0
BBX 8 6 2 3
BITMAP
FF
FF
FF
FF
FF
FF
ENDCHAR
STARTCHAR uni257B
ENCODING 9595
SWIDTH 602 0
DWIDTH 10 0
BBX 6 12 2 -3
BITMAP
FC
FC
FC
FC
FC
FC
FC
FC
FC
FC
FC
FC
ENDCHAR
STARTCHAR uni257C
ENCODING 9596
SWIDTH 602 0
DWIDTH 10 0
BBX 10 6 0 3
BITMAP
3FC0
3FC0
FFC0
FFC0
3FC0
3FC0
ENDCHAR
STARTCHAR uni257D
ENCODING 9597
SWIDTH 602 0
DWIDTH 10 0
BBX 6 18 2 -3
BITMAP
30
30
30
30
30
30
FC
FC
FC
FC
FC
FC
FC
FC
FC
FC
FC
FC
ENDCHAR
STARTCHAR uni257E
ENCODING 9598
SWIDTH 602 0
DWIDTH 10 0
BBX 10 6 0 3
BITMAP
FF00
FF00
FFC0
FFC0
FF00
FF00
ENDCHAR
STARTCHAR uni257F
ENCODING 9599
SWIDTH 602 0
DWIDTH 10 0
BBX 6 18 2 -3
BITMAP
FC
FC
FC
FC
FC
FC
FC
FC
FC
FC
FC
FC
30
30
30
30
30
30
ENDCHAR
STARTCHAR upblock
ENCODING 9600
SWIDTH 602 0
DWIDTH 10 0
BBX 10 19 0 -3
BITMAP
FFC0
FFC0
FFC0
FFC0
FFC0
FFC0
FFC0
FFC0
FFC0
0000
0000
0000
0000
0000
0000
0000
0000
0000
0000
ENDCHAR
STARTCHAR uni2581
ENCODING 9601
SWIDTH 602 0
DWIDTH 10 0
BBX 10 2 0 -3
BITMAP
FFC0
FFC0
ENDCHAR
STARTCHAR uni2582
ENCODING 9602
SWIDTH 602 0
DWIDTH 10 0
BBX 10 5 0 -3
BITMAP
FFC0
FFC0
FFC0
FFC0
FFC0
ENDCHAR
STARTCHAR uni2583
ENCODING 9603
SWIDTH 602 0
DWIDTH 10 0
BBX 10 7 0 -3
BITMAP
FFC0
FFC0
FFC0
FFC0
FFC0
FFC0
FFC0
ENDCHAR
STARTCHAR dnblock
ENCODING 9604
SWIDTH 602 0
DWIDTH 10 0
BBX 10 10 0 -3
BITMAP
FFC0
FFC0
FFC0
FFC0
FFC0
FFC0
FFC0
FFC0
FFC0
FFC0
ENDCHAR
STARTCHAR uni2585
ENCODING 9605
SWIDTH 602 0
DWIDTH 10 0
BBX 10 12 0 -3
BITMAP
FFC0
FFC0
FFC0
FFC0
FFC0
FFC0
FFC0
FFC0
FFC0
FFC0
FFC0
FFC0
ENDCHAR
STARTCHAR uni2586
ENCODING 9606
SWIDTH 602 0
DWIDTH 10 0
BBX 10 14 0 -3
BITMAP
FFC0
FFC0
FFC0
FFC0
FFC0
FFC0
FFC0
FFC0
FFC0
FFC0
FFC0
FFC0
FFC0
FFC0
ENDCHAR
STARTCHAR uni2587
ENCODING 9607
SWIDTH 602 0
DWIDTH 10 0
BBX 10 17 0 -3
BITMAP
FFC0
FFC0
FFC0
FFC0
FFC0
FFC0
FFC0
FFC0
FFC0
FFC0
FFC0
FFC0
FFC0
FFC0
FFC0
FFC0
FFC0
ENDCHAR
STARTCHAR block
ENCODING 9608
SWIDTH 602 0
DWIDTH 10 0
BBX 10 19 0 -3
BITMAP
FFC0
FFC0
FFC0
FFC0
FFC0
FFC0
FFC0
FFC0
FFC0
FFC0
FFC0
FFC0
FFC0
FFC0
FFC0
FFC0
FFC0
FFC0
FFC0
ENDCHAR
STARTCHAR uni2589
ENCODING 9609
SWIDTH 602 0
DWIDTH 10 0
BBX 9 19 0 -3
BITMAP
FF80
FF80
FF80
FF80
FF80
FF80
FF80
FF80
FF80
FF80
FF80
FF80
FF80
FF80
FF80
FF80
FF80
FF80
FF80
ENDCHAR
STARTCHAR uni258A
ENCODING 9610
SWIDTH 602 0
DWIDTH 10 0
BBX 8 19 0 -3
BITMAP
FF
FF
FF
FF
FF
FF
FF
FF
FF
FF
FF
FF
FF
FF
FF
FF
FF
FF
FF
ENDCHAR
STARTCHAR uni258B
ENCODING 9611
SWIDTH 602 0
DWIDTH 10 0
BBX 6 19 0 -3
BITMAP
FC
FC
FC
FC
FC
FC
FC
FC
FC
FC
FC
FC
FC
FC
FC
FC
FC
FC
FC
ENDCHAR
STARTCHAR lfblock
ENCODING 9612
SWIDTH 602 0
DWIDTH 10 0
BBX 5 19 0 -3
BITMAP
F8
F8
F8
F8
F8
F8
F8
F8
F8
F8
F8
F8
F8
F8
F8
F8
F8
F8
F8
ENDCHAR
STARTCHAR uni258D
ENCODING 9613
SWIDTH 602 0
DWIDTH 10 0
BBX 4 19 0 -3
BITMAP
F0
F0
F0
F0
F0
F0
F0
F0
F0
F0
F0
F0
F0
F0
F0
F0
F0
F0
F0
ENDCHAR
STARTCHAR uni258E
ENCODING 9614
SWIDTH 602 0
DWIDTH 10 0
BBX 3 19 0 -3
BITMAP
E0
E0
E0
E0
E0
E0
E0
E0
E0
E0
E0
E0
E0
E0
E0
E0
E0
E0
E0
ENDCHAR
STARTCHAR uni258F
ENCODING 9615
SWIDTH 602 0
DWIDTH 10 0
BBX 1 19 0 -3
BITMAP
80
80
80
80
80
80
80
80
80
80
80
80
80
80
80
80
80
80
80
ENDCHAR
STARTCHAR rtblock
ENCODING 9616
SWIDTH 602 0
DWIDTH 10 0
BBX 10 19 0 -3
BITMAP
07C0
07C0
07C0
07C0
07C0
07C0
07C0
07C0
07C0
07C0
07C0
07C0
07C0
07C0
07C0
07C0
07C0
07C0
07C0
ENDCHAR
STARTCHAR ltshade
ENCODING 9617
SWIDTH 602 0
DWIDTH 10 0
BBX 10 19 0 -3
BITMAP
0000
5540
0000
AA80
0000
5540
0000
AA80
0000
5540
0000
AA80
0000
5540
0000
AA80
0000
5540
0000
ENDCHAR
STARTCHAR shade
ENCODING 9618
SWIDTH 602 0
DWIDTH 10 0
BBX 10 19 0 -3
BITMAP
5540
AA80
5540
AA80
5540
AA80
5540
AA80
5540
AA80
5540
AA80
5540
AA80
5540
AA80
5540
AA80
5540
ENDCHAR
STARTCHAR dkshade
ENCODING 9619
SWIDTH 602 0
DWIDTH 10 0
BBX 10 19 0 -3
BITMAP
FFC0
AA80
FFC0
5540
FFC0
AA80
FFC0
5540
FFC0
AA80
FFC0
5540
FFC0
AA80
FFC0
5540
FFC0
AA80
FFC0
ENDCHAR
STARTCHAR uni2594
ENCODING 9620
SWIDTH 602 0
DWIDTH 10 0
BBX 10 19 0 -3
BITMAP
FFC0
FFC0
0000
0000
0000
0000
0000
0000
0000
0000
0000
0000
0000
0000
0000
0000
0000
0000
0000
ENDCHAR
STARTCHAR uni2595
ENCODING 9621
SWIDTH 602 0
DWIDTH 10 0
BBX 10 19 0 -3
BITMAP
00C0
00C0
00C0
00C0
00C0
00C0
00C0
00C0
00C0
00C0
00C0
00C0
00C0
00C0
00C0
00C0
00C0
00C0
00C0
ENDCHAR
STARTCHAR fi
ENCODING -1
SWIDTH 602 0
DWIDTH 10 0
BBX 8 12 1 0
BITMAP
3B
7B
60
FF
FF
63
63
63
63
63
63
63
ENDCHAR
STARTCHAR fl
ENCODING -1
SWIDTH 602 0
DWIDTH 10 0
BBX 8 12 1 0
BITMAP
3F
7F
63
FB
FB
63
63
63
63
63
63
63
ENDCHAR
ENDFONT
